<?xml version="1.0" encoding="UTF-8"?><svg id="Calque_2" xmlns="http://www.w3.org/2000/svg" viewBox="0 0 844.04 1234.01"><defs><style>.cls-1{fill:#ffc727;}.cls-1,.cls-2,.cls-3{stroke:#263238;stroke-linecap:round;stroke-linejoin:round;}.cls-1,.cls-3{stroke-width:26px;}.cls-2{stroke-width:5px;}.cls-2,.cls-4{fill:#263238;}.cls-5{opacity:.3;}.cls-6{fill:#f9a332;}.cls-7{fill:#48c75a;}.cls-3{fill:#455a64;}.cls-8{fill:#db2839;}.cls-9{fill:#fcaf15;}.cls-10{fill:#6d184e;}</style></defs><g id="Calque_2-2"><g><g id="comptoir-bar"><g><rect class="cls-1" x="13" y="240.58" width="818.04" height="980.43"/><polygon class="cls-3" points="639.7 238.43 639.7 13 18.6 238.43 639.7 238.43"/></g></g><g><path class="cls-6" d="M637.61,845.33s43.04,56.12-67.8,129.57c-110.84,73.45-265.36,97.75-296.12,18.66-30.75-79.1-2.04-55.68,116.11-69.22,118.15-13.54,196.81-136.39,215.81-123,19,13.39,32,43.98,32,43.98Z"/><path class="cls-4" d="M369.2,1047.47c-17.87,0-34.06-2.23-48.17-6.71-25.89-8.22-43.35-23.51-51.87-45.44-10.91-28.06-15.48-45.33-8.42-56.22,7.65-11.79,26.18-12.72,59.82-14.39,18.27-.91,41.01-2.04,68.69-5.21,73.48-8.42,131.23-59.88,169.44-93.94,25.56-22.77,39.63-35.32,49.73-28.2,18.76,13.22,31.57,41.26,33.45,45.55,2.16,3.1,11.88,18.69,7.88,42.64-5.27,31.5-31.26,62.93-77.25,93.41-40.01,26.51-86.92,47.39-132.1,58.79-25.68,6.48-49.66,9.73-71.2,9.73Zm232.96-242.27c-1.12,0-3.9,.64-9.99,4.91-7.09,4.98-16.31,13.2-27,22.72-39.13,34.87-98.27,87.57-174.82,96.34-27.99,3.21-50.9,4.35-69.31,5.26-28.42,1.42-47.2,2.35-52.13,9.96-4.72,7.28,.32,24.21,9.33,47.39,7.41,19.05,22.8,32.4,45.74,39.69,59.41,18.86,161.66-6.64,243.14-60.64,42.86-28.4,68.09-58.34,72.97-86.57,3.82-22.12-5.94-35.45-6.36-36-.24-.31-.45-.68-.6-1.04-.17-.4-12.73-29.51-30.32-41.91,0,0-.18-.12-.65-.12Z"/><path class="cls-7" d="M253.34,943.75s-28.14-4.33-30.67,14.79c-2.53,19.12,28.5,11.55,28.14,26.34-.36,14.79-.72,34.28,31.03,20.93,31.75-13.35,40.41-30.27,50.51-13.15,10.1,17.12,26.34,14.23,33.92-2.01,7.58-16.24,22.47-19.29,51.65-2.61,29.18,16.68,33.41-42.22,73.19-35.46,39.78,6.77,41.49-12.45,62.78-35.18,21.29-22.73,66.03,2.16,64.59-30.67-1.44-32.83,1.98-20.48,21.74-34.82,19.75-14.34,19.48-47.9-19.21-44.92-38.7,2.98-134.94,141.8-367.67,136.75Z"/><g class="cls-5"><path class="cls-10" d="M522.87,915.96c17.32-17.68,55.57-25.98,89.48-57.01,20.63-18.88,19.23-39.13,14.97-52.11-1.98-.06-4.08-.02-6.31,.15-38.7,2.98-134.94,141.8-367.67,136.75,0,0-28.14-4.33-30.67,14.79-2.53,19.12,28.5,11.55,28.14,26.34-.36,14.79-.72,34.28,31.03,20.93,31.75-13.35,40.41-30.27,50.51-13.15,10.1,17.12,26.34,14.23,33.92-2.01,7.58-16.24,22.47-19.29,51.65-2.61,29.18,16.68,33.41-42.22,73.19-35.46,8.79,1.49,15.71,1.72,21.41,.92-1.35-8.76-1.77-25.17,10.35-37.54Z"/></g><path class="cls-4" d="M264.34,1014.38c-3.96,0-7.26-.92-9.96-2.76-8.22-5.6-7.93-17.38-7.7-26.85,.08-3.2-2.52-4.56-10.38-7-7.78-2.42-19.54-6.08-17.73-19.78,.73-5.55,3.28-10,7.58-13.22,9.66-7.25,25.13-5.48,27.52-5.15,167.02,3.55,261.59-66.51,318.11-108.38,22.31-16.53,37.05-27.45,48.91-28.36,25.44-1.95,33.01,10.96,35.09,16.61,4.41,12-1.11,27.04-13.13,35.77-6.15,4.46-10.81,6.5-14.22,7.98-3.93,1.71-4.67,2.15-5.25,3.8-1.06,3.05-1.01,9.73-.58,19.52,.31,7.03-1.25,12.3-4.75,16.12-6.06,6.6-16.34,7.04-27.24,7.5-12.44,.53-25.31,1.07-33.71,10.05-4.66,4.97-8.29,9.69-11.8,14.26-11.96,15.55-21.41,27.83-54.69,22.17-17.81-3.03-27.61,8.93-37.1,20.49-9.4,11.45-20.05,24.43-37.46,14.48-15.66-8.95-27.52-12.24-35.27-9.79-4.47,1.42-7.93,4.87-10.58,10.55-4.47,9.58-12.04,15.54-20.25,15.94-8.12,.4-15.57-4.43-20.97-13.58-1.79-3.04-3.42-4.71-4.95-5.09-2.91-.73-8.17,2.46-14.84,6.49-6.53,3.96-14.67,8.88-25.57,13.46-7.57,3.18-13.9,4.77-19.1,4.77Zm-17.4-66.93c-5.05,0-11.66,.79-15.84,3.94-2.48,1.87-3.9,4.38-4.34,7.69-.82,6.19,2.83,7.96,12,10.81,6.93,2.16,16.42,5.11,16.18,15.09-.18,7.46-.41,16.75,4.1,19.82,3.63,2.47,10.96,1.5,21.21-2.8,10.34-4.35,18.19-9.1,24.49-12.91,8.64-5.23,14.88-9,21.13-7.43,3.84,.97,7.04,3.8,10.05,8.91,3.77,6.38,8.54,9.74,13.46,9.53,5.09-.25,10.01-4.43,13.16-11.18,3.63-7.78,8.87-12.81,15.57-14.93,10.18-3.24,23.87,.2,41.87,10.49,10.85,6.2,16.71-.04,26.97-12.55,9.95-12.13,22.33-27.23,44.86-23.39,28.38,4.83,34.9-3.66,46.76-19.07,3.46-4.5,7.39-9.6,12.32-14.87,10.71-11.44,25.94-12.08,39.39-12.65,9.13-.39,17.76-.75,21.5-4.83,1.95-2.12,2.79-5.45,2.59-10.18-1.02-23.13,.19-26.64,10.78-31.25,3.23-1.41,7.24-3.16,12.66-7.09,8.95-6.5,13.35-17.78,10.24-26.24-3.06-8.33-12.54-12.32-26.71-11.22-9.48,.73-24.99,12.22-44.62,26.76-27.91,20.68-66.14,49-118.81,71.81-62.17,26.93-131.04,39.78-204.64,38.18-.18,0-.36-.02-.53-.05h0c-1.27-.19-3.34-.38-5.78-.38Z"/><path class="cls-8" d="M554.69,738.8c-5.02,2.01-9.33,5.17-12.87,9.23-21.55,14.84-68.49,44.71-128.04,68.24-59.34,24.06-113.93,34.83-139.76,38.96-5.36-.49-10.67,.19-15.68,2.2-22.89,9.16-31.12,42.39-18.38,74.22,12.74,31.83,38.04,44.22,64.51,41.04,58.9-8.05,111.55-25.01,154.61-43.25,43.75-16.51,93.56-40.56,141.75-75.38,21.35-15.97,31.12-42.39,18.38-74.22-12.74-31.83-41.62-50.2-64.51-41.04Z"/><path class="cls-4" d="M296.52,977.29c-26.97,0-49.17-16.02-60.41-44.11-6.48-16.19-8.02-33.28-4.35-48.14,3.8-15.34,12.69-26.51,25.02-31.45,5.36-2.14,11.1-2.99,17.06-2.53,26.92-4.33,80.24-15.06,138.37-38.62,58.37-23.06,104.36-52.09,126.84-67.53,4-4.45,8.73-7.8,14.09-9.94h0c24.97-9.99,56.32,9.45,69.88,43.34,12.4,30.99,5.02,60.54-19.74,79.06-42.41,30.64-90.4,56.16-142.69,75.91-51.47,21.79-103.81,36.43-155.59,43.51-2.88,.35-5.71,.52-8.5,.52Zm-25.81-118.09c-3.79,0-7.43,.69-10.85,2.06-9.8,3.92-16.93,13.08-20.08,25.77-3.26,13.19-1.85,28.49,4,43.08,11.09,27.71,33.03,41.73,60.19,38.47,51.01-6.98,102.67-21.43,153.49-42.95,.05-.02,.1-.04,.15-.06,51.64-19.49,99.01-44.68,140.79-74.86,21.85-16.34,28.06-41.63,16.96-69.34-11.87-29.66-38.41-47.04-59.15-38.74l-1.53-3.83,1.53,3.83c-4.3,1.72-8.1,4.45-11.3,8.11-.23,.26-.48,.49-.77,.68-22.61,15.57-69.41,45.19-128.87,68.68-59.22,24.01-113.53,34.86-140.63,39.19-.34,.05-.69,.06-1.03,.03-.98-.09-1.96-.13-2.93-.13Z"/><path class="cls-9" d="M247.57,892.15s-27.78,11.19-34.64,30.31c-6.86,19.12,31.03-11.91,67.47-8.66,36.44,3.25,12.27-31.75,63.14-1.8,50.87,29.95,55.57,79.74,90.2,80.64,34.64,.9,32.47-28.32,45.46-12.45,12.99,15.88,37.61,12.99,24.08-15.7-13.53-28.68-4.96-91.83,56.38-126.83,61.34-35,94.17-27.42,97.06-32.47,2.89-5.05-10.82-31.03-54.48-31.75-43.66-.72-153.35,110.77-354.68,118.71Z"/><g class="cls-5"><path class="cls-10" d="M504.54,967.33c-5.34,5.7-17.46,2.99-25.33-6.63-12.99-15.88-9.96,16.42-44.6,15.52-19.63-.51-28.33-16.82-42.58-36.22,4.79-2.69,12.65-11.41,20.61-20.15,13.8-15.15,49.25,26.79,86.66-.53l1.57-7.32s-6.51,17.56-40.61,6.26c-34.1-11.31-46.84-18.89-57.75-6.26-6.75,7.81-14.73,12.86-19.84,15.58-9.66-12.17-21.68-24.79-39.13-35.06-7.16-4.21-12.83-7.14-17.39-9.07-7.53,1.39-15.23,2.64-23.09,3.75-3.78,4.13-8.9,8.36-22.66,7.13-21.45-1.91-43.4,8.05-56.43,12.67-4.73,4.32-8.9,9.51-11.04,15.48-6.86,19.12,31.03-11.91,67.47-8.66,36.44,3.25,12.27-31.75,63.14-1.8,50.87,29.95,55.57,79.74,90.2,80.64,34.64,.9,32.47-28.32,45.46-12.45,12.55,15.34,35.94,13.16,25.33-12.86Z"/></g><g class="cls-5"><path class="cls-10" d="M512.23,880.6l-7.99,20.51s4.19-19.43,0-30.53c-4.19-11.1-2.67-21.76,11.24-15.79,13.91,5.97,15.35,4.81,15.35,4.81,0,0-12.24,12.38-18.6,20.98Z"/></g><path class="cls-4" d="M435.28,996.79c-.54,0-1.09,0-1.64-.02-20.02-.52-30.96-15.59-43.63-33.03-11.65-16.04-24.85-34.22-48.56-48.18-12.9-7.59-21.68-11.4-26.83-11.62-3.33-.13-4.59,1.11-7.35,4.23-4.22,4.77-10,11.28-27.24,9.76-17.4-1.55-35.32,5.2-48.41,10.13-11.53,4.34-17.88,6.74-21.76,2.93-3.24-3.19-1.43-8.24-.83-9.9,7.4-20.63,35.78-32.26,36.98-32.75,.44-.18,.91-.28,1.38-.3,134.11-5.29,226.36-56.36,287.39-90.15,30.22-16.73,52.05-28.81,67.52-28.56,30.97,.51,49.34,13.58,56.21,25.65,1.64,2.88,4.06,8.32,1.79,12.28-1.88,3.28-5.67,3.73-13.24,4.62-13.84,1.63-42.64,5.02-85.36,29.39-56.82,32.42-68.4,92.41-54.69,121.48,9.1,19.29,1.66,26.7-1.96,28.98-8.04,5.08-20.81,1.17-29.05-8.91-2.51-3.06-3.57-3.22-3.58-3.22-.71,.06-2.81,2.1-4.2,3.44-5.35,5.18-14.2,13.76-32.95,13.76Zm-121.27-101.1c6.43,0,15.83,3.45,31.62,12.75,25.2,14.83,39.54,34.58,51.06,50.45,12.31,16.96,21.21,29.21,37.16,29.63,16.41,.4,23.47-6.41,28.63-11.41,3.18-3.09,6.2-5.99,10.43-5.76,4.09,.24,7.22,3.46,9.5,6.23,5.94,7.26,14.39,9.6,18.25,7.16,3.62-2.29,3.2-9.37-1.1-18.48-7.86-16.67-7.89-41.25-.06-64.14,6.76-19.76,22.32-47.6,58.13-68.03,44.18-25.21,74.1-28.73,88.49-30.42,2.49-.29,5.24-.62,6.75-.96-.31-1.41-1.4-4.23-4.52-7.85-4.35-5.04-17.55-16.81-46.16-17.28-13.28-.26-34.28,11.42-63.38,27.53-61.61,34.11-154.65,85.62-290.31,91.15-4.01,1.75-26.07,11.98-31.67,27.61-.07,.2-.14,.39-.19,.56,2.84-.61,7.87-2.51,12.09-4.1,13.83-5.21,32.78-12.34,52.05-10.63,13.09,1.17,16.6-2.8,20.32-7,3.57-4.03,6.97-7,12.93-7Z"/><path class="cls-7" d="M264.89,849.75s-49.79,2.71-55.75,30.31c-5.95,27.6,20.03,22.19,40.05,21.11,20.03-1.08-18.94,37.34,15.7,40.59,34.64,3.25,41.67-48.71,62.78-23.81,21.11,24.9,54.12,22.19,70.36-.54,16.24-22.73,29.77-8.12,61.7,2.16,31.93,10.28,53.58-16.78,43.3-49.79-10.28-33.01,44.92,9.74,60.62-24.36,15.7-34.1-17.86-40.05,22.19-48.17,40.05-8.12,57.37-10.82,50.87-32.74-6.49-21.92-21.65-38.16-72.52-16.51-50.87,21.65-96.88,116.36-299.3,101.75Z"/><g class="cls-5"><path class="cls-10" d="M613.31,741.86c-.33-1.12-.69-2.21-1.07-3.3-10.82-2.18-26.11,.1-48.06,9.44-50.87,21.65-96.88,116.36-299.3,101.75,0,0-49.22,2.68-55.63,29.84,5.46-.2,11.21-.79,16.54-1.08,11.73-.63,3.22,12.29,1.12,23.75,7.01,.24,15.03-.71,22.27-1.1,9.5-.51,5.72,7.87,2.82,17.17,25.84-6.53,33.48-45.19,52.26-23.05,21.11,24.9,54.12,22.19,70.36-.54,16.24-22.73,29.77-8.12,61.7,2.16,31.93,10.28,53.58-16.78,43.3-49.79-10.28-33.01,44.92,9.74,60.62-24.36,15.7-34.1-17.86-40.05,22.19-48.17,40.05-8.12,57.37-10.82,50.87-32.74Z"/></g><path class="cls-4" d="M267.95,946.04c-1.12,0-2.27-.05-3.45-.16-8.04-.75-13.39-3.31-16.35-7.81-4.62-7.02-1.59-16.33,.83-23.81,.95-2.94,2.37-7.3,2.15-8.87-.27-.06-.8-.14-1.72-.09-2.21,.12-4.46,.29-6.84,.47-13.39,1.01-27.23,2.07-34.33-6.08-4.08-4.68-5.1-11.38-3.14-20.49,6.54-30.33,57.4-33.44,59.56-33.56,.17,0,.35,0,.52,0,150.77,10.88,212.25-38.27,257.15-74.16,14.56-11.64,27.14-21.69,40.23-27.27,26-11.06,45.11-13.39,58.44-7.11,9.42,4.44,15.67,12.78,19.66,26.25,2.26,7.61,1.95,13.65-.94,18.44-6.03,10.02-22.27,13.3-49.19,18.74l-3.89,.79c-10.08,2.04-15.81,4.07-17.04,6.03-.59,.94-.12,2.97,.7,6.2,1.78,6.99,4.47,17.56-2.92,33.62-9.46,20.55-31.52,17.01-46.12,14.67-5.43-.87-13.63-2.19-15.03-.57-.05,.05-1.12,1.38,.73,7.3,5.77,18.51,2.5,36.2-8.72,47.32-9.9,9.81-24.4,12.59-39.78,7.63-7.68-2.47-14.28-5.18-20.1-7.56-18.72-7.67-26.47-10.84-36.97,3.87-8.58,12.01-21.74,19.24-36.12,19.84-15.34,.63-29.81-6.12-40.75-19.03-2.95-3.48-5.57-5.27-7.78-5.32-.03,0-.06,0-.08,0-3.79,0-8.4,5.03-13.29,10.35-7.98,8.69-18.72,20.39-35.41,20.39Zm-17.99-49.02c3.5,0,6.11,1.08,7.75,3.21,3.18,4.13,1.31,9.9-.86,16.57-1.98,6.1-4.23,13.02-1.79,16.73,1.47,2.24,4.91,3.62,10.22,4.12,14.6,1.37,23.85-8.7,32.01-17.59,6.22-6.77,12.07-13.21,19.62-13.02,4.75,.09,9.3,2.79,13.92,8.23,9.26,10.92,21.38,16.65,34.11,16.12,11.81-.49,22.65-6.46,29.74-16.39,14.31-20.03,27.95-14.44,46.82-6.71,5.68,2.33,12.12,4.97,19.5,7.34,12.53,4.03,23.69,2.03,31.44-5.64,8.86-8.78,11.41-23.72,6.65-38.99-1.39-4.46-2.8-10.88,.92-15.17,4.41-5.09,12.83-3.74,22.58-2.17,17.26,2.77,30.97,3.8,37.31-9.97,6.17-13.4,4.09-21.57,2.42-28.13-1.13-4.44-2.2-8.64,.31-12.62,2.72-4.34,8.79-6.97,22.39-9.73l3.9-.79c23.84-4.82,39.59-8,43.75-14.9,1.04-1.72,2.17-4.82,.09-11.83-3.27-11.05-8.12-17.76-15.26-21.12-10.92-5.14-28.31-2.71-51.69,7.24-12.06,5.13-24.22,14.86-38.31,26.12-21.99,17.58-49.36,39.46-90.41,55.44-48,18.68-104.34,25.4-172.2,20.53-3.64,.25-46.67,3.76-51.69,27.04-1.36,6.3-.92,10.78,1.29,13.32,4.38,5.03,16.65,4.1,27.48,3.27,2.32-.18,4.72-.36,7.02-.48,.34-.02,.67-.03,.99-.03Z"/><g><path class="cls-6" d="M445.66,868.7c66.78-27.9,120.01-70.64,147.15-123.45-30.17-65.21-95.67-110.73-171.95-111.96-105.98-1.71-194.14,83.43-195.99,189.4-.32,18.26,1.91,35.94,6.34,52.73,60.07,30.4,137.27,25.52,214.45-6.73Z"/><g class="cls-5"><path class="cls-10" d="M489.08,820.11c-57.41,23.99-114.83,32.84-165.2,23.28-32.43-6.15-55.89-34.51-55.61-67.51,0-.59,.01-1.18,.02-1.78,.55-31.57,8.77-61.28,22.83-87.4,0,0,0,0,0,0-37.34,34.5-61.17,83.51-62.12,138.05-.2,11.24,.57,22.27,2.23,33,1.95,12.67,10.57,23.34,22.59,27.79,6.52,2.41,13.21,4.44,20.04,6.14,50.71,10,108.68,1.23,166.63-22.99,54.14-22.62,99.38-55,129.03-94.59-23.35,18.02-50.53,33.51-80.45,46.01Z"/></g><path class="cls-4" d="M321.93,899.89c-26.55,0-51.35-4.23-73.95-12.63-13.19-4.91-22.74-16.65-24.92-30.65-1.74-11.17-2.52-22.6-2.32-33.98,.91-52.35,22.29-101.35,60.21-137.98,37.9-36.62,87.61-56.35,139.98-55.48,33.94,.55,67.27,9.88,96.4,27,28.29,16.62,52.2,40.26,69.15,68.37,7.62,12.64,7.28,28.82-.88,41.23-29.02,44.14-76.87,81.06-138.35,106.75h0c-35.62,14.89-70.64,23.8-104.08,26.51-7.19,.58-14.28,.87-21.24,.87Zm95.78-262.5c-102.56,0-186.92,82.52-188.71,185.37-.19,10.91,.56,21.87,2.22,32.57,1.72,11.05,9.25,20.31,19.64,24.18,53.97,20.07,122.58,14.88,193.2-14.63h0c59.96-25.06,106.52-60.9,134.64-103.67,6.42-9.76,6.7-22.49,.71-32.42-33.87-56.16-93.17-90.32-158.61-91.38-1.03-.02-2.06-.02-3.08-.02Z"/></g></g><g><path class="cls-2" d="M183.27,525.91l-9.21-125.55c-2.02,21.14-5.75,40.85-11.19,59.15s-11.62,32.44-18.53,42.43c-6.92,9.99-13.99,17-21.21,21.04s-14.38,6.06-21.45,6.06c-4.27,0-7.56-.87-9.85-2.62s-3.44-3.87-3.44-6.35c0-2.1,.83-3.92,2.51-5.48,1.67-1.55,3.79-2.33,6.35-2.33,1.86,0,4.55,.41,8.04,1.22,3.19,.82,5.83,1.22,7.93,1.22,3.65,0,7.46-1.36,11.42-4.08,5.98-4.04,11.91-11.28,17.77-21.72,5.87-10.44,11.11-25,15.74-43.67,4.62-18.67,7.52-36.89,8.68-54.67-17.64,0-31.98,4.39-43.01,13.17-8.78,6.99-13.17,14.8-13.17,23.43,0,3.81,2.07,8.39,6.22,13.75,2.23,2.88,3.34,5.21,3.34,6.99,0,2.02-.64,3.69-1.91,5.01-1.27,1.32-2.8,1.98-4.57,1.98-3.01,0-5.68-1.71-8-5.13-3.17-4.58-4.75-10.02-4.75-16.32,0-8.86,2.97-17.35,8.92-25.47,5.94-8.12,14.18-14.3,24.71-18.53s22.86-6.39,37.01-6.47c7.61,0,13.71-.7,18.3-2.1-.25,7-.36,10.76-.32,11.3-.03,.7,.07,2.3,.31,4.78l6.77,88.77c18.8-32.79,37.17-59.77,55.11-80.96,12.73-15,23.83-25.14,33.28-30.42-5.39,14.76-11.17,34.23-17.35,58.4l-14.3,55.95c-.78,3.11-1.84,7.65-3.17,13.64l-2.81,12.47c5.91,1.4,11.31,2.1,16.21,2.1,3.96,0,8.2-.47,12.71-1.4l-1.52,6.76c-3.97,.7-7.04,1.05-9.21,1.05-3.19,0-7.77-.35-13.76-1.05-4.9-.62-9.25-.93-13.06-.93-4.04,0-8.63,.78-13.76,2.33,4.28-11.19,8.76-26.23,13.44-45.11l9-35.67c3.82-15.39,7.13-25.95,9.93-31.7-6.24,7.08-15.86,20.07-28.88,38.97-10.45,15.25-22.14,34.54-35.08,57.88l-10.17,17.85-.02,.03Z"/><path class="cls-2" d="M426.76,409.22h-6.18c.62-3.96,.93-7.11,.93-9.44,0-3.11-1.3-5.15-3.91-6.12-2.61-.97-12.43-1.46-29.46-1.46l-17.04,.12-12.82,51.4h24.09c7.6,0,12.28-.56,14.03-1.69,1.74-1.13,3.01-3.94,3.78-8.45h6.64c-2.49,9.4-4.7,19.74-6.64,31h-5.94c.39-3.65,.58-6.49,.58-8.51,0-.85-.54-1.9-1.63-3.15-.55-.62-1.56-1.05-3.03-1.28-2.1-.39-5.37-.58-9.8-.58h-23.91c-6.89,26.39-14.05,47.07-21.48,62.05,7.23-2.28,13.65-3.42,19.25-3.42,9.33,0,20.76,1.48,34.29,4.43,7.15,1.63,12.01,2.45,14.58,2.45,3.42,0,6.18-.85,8.28-2.55,2.1-1.7,3.15-3.63,3.15-5.8,0-1.24-.53-3.25-1.59-6.03-.65-1.93-.98-3.75-.98-5.45s.72-3.37,2.16-4.76,3.17-2.09,5.19-2.09c2.41,0,4.41,.93,6,2.8,1.59,1.86,2.39,4.35,2.39,7.46,0,6.61-2.9,12.4-8.69,17.37-5.79,4.97-13.43,7.46-22.92,7.46-4.98,0-11.28-.43-18.9-1.28-16.72-1.86-29.47-2.8-38.26-2.8-11.51,0-24.96,.93-40.36,2.8l1.84-6.51c9.22-2.54,14.65-4.41,16.29-5.6s3.01-2.94,4.1-5.25c3.72-7.37,8.55-22.16,14.49-44.36,5.93-22.2,11.97-45.65,18.1-70.33-9.34,0-18.17,2.21-26.49,6.63-8.32,4.42-14.82,10.18-19.49,17.28-4.67,7.1-7,14.57-7,22.4,0,3.34,.33,6.25,.99,8.73s2.16,5.98,4.49,10.48c1.48,2.72,2.21,4.93,2.21,6.63s-.72,3.22-2.14,4.54c-1.43,1.32-3.19,1.98-5.27,1.98-3.01,0-5.41-1.52-7.18-4.55-2.63-4.43-3.94-10.45-3.94-18.07,0-16.32,6.18-30.96,18.53-43.94s30.34-19.47,53.97-19.47h39.98c13.83,0,24.05-.89,30.65-2.68-3.11,12.95-5.09,22.16-5.94,27.62h.01Z"/><path class="cls-2" d="M528.51,380.55l3.26,13.64c3.03,12.43,6.02,23.31,8.98,32.64,2.95,9.32,10.53,30.89,22.73,64.69,1.17-4.27,3.5-13.75,6.99-28.44,4.51-19.12,7.5-31.12,8.98-36.02,4.35-14.38,8.55-24.94,12.59-31.7,4.04-6.76,8.55-11.62,13.52-14.57,4.97-2.95,10.61-4.43,16.9-4.43,5.05,0,8.92,.97,11.6,2.91s4.02,4.27,4.02,6.99c0,1.94-.72,3.65-2.16,5.13s-3.13,2.21-5.07,2.21c-1.4,0-3.03-.39-4.9-1.17-3.89-1.55-6.22-2.45-7-2.68-1.4-.31-2.92-.47-4.55-.47-3.81,0-7.07,1.28-9.79,3.85-4.82,4.51-10.12,15.81-15.91,33.92s-13.15,47.05-22.09,86.84l-3.96,17.37c-8.86-19.5-14.84-33.34-17.94-41.49-4.2-10.96-8.97-24.79-14.33-41.49l-12.82-40.33c-1.56,9.32-5.19,25.04-10.9,47.15-5.71,22.11-9.11,34.83-10.2,38.17-3.58,10.49-7.4,18.53-11.48,24.13-4.08,5.6-8.55,9.67-13.4,12.24-4.86,2.56-10.2,3.85-16.03,3.85-7.3,0-13.29-1.63-17.95-4.9-3.58-2.41-5.36-5.48-5.36-9.21,0-1.63,.66-3.09,1.98-4.37s2.91-1.92,4.78-1.92c2.41,0,5.01,1.28,7.81,3.85,4.97,4.58,9.52,6.88,13.64,6.88,4.43,0,8.78-1.98,13.05-5.94,6.37-6.06,12.51-18.77,18.42-38.11,7.15-23.39,14.03-53.07,20.63-89.05-2.72,0-7.93,.78-15.62,2.33-7.69,1.56-14.12,3.75-19.29,6.59s-9.13,6.53-11.89,11.07c-2.76,4.55-4.14,9.31-4.14,14.28,0,2.49,.35,5.01,1.05,7.58,.47,1.71,1.48,3.81,3.03,6.29,1.79,2.88,2.68,5.05,2.68,6.53,0,1.87-.68,3.46-2.04,4.78-1.36,1.32-3.05,1.98-5.07,1.98-2.95,0-5.48-1.53-7.58-4.6-2.1-3.07-3.15-7.75-3.15-14.04,0-10.41,2.62-19.27,7.87-26.58,5.25-7.3,12.26-12.82,21.04-16.55,5.59-2.33,16.39-4.58,32.4-6.76,5.9-.78,11.46-1.79,16.67-3.03v-.04Z"/><path class="cls-2" d="M697.17,381.6c-7.85,13.83-15.58,31.43-23.2,52.8-5.36,15.15-8.04,27.82-8.04,38,0,11.35,2.74,20.16,8.22,26.46,5.48,6.29,12.33,9.44,20.57,9.44,7.77,0,15.07-1.94,21.91-5.83,9.09-5.13,17.5-12.94,25.23-23.43s14.04-23.06,18.94-37.71c4.89-14.65,7.34-28.34,7.34-41.09,0-8.86-1.9-17.25-5.71-25.18-2.02-4.04-3.15-6.45-3.38-7.23-.31-1.09-.47-2.25-.47-3.5,0-2.33,.72-4.23,2.16-5.71,1.44-1.48,3.21-2.21,5.3-2.21,3.65,0,6.53,1.94,8.62,5.83,3.03,5.29,4.55,13.48,4.55,24.59,0,23.78-5.21,47.44-15.62,70.98s-22.44,40.37-36.07,50.47c-13.64,10.1-27.96,15.15-42.95,15.15-12.2,0-21.56-4.06-28.09-12.18s-9.79-18.12-9.79-30.01c0-9.79,1.51-19.81,4.55-30.07,3.96-13.44,12.16-33.53,24.59-60.26-9.71-.23-18.42,.95-26.11,3.55-7.69,2.6-13.23,5.91-16.61,9.94s-5.07,8.02-5.07,11.98c0,1.63,.89,3.84,2.68,6.63,1.87,3.18,2.8,5.66,2.8,7.44,0,2.25-.7,4.11-2.1,5.58-1.4,1.47-3.15,2.21-5.25,2.21-2.56,0-4.8-1.16-6.7-3.49-1.91-2.33-2.86-5.35-2.86-9.07,0-5.97,1.75-11.96,5.25-17.97s8.02-10.84,13.58-14.48c5.55-3.64,12.41-6.32,20.57-8.03,4.04-.85,12.43-1.63,25.18-2.33,8.7-.47,14.03-.89,15.97-1.28h.01Z"/></g></g></g></svg>