<?xml version="1.0" encoding="UTF-8"?><svg id="Calque_2" xmlns="http://www.w3.org/2000/svg" viewBox="0 0 1129.3 1183.83"><defs><style>.cls-1{stroke-width:5px;}.cls-1,.cls-2,.cls-3,.cls-4{stroke:#263238;stroke-linecap:round;stroke-linejoin:round;}.cls-1,.cls-3{fill:#263238;}.cls-2{fill:#455a64;}.cls-2,.cls-3,.cls-4{stroke-width:10px;}.cls-4{fill:#ffc727;}</style></defs><g id="comptoir-bar"><g><rect class="cls-3" x="306.25" y="5" width="818.04" height="980.43"/><rect class="cls-4" x="5" y="198.41" width="818.04" height="980.43"/><polygon class="cls-2" points="820.98 198.41 306.25 5 306.25 198.41 820.98 198.41"/><g><path class="cls-1" d="M163.48,519.84l-9.21-125.55c-2.02,21.14-5.75,40.85-11.19,59.15-5.44,18.3-11.62,32.44-18.53,42.43-6.92,9.99-13.99,17-21.21,21.04s-14.38,6.06-21.45,6.06c-4.27,0-7.56-.87-9.85-2.62-2.29-1.75-3.44-3.87-3.44-6.35,0-2.1,.83-3.92,2.51-5.48,1.67-1.55,3.79-2.33,6.35-2.33,1.86,0,4.55,.41,8.04,1.22,3.19,.82,5.83,1.22,7.93,1.22,3.65,0,7.46-1.36,11.42-4.08,5.98-4.04,11.91-11.28,17.77-21.72,5.87-10.44,11.11-25,15.74-43.67,4.62-18.67,7.52-36.89,8.68-54.67-17.64,0-31.98,4.39-43.01,13.17-8.78,6.99-13.17,14.8-13.17,23.43,0,3.81,2.07,8.39,6.22,13.75,2.23,2.88,3.34,5.21,3.34,6.99,0,2.02-.64,3.69-1.91,5.01-1.27,1.32-2.8,1.98-4.57,1.98-3.01,0-5.68-1.71-8-5.13-3.17-4.58-4.75-10.02-4.75-16.32,0-8.86,2.97-17.35,8.92-25.47,5.94-8.12,14.18-14.3,24.71-18.53,10.53-4.23,22.86-6.39,37.01-6.47,7.61,0,13.71-.7,18.3-2.1-.25,7-.36,10.76-.32,11.3-.03,.7,.07,2.3,.31,4.78l6.77,88.77c18.8-32.79,37.17-59.77,55.11-80.96,12.73-15,23.83-25.14,33.28-30.42-5.39,14.76-11.17,34.23-17.35,58.4l-14.3,55.95c-.78,3.11-1.84,7.65-3.17,13.64l-2.81,12.47c5.91,1.4,11.31,2.1,16.21,2.1,3.96,0,8.2-.47,12.71-1.4l-1.52,6.76c-3.97,.7-7.04,1.05-9.21,1.05-3.19,0-7.77-.35-13.76-1.05-4.9-.62-9.25-.93-13.06-.93-4.04,0-8.63,.78-13.76,2.33,4.28-11.19,8.76-26.23,13.44-45.11l9-35.67c3.82-15.39,7.13-25.95,9.93-31.7-6.24,7.08-15.86,20.07-28.88,38.97-10.45,15.25-22.14,34.54-35.08,57.88l-10.17,17.85Z"/><path class="cls-1" d="M406.97,403.15h-6.18c.62-3.96,.93-7.11,.93-9.44,0-3.11-1.3-5.15-3.91-6.12-2.61-.97-12.43-1.46-29.46-1.46l-17.04,.12-12.82,51.4h24.09c7.6,0,12.28-.56,14.03-1.69,1.74-1.13,3.01-3.94,3.78-8.45h6.64c-2.49,9.4-4.7,19.74-6.64,31h-5.94c.39-3.65,.58-6.49,.58-8.51,0-.85-.54-1.9-1.63-3.15-.55-.62-1.56-1.05-3.03-1.28-2.1-.39-5.37-.58-9.8-.58h-23.91c-6.89,26.39-14.05,47.07-21.48,62.05,7.23-2.28,13.65-3.42,19.25-3.42,9.33,0,20.76,1.48,34.29,4.43,7.15,1.63,12.01,2.45,14.58,2.45,3.42,0,6.18-.85,8.28-2.55,2.1-1.7,3.15-3.63,3.15-5.8,0-1.24-.53-3.25-1.59-6.03-.65-1.93-.98-3.75-.98-5.45s.72-3.37,2.16-4.76c1.44-1.39,3.17-2.09,5.19-2.09,2.41,0,4.41,.93,6,2.8,1.59,1.86,2.39,4.35,2.39,7.46,0,6.61-2.9,12.4-8.69,17.37-5.79,4.97-13.43,7.46-22.92,7.46-4.98,0-11.28-.43-18.9-1.28-16.72-1.86-29.47-2.8-38.26-2.8-11.51,0-24.96,.93-40.36,2.8l1.84-6.51c9.22-2.54,14.65-4.41,16.29-5.6,1.64-1.19,3.01-2.94,4.1-5.25,3.72-7.37,8.55-22.16,14.49-44.36,5.93-22.2,11.97-45.65,18.1-70.33-9.34,0-18.17,2.21-26.49,6.63-8.32,4.42-14.82,10.18-19.49,17.28-4.67,7.1-7,14.57-7,22.4,0,3.34,.33,6.25,.99,8.73,.66,2.48,2.16,5.98,4.49,10.48,1.48,2.72,2.21,4.93,2.21,6.63s-.72,3.22-2.14,4.54c-1.43,1.32-3.19,1.98-5.27,1.98-3.01,0-5.41-1.52-7.18-4.55-2.63-4.43-3.94-10.45-3.94-18.07,0-16.32,6.18-30.96,18.53-43.94,12.35-12.98,30.34-19.47,53.97-19.47h39.98c13.83,0,24.05-.89,30.65-2.68-3.11,12.95-5.09,22.16-5.94,27.62Z"/><path class="cls-1" d="M508.72,374.48l3.26,13.64c3.03,12.43,6.02,23.31,8.98,32.64,2.95,9.32,10.53,30.89,22.73,64.69,1.17-4.27,3.5-13.75,6.99-28.44,4.51-19.12,7.5-31.12,8.98-36.02,4.35-14.38,8.55-24.94,12.59-31.7,4.04-6.76,8.55-11.62,13.52-14.57,4.97-2.95,10.61-4.43,16.9-4.43,5.05,0,8.92,.97,11.6,2.91,2.68,1.94,4.02,4.27,4.02,6.99,0,1.94-.72,3.65-2.16,5.13-1.44,1.48-3.13,2.21-5.07,2.21-1.4,0-3.03-.39-4.9-1.17-3.89-1.55-6.22-2.45-7-2.68-1.4-.31-2.92-.47-4.55-.47-3.81,0-7.07,1.28-9.79,3.85-4.82,4.51-10.12,15.81-15.91,33.92-5.79,18.11-13.15,47.05-22.09,86.84l-3.96,17.37c-8.86-19.5-14.84-33.34-17.94-41.49-4.2-10.96-8.97-24.79-14.33-41.49l-12.82-40.33c-1.56,9.32-5.19,25.04-10.9,47.15-5.71,22.11-9.11,34.83-10.2,38.17-3.58,10.49-7.4,18.53-11.48,24.13s-8.55,9.67-13.4,12.24c-4.86,2.56-10.2,3.85-16.03,3.85-7.3,0-13.29-1.63-17.95-4.9-3.58-2.41-5.36-5.48-5.36-9.21,0-1.63,.66-3.09,1.98-4.37,1.32-1.28,2.91-1.92,4.78-1.92,2.41,0,5.01,1.28,7.81,3.85,4.97,4.58,9.52,6.88,13.64,6.88,4.43,0,8.78-1.98,13.05-5.94,6.37-6.06,12.51-18.77,18.42-38.11,7.15-23.39,14.03-53.07,20.63-89.05-2.72,0-7.93,.78-15.62,2.33-7.69,1.56-14.12,3.75-19.29,6.59-5.17,2.84-9.13,6.53-11.89,11.07-2.76,4.55-4.14,9.31-4.14,14.28,0,2.49,.35,5.01,1.05,7.58,.47,1.71,1.48,3.81,3.03,6.29,1.79,2.88,2.68,5.05,2.68,6.53,0,1.87-.68,3.46-2.04,4.78-1.36,1.32-3.05,1.98-5.07,1.98-2.95,0-5.48-1.53-7.58-4.6-2.1-3.07-3.15-7.75-3.15-14.04,0-10.41,2.62-19.27,7.87-26.58,5.25-7.3,12.26-12.82,21.04-16.55,5.59-2.33,16.39-4.58,32.4-6.76,5.9-.78,11.46-1.79,16.67-3.03Z"/><path class="cls-1" d="M677.38,375.53c-7.85,13.83-15.58,31.43-23.2,52.8-5.36,15.15-8.04,27.82-8.04,38,0,11.35,2.74,20.16,8.22,26.46,5.48,6.29,12.33,9.44,20.57,9.44,7.77,0,15.07-1.94,21.91-5.83,9.09-5.13,17.5-12.94,25.23-23.43,7.73-10.49,14.04-23.06,18.94-37.71,4.89-14.65,7.34-28.34,7.34-41.09,0-8.86-1.9-17.25-5.71-25.18-2.02-4.04-3.15-6.45-3.38-7.23-.31-1.09-.47-2.25-.47-3.5,0-2.33,.72-4.23,2.16-5.71,1.44-1.48,3.21-2.21,5.3-2.21,3.65,0,6.53,1.94,8.62,5.83,3.03,5.29,4.55,13.48,4.55,24.59,0,23.78-5.21,47.44-15.62,70.98-10.41,23.54-22.44,40.37-36.07,50.47-13.64,10.1-27.96,15.15-42.95,15.15-12.2,0-21.56-4.06-28.09-12.18-6.53-8.12-9.79-18.12-9.79-30.01,0-9.79,1.51-19.81,4.55-30.07,3.96-13.44,12.16-33.53,24.59-60.26-9.71-.23-18.42,.95-26.11,3.55-7.69,2.6-13.23,5.91-16.61,9.94-3.38,4.03-5.07,8.02-5.07,11.98,0,1.63,.89,3.84,2.68,6.63,1.87,3.18,2.8,5.66,2.8,7.44,0,2.25-.7,4.11-2.1,5.58-1.4,1.47-3.15,2.21-5.25,2.21-2.56,0-4.8-1.16-6.7-3.49-1.91-2.33-2.86-5.35-2.86-9.07,0-5.97,1.75-11.96,5.25-17.97,3.5-6.01,8.02-10.84,13.58-14.48,5.55-3.64,12.41-6.32,20.57-8.03,4.04-.85,12.43-1.63,25.18-2.33,8.7-.47,14.03-.89,15.97-1.28Z"/></g></g></g></svg>