<?xml version="1.0" encoding="UTF-8"?><svg id="Calque_2" xmlns="http://www.w3.org/2000/svg" viewBox="0 0 1838.62 2171.09"><defs><style>.cls-1,.cls-2{fill:#455a64;}.cls-2{font-family:MonotypeCorsiva, 'Monotype Corsiva';font-size:380.12px;}.cls-3{fill:#ffc727;}.cls-4{fill:#f2f2f2;}.cls-5{fill:#263238;}</style></defs><g id="Layer_1"><g><g><polygon class="cls-1" points="469.19 642.05 1357.16 657.78 1386.32 768.69 1353.21 1402.4 1136.04 1402.4 1069.3 1390.94 1007.93 1402.4 666.05 1407.28 598.21 1388.9 540.15 1388.9 513.93 1402.4 424 1369.35 402.68 736.46 469.19 642.05"/><circle class="cls-4" cx="540.15" cy="703.31" r="93.75" transform="translate(-339.11 587.94) rotate(-45)"/><circle class="cls-4" cx="776.61" cy="703.31" r="93.75" transform="translate(-269.85 755.14) rotate(-45)"/><circle class="cls-4" cx="1001.77" cy="703.31" r="93.75" transform="translate(-203.9 914.36) rotate(-45)"/><circle class="cls-4" cx="1216.59" cy="703.31" r="93.75" transform="translate(-140.98 1066.26) rotate(-45)"/><polygon class="cls-3" points="513 641.09 424 220.26 551.55 135.67 597.06 164.87 709.38 482.56 715.2 164.87 875.4 109.87 964.08 164.87 1007.93 43.11 1117.96 54.24 1163.27 112.65 1165.88 228.62 1309.4 185.24 1386.32 279.52 1258.26 657.78 513 641.09"/><g><rect class="cls-3" x="597.06" y="938.87" width="634.17" height="199.91"/><path class="cls-4" d="M1296.45,1140.8h-23.89v-229.92c0-15.46-12.53-27.98-27.98-27.98H569.08c-15.46,0-27.98,12.53-27.98,27.98v229.92h-23.89c-15.93,0-28.84,12.91-28.84,28.84s12.91,28.84,28.84,28.84h779.24c15.93,0,28.84-12.91,28.84-28.84s-12.91-28.84-28.84-28.84Zm-79.85-2.02H597.06v-199.91h619.53v199.91Z"/><path class="cls-5" d="M1400.16,1386.04l15.16-667.54c.65-25.46-8.79-49.53-26.58-67.77-17.78-18.24-41.6-28.28-67.07-28.28h-25.55l115.92-322.41c2.89-8.03,2.07-16.92-2.23-24.29l-64.9-111.25c-6.89-11.81-21.13-17.16-34.09-12.81l-99.48,33.38c-6.64,2.23-12.19,6.78-15.68,12.72l6.98-99.56c.68-9.65-3.53-19-11.21-24.9L1103.72,5.97c-8.22-6.32-19.21-7.73-28.77-3.7l-102.69,43.3c-10.16,4.28-16.99,13.99-17.59,25l-4.12,75.31c-.66-.95-1.37-1.86-2.15-2.72l-58.92-66.14c-7.98-8.96-20.67-12.04-31.87-7.74l-157.9,60.58c-11.9,4.56-19.39,16.4-18.43,29.1l15.46,204.54-47.63-170c-1.27-4.55-3.65-8.72-6.91-12.13l-77.88-81.58c-10.05-10.53-26.38-11.92-38.06-3.24l-129.79,96.42c-9.4,6.98-13.64,18.95-10.74,30.3l102.05,399.19h-10.88c-25.47,0-49.29,10.04-67.07,28.28-17.78,18.24-27.22,42.3-26.58,67.77l16.95,670.21c.4,15.64,13.19,28.11,28.83,28.11h50.29c-.19,3.23-.3-3.28-.3,0m326.14,0h184.66m191.88-1019.69l61-161.74,45.11-15.13-113.13,276.99,7.02-100.11Zm73.23,283c.06,0,.12,0,.18,0,.07,0,.13,0,.2,0h54.11c-.56,2.24-.88,4.57-.88,6.98,0,44.98-36.6,81.58-81.58,81.58s-81.58-36.6-81.58-81.58c0-2.41-.33-4.74-.88-6.98h110.44ZM1011.28,91.72l58.02-24.46-34.77,555.2h-52.29l29.04-530.74Zm-59.56,588.42h132.52c-.56,2.24-.88,4.57-.88,6.98,0,44.98-36.6,81.58-81.58,81.58s-81.58-36.6-81.58-81.58c0-2.41-.33-4.74-.88-6.98h32.41Zm-106.13-544.47l35.33,486.79h-106.76l-33.75-446.43,105.18-40.35Zm13.48,544.47c-.56,2.24-.88,4.57-.88,6.98,0,44.98-36.6,81.58-81.58,81.58s-81.58-36.6-81.58-81.58c0-2.41-.33-4.74-.88-6.98h52.82s.03,0,.05,0h112.06ZM446.4,227.73l84.61-62.85,119.62,457.58h-103.31l-100.91-394.73Zm30.49,452.41h47.83c.06,0,.11,0,.17,0,.08,0,.15,0,.23,0h108.78c-.56,2.24-.88,4.57-.88,6.98,0,44.98-36.6,81.58-81.58,81.58s-81.58-36.6-81.58-81.58c0-2.11-.24-4.16-.67-6.15,2.5-.54,5.08-.83,7.7-.83Zm527.21,679h-213.25m-297.24,0h-36.46l-14.81-585.58c25.53,32.15,64.95,52.81,109.1,52.81s87.24-22.63,112.58-57.39c25.35,34.76,66.37,57.39,112.58,57.39s87.24-22.63,112.58-57.39c25.35,34.76,66.37,57.39,112.58,57.39s87.24-22.63,112.58-57.39c25.35,34.76,66.37,57.39,112.58,57.39,59.42,0,110.26-37.41,130.22-89.91l-15.75,622.68h-40.07"/></g><path class="cls-5" d="M1401.22,1327.2l-1.06,58.84c-.31,17.09-14.25,30.79-31.34,30.79H429.03l28.12-57.69h884.26l.81-31.94h58.99Z"/></g><g><g><g><path class="cls-5" d="M290.48,1546.13l-.43-1.15-31.35,5.61c0,1.34-3.26,5.27-9.78,11.79-21.76,17.45-40.65,27.27-56.66,29.48,0-9.97,2.59-22,7.77-36.09,3.16-10.64,19.32-28.23,48.46-52.77,11.6-6.71,24.09-11.79,37.46-15.24,13.37-3.45,27.68-5.18,42.92-5.18l26.89-200.31-28.47-28.33,.14-.86c-5.46,.1-11.29,.55-17.47,1.37-6.18,.82-12.58,1.94-19.2,3.38-6.61,1.44-13.35,3.12-20.2,5.03-6.86,1.92-13.69,4.08-20.49,6.47-11.6,4.03-24.21,9.59-37.82,16.68-13.61,7.1-27.8,15.67-42.56,25.74-17.93,12.85-34.71,26.44-50.33,40.77-15.63,14.33-30.29,29.65-44,45.94-10.35,12.37-19.61,24.93-27.75,37.68-8.15,12.75-14.96,24.83-20.42,36.24-8.72,19.56-15.44,39.11-20.13,58.67-4.7,19.56-7.05,38.3-7.05,56.23,0,5.18,.14,10.23,.43,15.17,.29,4.94,.81,9.8,1.58,14.6,2.4,16.01,8.77,33.6,19.12,52.77,3.55,5.46,7.48,10.64,11.79,15.53s8.96,9.49,13.95,13.8l22,22c1.15,1.15,2.3,2.25,3.45,3.31,1.15,1.05,2.35,2.11,3.59,3.16,30.39,23.39,65.14,36.29,104.25,38.68,32.79,.48,65.38-6.18,97.78-19.99,11.41-3.93,24.28-9.97,38.61-18.12,14.33-8.15,30.13-18.41,47.38-30.77l-45.44-123.24-28.04-28.04Zm-47.31,155.59c-30.49,13.13-60.83,19.46-91.03,18.98-35.47-2.3-66.92-13.95-94.33-34.94-8.53-7.29-15.91-15.77-22.14-25.45-8.82-16.39-14.33-31.69-16.54-45.87-5.95-41.7,2.01-86.71,23.87-135.03,10.16-22.24,25.36-45.54,45.58-69.89,26.27-31.25,56.61-59.15,91.02-83.69,28.66-19.46,54.07-32.88,76.21-40.26,27.03-9.78,44.34-14.71,51.91-14.81l-22.29,166.23c-23.97,0-49.04,7.77-75.21,23.3-32.6,27.32-50.91,47.79-54.93,61.4-14.86,40.65-10.64,68.88,12.65,84.7,4.7,1.15,10.69,2.2,17.97,3.16,21.76,0,46.83-11.65,75.21-34.94,9.87-9.87,14.81-15.86,14.81-17.97l39.11,105.84c-26.37,18.89-50.33,31.97-71.9,39.26Z"/><path class="cls-3" d="M275.95,1557.3c0,2.11-4.94,8.1-14.81,17.97-28.38,23.3-53.45,34.94-75.21,34.94-7.29-.96-13.28-2.01-17.97-3.16-23.3-15.82-27.52-44.05-12.65-84.7,4.03-13.61,22.34-34.08,54.93-61.4,26.17-15.53,51.24-23.3,75.21-23.3l22.29-166.23c-7.57,.1-24.88,5.03-51.91,14.81-22.14,7.38-47.55,20.8-76.21,40.26-34.42,24.54-64.76,52.44-91.02,83.69-20.23,24.35-35.42,47.65-45.58,69.89-21.86,48.32-29.82,93.33-23.87,135.03,2.2,14.19,7.72,29.48,16.54,45.87,6.23,9.68,13.61,18.17,22.14,25.45,27.42,20.99,58.86,32.64,94.33,34.94,30.2,.48,60.54-5.85,91.03-18.98,21.57-7.29,45.54-20.37,71.9-39.26l-39.11-105.84Z"/></g><g><path class="cls-3" d="M544.43,1502.85l-10.07-20.85c14-13.04,28.81-28.18,44.43-45.44,29.34-40.84,40.26-77.51,32.79-110.01-5.18-15.82-16.83-28.9-34.94-39.26-17.54-9.87-36.91-14.09-58.1-12.65-11.98,.19-28.71,4.79-50.19,13.8-28.47,11.31-51.77,24.83-69.89,40.55-2.49,35.18-4.12,57.95-4.89,68.3-4.22,53.21-7.62,92.94-10.21,119.21-3.74,37.87-6.95,66.05-9.63,84.55,23.49,10.26,40.07,18.07,49.75,23.44,21.47,11.69,40.26,22.43,56.37,32.21,1.92-13.71,2.83-26.39,2.73-38.04-.1-11.65,.29-39.04,1.15-82.18l67.59,146.53,64.42-63.56c-29.33-40.93-53.11-79.81-71.33-116.62Z"/><path class="cls-5" d="M515.23,1373c-6.33,0-16.54,4.94-30.63,14.81-.67,13.04-1.01,22.58-1.01,28.62l.58,25.45,9.92-6.47c23.29-18.31,34.94-34.17,34.94-47.6,0-11.02-4.6-15.96-13.81-14.81Z"/><path class="cls-5" d="M588.29,1524.13l.14,.14-4.75-9.92c3.45-3.26,6.57-6.26,9.35-8.99,2.78-2.73,5.51-5.49,8.2-8.27,2.68-2.78,5.51-5.8,8.48-9.06,2.97-3.26,6.42-7.05,10.35-11.36,13.23-18.41,23.1-36,29.62-52.77,6.52-16.77,9.78-32.88,9.78-48.32,0-8.43-.91-16.44-2.73-24.01-4.12-12.56-10.98-23.63-20.56-33.22l-22.29-22.15c-3.74-4.6-8.01-8.89-12.8-12.87-4.79-3.98-10.12-7.69-15.96-11.14-17.83-10.07-37.34-15.1-58.53-15.1-1.34,0-2.83,.02-4.46,.07-1.63,.05-3.12,.12-4.46,.22-14.48,.29-33.22,5.32-56.23,15.1v.14c-30.01,12.08-56.61,28.14-79.81,48.17-.58,8.53-1.15,17.04-1.73,25.52-.58,8.48-1.1,16.03-1.58,22.65-.19,2.3-.34,4.44-.43,6.4-.1,1.97-.24,3.76-.43,5.39-.19,2.78-.36,5.25-.5,7.41-.14,2.16-.31,4.1-.5,5.82,0,.29-.02,.62-.07,1.01-.05,.38-.07,.72-.07,1.01-2.11,26.75-3.98,49.95-5.61,69.6-1.63,19.65-3.12,36.09-4.46,49.32-.96,9.4-1.97,18.86-3.02,28.4-1.06,9.54-2.08,18.58-3.09,27.11-1.01,8.53-1.99,16.37-2.95,23.51-.96,7.14-1.77,13.01-2.44,17.62,.58,.19,1.01,.38,1.29,.58l27.9,27.9c29.72,12.94,49.75,22.29,60.11,28.04,3.55,1.92,7.57,4.15,12.08,6.69,4.5,2.54,9.18,5.22,14.02,8.05,4.84,2.83,9.75,5.68,14.74,8.56,4.98,2.88,9.78,5.68,14.38,8.41,4.6,2.73,8.84,5.25,12.73,7.55,3.88,2.3,7.17,4.26,9.85,5.9,1.05-8.25,2.01-15.89,2.88-22.94,.86-7.05,1.53-13.45,2.01-19.2l19.27,41.41,.43-.43,28.47,28.47,91.6-90.45c-17.26-24.06-32.36-46.54-45.3-67.44-12.94-20.9-23.92-40.41-32.93-58.53Zm-36.96,158.9l-67.59-146.53c-.86,43.14-1.25,70.53-1.15,82.18,.09,11.65-.82,24.32-2.73,38.04-16.11-9.78-34.9-20.52-56.37-32.21-9.68-5.37-26.27-13.18-49.75-23.44,2.68-18.5,5.9-46.69,9.63-84.55,2.59-26.27,5.99-66,10.21-119.21,.77-10.35,2.4-33.12,4.89-68.3,18.12-15.72,41.41-29.24,69.89-40.55,21.47-9.01,38.2-13.61,50.19-13.8,21.19-1.44,40.55,2.78,58.1,12.65,18.12,10.35,29.77,23.44,34.94,39.26,7.48,32.5-3.45,69.17-32.79,110.01-15.63,17.26-30.44,32.4-44.43,45.44l10.07,20.85c18.21,36.81,41.99,75.69,71.33,116.62l-64.42,63.56Z"/></g><g><path class="cls-3" d="M895.87,1634.28c-.38-7.48-1.1-15.63-2.16-24.45l-3.88-30.34-5.18-48.17c-1.92-19.65-3.59-32.88-5.03-39.69-.67-4.41-2.06-14.67-4.17-30.77-1.25-8.82-2.21-16.11-2.88-21.86l-2.59-19.56-6.18-55.94c-1.92-18.41-4.41-36.38-7.48-53.92-44.87,15.53-82.25,26.8-112.16,33.79l-32.93,87.86c-14.19,41.03-25.12,68.55-32.79,82.54-9.11,24.25-16.15,40.84-21.14,49.75,35.38,47.65,56.56,80.14,63.56,97.5,.67,0,1.01-.38,1.01-1.15,7.19-8.34,16.01-27.71,26.46-58.1,24.16,6.33,41.03,10.93,50.62,13.81l2.3,17.83c.77,3.74,3.93,30.92,9.49,81.53l32.93-21.14c25.69-12.27,44.05-22.86,55.08-31.78,0-5.75-.96-15-2.88-27.75Z"/><path class="cls-5" d="M762.71,1543.69c10.26,4.31,22.05,6.95,35.38,7.91-2.97-32.21-6.9-59.68-11.79-82.4-12.75,33.65-20.61,58.48-23.58,74.49Z"/><path class="cls-5" d="M941.46,1661.6c-.19-3.74-.5-7.74-.94-12.01-.43-4.27-.89-8.61-1.37-13.01-.67-5.08-1.32-10.16-1.94-15.24-.62-5.08-1.27-10.16-1.94-15.24h-.14c-.86-7.96-1.7-15.94-2.52-23.94-.82-8-1.65-15.98-2.52-23.94-1.06-9.78-1.99-18-2.8-24.66-.82-6.66-1.61-11.86-2.37-15.6h.14c-.19-1.53-.5-3.74-.93-6.62-.43-2.88-.93-6.47-1.51-10.78-.29-1.92-.55-4-.79-6.26-.24-2.25-.55-4.62-.93-7.12-.48-3.64-.93-7-1.37-10.07-.43-3.07-.79-5.9-1.08-8.48-.1-.48-.17-1.03-.21-1.65-.05-.62-.12-1.17-.22-1.65h-.14c-.48-3.16-.89-6.37-1.22-9.63-.34-3.26-.74-6.47-1.22-9.63-1.06-9.3-2.08-18.57-3.09-27.83-1.01-9.25-2.04-18.53-3.09-27.83-.96-9.2-2.08-18.45-3.38-27.75-1.29-9.3-2.71-18.36-4.24-27.18l-28.18-28.18c-.1-.19-.14-.53-.14-1.01l-22.29-13.23c-22.34,7.67-43.45,14.45-63.34,20.35-19.89,5.9-38.71,10.95-56.44,15.17l-36.38,96.92c-14.09,40.55-24.83,67.64-32.21,81.25-4.41,11.98-8.77,22.79-13.09,32.43-4.31,9.63-8.63,18.19-12.94,25.67,39.5,53.01,63.75,90.83,72.76,113.46h.72l28.33,28.33c6.81,0,12.2-.6,16.18-1.8,3.98-1.2,7.02-3.04,9.13-5.54,3.45-4.22,7.02-10.02,10.71-17.4,3.69-7.38,7.69-16.68,12.01-27.9,.58,5.18,1.27,11.19,2.08,18.05,.81,6.85,1.68,14.24,2.59,22.15,.91,7.91,1.84,16.15,2.8,24.73,.96,8.58,1.92,17.13,2.88,25.67,.09-.1,.33-.24,.72-.43l28.33,28.33c1.73-1.15,3.98-2.61,6.76-4.39,2.78-1.77,5.85-3.74,9.2-5.9,3.35-2.16,6.85-4.41,10.5-6.76,3.64-2.35,7.19-4.63,10.64-6.83,3.45-2.21,6.66-4.27,9.63-6.18,2.97-1.92,5.46-3.55,7.48-4.89,13.32-6.33,25.28-12.68,35.88-19.05,10.59-6.38,20.06-12.97,28.4-19.77,0-6.14-.22-12.18-.65-18.12-.43-5.95-1.17-12.27-2.23-18.98Zm-97.78,32.21l-32.93,21.14c-5.56-50.62-8.72-77.8-9.49-81.53l-2.3-17.83c-9.59-2.88-26.46-7.48-50.62-13.81-10.45,30.39-19.27,49.75-26.46,58.1,0,.77-.34,1.15-1.01,1.15-7-17.35-28.18-49.85-63.56-97.5,4.98-8.92,12.03-25.5,21.14-49.75,7.67-14,18.6-41.51,32.79-82.54l32.93-87.86c29.91-7,67.3-18.26,112.16-33.79,3.07,17.54,5.56,35.52,7.48,53.92l6.18,55.94,2.59,19.56c.67,5.75,1.63,13.04,2.88,21.86,2.11,16.11,3.5,26.36,4.17,30.77,1.44,6.81,3.11,20.04,5.03,39.69l5.18,48.17,3.88,30.34c1.05,8.82,1.77,16.97,2.16,24.45,1.92,12.75,2.88,22,2.88,27.75-11.03,8.92-29.38,19.51-55.08,31.78Z"/></g><g><path class="cls-3" d="M1198.57,1517.52c17.45-12.27,52.39-47.55,104.83-105.84-1.73-47.55-1.06-97.26,2.01-149.12-.67,0-1.01-.72-1.01-2.16-101.14,25.98-213.97,51.53-338.5,76.65-.38,37.2-3.36,75.74-8.92,115.62,44.96-8.92,111.68-28.09,200.17-57.52-51.29,59.63-109.05,117.68-173.28,174.14,2.49,45.06,1.05,88.1-4.31,129.13,49.27-19.08,104.3-36.72,165.08-52.92,54.55-12.56,114.13-23.82,178.74-33.79,11.22-34.8,19.7-77.84,25.45-129.13-46.11,8.25-96.2,19.89-150.27,34.94Z"/><path class="cls-5" d="M1368.33,1462.08c.05-.14,.07-.31,.07-.5-6.62,1.15-13.14,2.33-19.56,3.52-6.42,1.2-12.9,2.47-19.41,3.81,2.68-3.07,5.66-6.45,8.92-10.14,3.26-3.69,6.9-7.74,10.93-12.15-.19-4.22-.34-8.79-.43-13.73-.1-4.94-.22-9.94-.36-15.03-.14-5.08-.24-10.11-.29-15.1-.05-4.98-.07-9.68-.07-14.09,0-7.86,.09-16.68,.29-26.46,.19-9.78,.48-19.77,.86-29.98,.38-10.21,.81-20.3,1.29-30.27,.48-9.97,.96-19.13,1.44-27.47l-34.51-34.8-17.26,4.03c-25.31,6.52-52.01,13.14-80.1,19.84-28.09,6.71-57.04,13.4-86.86,20.06-29.82,6.66-60.23,13.28-91.24,19.84-31.01,6.57-62.1,13.01-93.25,19.34-.29,22.72-1.44,46.69-3.45,71.9-2.01,25.21-4.99,51.77-8.92,79.67,.19,0,.36-.02,.5-.07,.14-.05,.31-.07,.5-.07l28.33,28.33c13.13-2.49,26.87-5.44,41.2-8.84,14.33-3.4,29.41-7.26,45.23-11.58-13.23,13.04-26.96,26.12-41.2,39.26-14.24,13.14-29.17,26.65-44.79,40.55,.19,3.55,.38,7.48,.58,11.79,.19,4.31,.36,8.68,.5,13.09,.14,4.41,.26,8.72,.36,12.94,.09,4.22,.14,8.05,.14,11.5,0,29.24-3.02,67.15-9.06,113.75l.86-.43,28.47,28.47c33.07-12.85,65.48-24.47,97.21-34.87,31.73-10.4,62.55-19.63,92.46-27.68,13.61-3.16,27.99-6.28,43.14-9.35,15.15-3.07,30.7-6.09,46.66-9.06,15.96-2.97,32.16-5.85,48.6-8.63,16.44-2.78,32.71-5.42,48.82-7.91,6.81-21.09,12.85-45.35,18.12-72.76,5.27-27.42,9.83-58.05,13.66-91.89l-28.47-28.33c0-.19,.02-.36,.07-.5Zm-44.94,149.62c-64.62,9.97-124.2,21.23-178.74,33.79-60.78,16.2-115.81,33.84-165.08,52.92,5.37-41.03,6.81-84.08,4.31-129.13,64.23-56.46,121.99-114.51,173.28-174.14-88.49,29.43-155.21,48.6-200.17,57.52,5.56-39.88,8.53-78.42,8.92-115.62,124.53-25.12,237.36-50.67,338.5-76.65,0,1.44,.33,2.16,1.01,2.16-3.07,51.86-3.74,101.57-2.01,149.12-52.44,58.29-87.38,93.57-104.83,105.84,54.07-15.05,104.16-26.7,150.27-34.94-5.75,51.29-14.24,94.33-25.45,129.13Z"/></g><g><path class="cls-3" d="M1782.54,1385.72c-17.64-11.12-39.98-32.55-67.01-64.28-10.55-13.61-19.61-22.86-27.18-27.75-26.37,36.62-52.73,66.87-79.09,90.74-24.73-33.55-50.19-73.67-76.36-120.36l-69.89,76.21,10.64,11.65c33.94,42.76,57.57,76.6,70.89,101.52-3.07,5.56-18.6,22.48-46.59,50.76-27.61,28.28-53.35,56.85-77.22,85.7,25.5,42.08,43.14,77.03,52.92,104.83,39.3-43.91,73.48-82.35,102.53-115.33,10.64-11.5,22.29-23.49,34.94-35.95l114.32-106.99,21.14-18.98c6.13-4.22,18.12-14.81,35.95-31.78Z"/><path class="cls-5" d="M1810.15,1382.78l.43-.43c-16.39-10.16-32.35-22.43-47.88-36.81-.86-1.05-1.75-2.11-2.66-3.16-.91-1.05-1.8-2.16-2.66-3.31-1.92-2.49-3.93-4.96-6.04-7.41-2.11-2.44-4.36-4.86-6.76-7.26l-22-22c-5.37-5.94-11.29-11.67-17.76-17.18-6.47-5.51-13.45-10.62-20.92-15.31-12.18,16.97-23.78,32.24-34.8,45.8-11.03,13.57-21.71,25.72-32.07,36.45-7.76-12.27-15.99-25.74-24.66-40.41-8.68-14.67-17.81-30.63-27.39-47.89l-27.61-27.47c-.19-.29-.36-.6-.5-.93-.14-.33-.31-.69-.5-1.08l-96.49,105.26c.86,1.06,2.3,2.69,4.31,4.89,2.01,2.21,4.12,4.51,6.33,6.9,1.92,2.21,3.74,4.29,5.46,6.26,1.73,1.97,3.11,3.48,4.17,4.53,29.43,36.72,50.76,66.53,63.99,89.44-1.06,1.63-2.95,3.95-5.68,6.97-2.73,3.02-6.35,6.74-10.86,11.14-2.78,2.69-5.95,5.8-9.49,9.35-3.55,3.55-7.72,7.72-12.51,12.51-14.09,14.38-28.26,29.53-42.49,45.44-14.24,15.91-28.74,32.84-43.5,50.76,14.76,24.35,27.73,48.08,38.9,71.18,11.17,23.1,20.73,45.92,28.69,68.45,.09-.1,.17-.19,.21-.29,.05-.1,.12-.19,.22-.29l28.47,28.47c6.52-7.29,13.37-14.96,20.56-23.01,7.19-8.05,14.45-16.2,21.79-24.45,7.33-8.25,14.67-16.49,22-24.73,7.33-8.25,14.4-16.2,21.21-23.87,6.81-7.67,13.23-14.93,19.27-21.79,6.04-6.85,11.5-13.01,16.39-18.48,5.27-5.75,10.69-11.48,16.25-17.18,5.56-5.7,11.5-11.67,17.83-17.9l.29-.29,113.75-106.41c3.35-3.07,6.76-6.13,10.21-9.2,3.45-3.07,6.85-6.13,10.21-9.2,3.64-2.59,9.8-7.81,18.48-15.67,8.67-7.86,20.11-18.5,34.3-31.92l-28.47-28.47Zm-63.56,34.22l-21.14,18.98-114.32,106.99c-12.65,12.46-24.3,24.45-34.94,35.95-29.05,32.98-63.22,71.42-102.53,115.33-9.78-27.8-27.42-62.75-52.92-104.83,23.87-28.85,49.61-57.42,77.22-85.7,27.99-28.28,43.52-45.2,46.59-50.76-13.33-24.92-36.96-58.77-70.89-101.52l-10.64-11.65,69.89-76.21c26.17,46.69,51.62,86.81,76.36,120.36,26.36-23.87,52.72-54.12,79.09-90.74,7.57,4.89,16.63,14.14,27.18,27.75,27.03,31.73,49.37,53.16,67.01,64.28-17.83,16.97-29.82,27.56-35.95,31.78Z"/></g></g><text class="cls-2" transform="translate(382.07 2054.53)"><tspan x="0" y="0">FRIES</tspan></text></g></g></g></svg>