<?xml version="1.0" encoding="UTF-8"?><svg id="Calque_2" xmlns="http://www.w3.org/2000/svg" viewBox="0 0 4741.23 2925.33"><defs><style>.cls-1{fill:#5e5d72;}.cls-2,.cls-3,.cls-4,.cls-5,.cls-6{fill:#fff;}.cls-7{fill:#a6a6a6;}.cls-7,.cls-8,.cls-3,.cls-9,.cls-10,.cls-11,.cls-12,.cls-13,.cls-14,.cls-15,.cls-16,.cls-17,.cls-18,.cls-19,.cls-20,.cls-4,.cls-5,.cls-21,.cls-22,.cls-6,.cls-23,.cls-24,.cls-25{stroke:#000;}.cls-7,.cls-8,.cls-3,.cls-9,.cls-10,.cls-11,.cls-13,.cls-14,.cls-16,.cls-17,.cls-19,.cls-20,.cls-4,.cls-5,.cls-22,.cls-6,.cls-23,.cls-24,.cls-25{stroke-linecap:round;stroke-linejoin:round;}.cls-7,.cls-9,.cls-10,.cls-14,.cls-16,.cls-17,.cls-20,.cls-4,.cls-5,.cls-22,.cls-23,.cls-25{stroke-width:12.83px;}.cls-8,.cls-3,.cls-13{stroke-width:13.68px;}.cls-8,.cls-12,.cls-23{fill:#ebebeb;}.cls-9{opacity:.2;}.cls-9,.cls-14,.cls-16,.cls-5{isolation:isolate;}.cls-10,.cls-15{fill:#ffc727;}.cls-11{stroke-width:1.28px;}.cls-12,.cls-15,.cls-18{stroke-width:10px;}.cls-12,.cls-15,.cls-18,.cls-21{stroke-miterlimit:10;}.cls-13,.cls-25{fill:#263238;}.cls-26{fill:#f6afb3;}.cls-14,.cls-5,.cls-27{opacity:.4;}.cls-16{opacity:.1;}.cls-17,.cls-24{fill:#37474f;}.cls-18,.cls-22{fill:#c7c7c7;}.cls-19{fill:#455a64;}.cls-19,.cls-6,.cls-24{stroke-width:11.5px;}.cls-20{fill:#dbdbdb;}.cls-28{fill:none;}.cls-29{fill:#021168;}.cls-21{fill:#080b0c;stroke-width:8.11px;}.cls-30{opacity:.25;}.cls-31{fill:#5f5e73;}</style></defs><g id="Layer_5"><g id="camion"><g><g><g><polygon class="cls-10" points="4677.99 1633.36 4677.99 2502.57 63.23 2502.57 63.23 285.31 4015.81 285.31 4317.59 1456.29 4677.99 1633.36"/><g class="cls-27"><polygon class="cls-4" points="4677.99 1633.36 4677.99 2502.57 63.23 2502.57 63.23 285.31 4015.81 285.31 4317.59 1456.29 4677.99 1633.36"/></g><polygon class="cls-10" points="4267.06 1260.25 63.23 1260.25 63.23 952.85 4187.84 952.85 4267.06 1260.25"/><rect class="cls-22" x="6.42" y="2400.55" width="4728.39" height="186.13"/><polygon class="cls-10" points="63.23 2164.56 6.42 2146.41 6.42 1991.57 63.23 1973.42 63.23 2164.56"/><polygon class="cls-10" points="4677.99 1753.1 4734.81 1771.25 4734.81 2016.85 4677.99 2035 4677.99 1753.1"/></g><g><polygon class="cls-10" points="3413.02 6.42 341.7 6.42 198.67 285.28 3556.04 285.28 3413.02 6.42"/><polygon class="cls-5" points="3413.02 6.42 341.7 6.42 198.67 285.28 3556.04 285.28 3413.02 6.42"/><g><rect x="661.14" y="178.88" width="82.25" height="33.59"/><rect x="1444.53" y="178.88" width="82.25" height="33.59"/><rect x="2227.93" y="178.88" width="82.25" height="33.59"/><rect x="3011.31" y="178.88" width="82.25" height="33.59"/></g><g><rect class="cls-11" x="466.81" y="6.42" width="16.78" height="278.86"/><rect class="cls-11" x="3271.11" y="6.42" width="16.78" height="278.86"/></g></g><g><g><rect class="cls-17" x="2883.76" y="561.64" width="261.32" height="1940.96"/><rect class="cls-25" x="2883.76" y="561.64" width="261.32" height="52.12"/></g><g><rect class="cls-17" x="3244.41" y="561.64" width="261.32" height="1940.96"/><rect class="cls-17" x="3244.42" y="561.69" width="261.31" height="1940.92"/><rect class="cls-25" x="3244.41" y="561.64" width="261.32" height="52.12"/></g><rect class="cls-25" x="2815.89" y="2502.61" width="754.79" height="56.05"/><rect class="cls-25" x="2782.09" y="2558.65" width="822.39" height="56.05"/></g><g><path class="cls-10" d="M1596.52,2530.43h.09v56.27H679.31v-56.27h.18c-.18-3.45-.18-6.89-.18-10.35,0-41.39,5.45-81.41,15.79-119.53,52.55-195.32,230.89-339.17,442.9-339.17s390.26,143.85,442.81,339.17c10.35,38.12,15.79,78.15,15.79,119.53,0,3.46,0,6.9-.08,10.35Z"/><path class="cls-9" d="M1596.52,2530.43h.09v56.27H679.31v-56.27h.18c-.18-3.45-.18-6.89-.18-10.35,0-41.39,5.45-81.41,15.79-119.53,52.55-195.32,230.89-339.17,442.9-339.17s390.26,143.85,442.81,339.17c10.35,38.12,15.79,78.15,15.79,119.53,0,3.46,0,6.9-.08,10.35Z"/><path class="cls-22" d="M1619.67,2520.08v66.62h-46.11v-33.22h-.72l.63-23.78c.09-3.27,.09-6.44,.09-9.62,0-41.48-5.81-81.5-16.61-119.53-52.1-182.24-220.18-316.12-418.95-316.12s-366.85,133.87-418.95,316.12c-10.8,38.03-16.61,78.06-16.61,119.53,0,3.18,0,6.35,.09,9.62l.72,23.78h-.81v33.22h-46.11l.09-79.32c.91-36.75,6.08-72.52,14.88-106.82,53.27-208.02,242.33-362.31,466.68-362.31s413.41,154.29,466.68,362.31c8.8,34.31,13.98,70.07,14.88,106.82v2.81c.11,3.27,.11,6.62,.11,9.89Z"/></g><g><path class="cls-10" d="M4557.74,2530.43h.09v56.27h-917.3v-56.27h.18c-.18-3.45-.18-6.89-.18-10.35,0-41.39,5.45-81.41,15.79-119.53,52.55-195.32,230.89-339.17,442.9-339.17s390.26,143.85,442.81,339.17c10.35,38.12,15.79,78.15,15.79,119.53,0,3.46,0,6.9-.08,10.35Z"/><path class="cls-9" d="M4557.74,2530.43h.09v56.27h-917.3v-56.27h.18c-.18-3.45-.18-6.89-.18-10.35,0-41.39,5.45-81.41,15.79-119.53,52.55-195.32,230.89-339.17,442.9-339.17s390.26,143.85,442.81,339.17c10.35,38.12,15.79,78.15,15.79,119.53,0,3.46,0,6.9-.08,10.35Z"/><path class="cls-22" d="M4580.88,2520.08v66.62h-46.11v-33.22h-.72l.63-23.78c.09-3.27,.09-6.44,.09-9.62,0-41.48-5.81-81.5-16.61-119.53-52.1-182.24-220.18-316.12-418.95-316.12s-366.85,133.87-418.95,316.12c-10.8,38.03-16.61,78.06-16.61,119.53,0,3.18,0,6.35,.09,9.62l.72,23.78h-.81v33.22h-46.11l.09-79.32c.9-36.75,6.08-72.52,14.88-106.82,53.27-208.02,242.33-362.31,466.68-362.31s413.41,154.29,466.68,362.31c8.8,34.31,13.98,70.07,14.88,106.82v2.81c.11,3.27,.11,6.62,.11,9.89Z"/></g><g><polygon class="cls-17" points="3942.48 561.67 4165.38 1456.29 3637.62 1456.29 3637.62 561.67 3942.48 561.67"/><polygon class="cls-17" points="4317.59 1456.29 4227.1 1456.29 4004.19 561.67 4087.05 561.67 4317.59 1456.29"/><polygon class="cls-25" points="3637.62 613.32 3637.62 561.67 3942.48 561.67 3955.35 613.32 3637.62 613.32"/><polygon class="cls-25" points="4017.04 613.32 4004.19 561.67 4087.05 561.67 4100.47 613.32 4017.04 613.32"/></g><g><polygon class="cls-25" points="4167.19 1397.55 4053.46 1397.55 4053.46 1242.88 4071.62 1242.88 4071.62 1379.39 4167.19 1379.39 4167.19 1397.55"/><path class="cls-25" d="M4196.03,1441.22h-41.22v-105.51h41.22v105.51Zm-23.07-18.15h4.92v-69.21h-4.92v69.21Z"/><g><path class="cls-10" d="M3973.55,672.51h85.62c28.26,0,51.17,22.91,51.17,51.17v588.31c0,28.26-22.91,51.17-51.17,51.17h-85.62V672.51Z"/><path class="cls-16" d="M3973.55,672.51h85.62c28.26,0,51.17,22.91,51.17,51.17v588.31c0,28.26-22.91,51.17-51.17,51.17h-85.62V672.51Z"/><rect class="cls-14" x="3973.55" y="672.51" width="47.02" height="690.65"/></g></g></g><g><path class="cls-25" d="M755.27,2587.83c30.78,211.38,227.08,357.78,438.46,327,211.38-30.78,357.78-227.09,326.99-438.47-30.78-211.38-227.08-357.78-438.47-327-211.37,30.8-357.77,227.1-326.98,438.47Z"/><g><path class="cls-20" d="M886.05,2568.78c20.26,139.15,149.49,235.53,288.64,215.26,139.15-20.26,235.52-149.49,215.25-288.64-20.26-139.15-149.49-235.52-288.64-215.26-139.14,20.26-235.52,149.5-215.25,288.64Z"/><path class="cls-7" d="M905.7,2565.93c18.69,128.3,137.84,217.16,266.12,198.48,128.3-18.69,217.16-137.84,198.48-266.14-18.69-128.29-137.84-217.16-266.12-198.47-128.3,18.68-217.16,137.83-198.48,266.13Z"/><g><g><path class="cls-20" d="M1093.04,2479.16l72.96-10.63c-29.81-31.99,37.94-168.59,37.94-168.59l-40.26-7.26c-19.15,47.52-30.04,62.23-51.04,65.29-21,3.06-35.63-7.93-67.62-48.01l-36.42,18.42s103.89,111.6,84.45,150.77Z"/><path class="cls-20" d="M1172.76,2472.07l32.66,66.11c21.22-38.23,172.07-16.01,172.07-16.01l-5.55-40.52c-51.12-3.52-68.47-9.35-77.87-28.37-9.4-19.02-3.47-36.34,24.76-79.15l-28.78-28.95s-74.03,133.29-117.29,126.9Z"/><path class="cls-20" d="M1204.12,2545.7l-52.79,51.49c42.92,8.36,68.4,158.69,68.4,158.69l36.83-17.78c-12.45-49.7-12.28-68.01,2.91-82.83,15.19-14.82,33.49-14.52,82.94-.9l18.63-36.31s-149.65-29.25-156.93-72.36Z"/><path class="cls-20" d="M1143.79,2598.28l-65.28-34.29c5.32,43.41-129.78,114.1-129.78,114.1l28.29,29.52c43.43-27.19,60.89-32.69,79.68-22.82,18.78,9.87,24.16,27.37,26.49,78.59l40.29,6.5s-18.43-151.36,20.31-171.61Z"/><path class="cls-20" d="M1075.14,2557.15l12.44-72.68c-39.63,18.46-148.61-88.17-148.61-88.17l-19.34,36.03c39.28,32.91,49.9,47.8,46.32,68.73-3.58,20.91-18.55,31.44-66.56,49.48l6.27,40.33s138.25-64.3,169.48-33.72Z"/></g><path class="cls-20" d="M1070.31,2540.29c5.43,37.25,40.01,63.05,77.26,57.62,37.25-5.42,63.03-40.01,57.62-77.26-5.42-37.25-40.01-63.04-77.26-57.61-37.24,5.41-63.03,40-57.62,77.25Z"/></g></g></g><g><path class="cls-25" d="M3716.48,2587.83c30.78,211.38,227.08,357.78,438.47,327,211.37-30.78,357.78-227.09,326.99-438.47-30.78-211.38-227.08-357.78-438.47-327-211.38,30.8-357.78,227.1-326.99,438.47Z"/><g><path class="cls-20" d="M3847.26,2568.78c20.26,139.15,149.49,235.53,288.64,215.26,139.15-20.26,235.52-149.49,215.25-288.64-20.26-139.15-149.49-235.52-288.64-215.26-139.14,20.26-235.52,149.5-215.25,288.64Z"/><path class="cls-7" d="M3866.9,2565.93c18.69,128.3,137.84,217.16,266.12,198.48,128.3-18.69,217.16-137.84,198.48-266.14-18.69-128.29-137.84-217.16-266.12-198.47-128.29,18.68-217.15,137.83-198.48,266.13Z"/><g><g><path class="cls-20" d="M4054.25,2479.16l72.96-10.63c-29.81-31.99,37.94-168.59,37.94-168.59l-40.26-7.26c-19.15,47.52-30.04,62.23-51.04,65.29-21,3.06-35.63-7.93-67.62-48.01l-36.42,18.42s103.89,111.6,84.45,150.77Z"/><path class="cls-20" d="M4133.96,2472.07l32.66,66.11c21.22-38.23,172.07-16.01,172.07-16.01l-5.54-40.52c-51.12-3.52-68.47-9.35-77.87-28.37-9.4-19.02-3.47-36.34,24.76-79.15l-28.78-28.95s-74.03,133.29-117.29,126.9Z"/><path class="cls-20" d="M4165.33,2545.7l-52.79,51.49c42.92,8.36,68.41,158.69,68.41,158.69l36.83-17.78c-12.45-49.7-12.28-68.01,2.91-82.83,15.19-14.82,33.49-14.52,82.94-.9l18.63-36.31s-149.65-29.25-156.93-72.36Z"/><path class="cls-20" d="M4105,2598.28l-65.28-34.29c5.32,43.41-129.78,114.1-129.78,114.1l28.29,29.52c43.43-27.19,60.89-32.69,79.68-22.82,18.78,9.87,24.16,27.37,26.49,78.59l40.29,6.5s-18.44-151.36,20.31-171.61Z"/><path class="cls-20" d="M4036.35,2557.15l12.45-72.68c-39.63,18.46-148.61-88.17-148.61-88.17l-19.34,36.03c39.28,32.91,49.9,47.8,46.32,68.73-3.58,20.91-18.55,31.44-66.56,49.48l6.27,40.33s138.24-64.3,169.47-33.72Z"/></g><path class="cls-20" d="M4031.53,2540.29c5.42,37.25,40.01,63.05,77.26,57.62,37.25-5.42,63.03-40.01,57.62-77.26-5.42-37.25-40.01-63.04-77.26-57.61-37.24,5.41-63.03,40-57.62,77.25Z"/></g></g></g></g><rect class="cls-13" x="433.18" y="562.52" width="2100.62" height="1187.99"/><g><rect class="cls-4" x="424.87" y="412.87" width="2108.93" height="83.06"/><rect class="cls-23" x="424.87" y="461.24" width="2108.93" height="34.69"/></g><g><path class="cls-2" d="M1360.72,934.41c-2.47-.7-4.74-1.63-7.02-2.74-2.77-1.38-5.41-3.07-7.86-5.03-2.47-1.93-4.7-4.24-6.65-6.78-2.02-2.48-3.54-5.41-4.93-8.32,1.7,2.7,3.49,5.32,5.7,7.43,2.15,2.17,4.5,4.05,7.02,5.53,2.51,1.51,5.14,2.73,7.84,3.63,2.63,.87,5.46,1.52,8.01,1.74,1.44,.04,38.88,.66,50.46-23.21-1.5-1.7-2.93-3.42-4.31-5.22-1.77-2.32-3.45-4.72-5.02-7.21-3.1-4.99-5.8-10.42-7.15-16.29,2.05,5.59,5.29,10.37,8.85,14.7,1.79,2.16,3.69,4.2,5.65,6.15,1.82,1.79,3.73,3.54,5.63,5.1,3.61,.95,29.66,7.57,55.04,7.57h10.55c25.37,0,51.42-6.61,55.04-7.57,1.9-1.56,3.81-3.31,5.63-5.1,1.96-1.95,3.85-3.99,5.65-6.15,3.56-4.33,6.8-9.11,8.85-14.7-1.35,5.87-4.05,11.3-7.15,16.29-1.56,2.5-3.25,4.89-5.02,7.21-1.38,1.8-2.81,3.51-4.31,5.22,11.59,23.9,49.07,23.25,50.46,23.22,2.55-.22,5.38-.86,8.01-1.74,2.7-.9,5.33-2.12,7.84-3.63,2.52-1.48,4.88-3.36,7.02-5.53,2.22-2.11,4-4.73,5.7-7.43-1.39,2.91-2.9,5.84-4.93,8.32-1.95,2.54-4.18,4.85-6.65,6.78-2.45,1.96-5.09,3.65-7.86,5.03-2.28,1.11-4.55,2.03-7.02,2.74-1.32,12.74,2.55,30.46,3.9,36.11,10.25-.57,65.13-5.94,71.49-55.46,5.98-46.62-21.36-61.54-30.12-65.09-.12,3.63-.28,7.24-.53,10.85-.34,4.77-.78,9.54-1.55,14.22,.04-4.76-.25-9.49-.65-14.2-.41-4.7-.92-9.43-1.54-14.06v-.02s0-.03,0-.05c0,0,0,0,0,0-.05-1.35-1.62-33.26-35.88-44.7-29.74-9.93-39.84-.71-41.9,1.77,.42,3.59,.73,7.14,.9,10.72,.18,4.03,.22,8.1-.22,12.08-.29-3.99-1.06-7.86-1.95-11.69-.85-3.56-1.84-7.11-2.92-10.54-3.29-3.81-34.67-38.58-80.85-38.58s-68.53,35.48-70.24,38.37c-1.11,3.49-2.12,7.12-2.98,10.75-.89,3.83-1.66,7.7-1.95,11.69-.44-3.98-.4-8.05-.22-12.08,.18-3.58,.49-7.13,.9-10.72-1.34-1.61-6.23-6.27-18.18-6.27-5.99,0-13.75,1.18-23.72,4.5-32.39,10.81-35.58,40.61-35.85,44.31h0c0,.15,0,.29-.02,.43v.04c-.63,4.63-1.14,9.35-1.55,14.06-.39,4.71-.69,9.44-.65,14.2-.77-4.68-1.21-9.45-1.55-14.22-.24-3.61-.41-7.22-.53-10.85-8.77,3.55-36.11,18.47-30.13,65.09,6.36,49.57,61.25,54.9,71.49,55.46,1.35-5.64,5.22-23.37,3.9-36.11Z"/><path class="cls-2" d="M1471.99,941.99h10.55c48.61,0,96.11,20.23,110.22,26.79-1.67-7.56-4.39-22.17-3.44-33.89-9.28-.16-40.69-2.47-51.97-25.81-6.53,1.65-30.94,7.39-54.82,7.39h-10.55c-23.87,0-48.29-5.74-54.82-7.39-11.27,23.34-42.68,25.64-51.97,25.81,.96,11.72-1.76,26.33-3.44,33.89,14.11-6.56,61.6-26.79,110.22-26.79Z"/><path class="cls-2" d="M1360.66,1015.23c42.67-27.47,108.42-30.02,111.26-30.11h5.29s.03,0,.04,0c0,0,.03,0,.04,0h5.26c2.91,.1,68.66,2.65,111.33,30.11v-40.51c-8.57-4.17-59.33-27.73-111.33-27.73h-10.55c-52,0-102.76,23.56-111.33,27.73v40.51h0Z"/><path class="cls-28" d="M1392.3,956.64c21.43-7.28,50.35-14.65,79.69-14.65h10.55c26.23,0,52.13,5.89,72.64,12.35,4.41-8.44,7.09-19.23,8.12-23.94-10.17-3.57-20.45-9.94-25.94-21.32-6.53,1.65-30.94,7.39-54.82,7.39h-10.55c-23.87,0-48.29-5.74-54.82-7.39-7.79,16.12-25.18,22.21-38.26,24.48,2.94,.83,5.45,1.56,5.45,1.56,0,0,1.54,11.73,7.93,21.52Z"/><g class="cls-30"><path class="cls-29" d="M1350.3,929.74c2.06,1.35,3.4,1.93,3.4,1.93-1.16-.58-2.29-1.24-3.4-1.93Z"/></g><path d="M1596.06,1027.11c-1.19,0-2.37-.37-3.42-1.1-39.8-27.7-107.34-30.77-110.21-30.89h-10.33c-2.87,.12-70.41,3.19-110.21,30.89-2.03,1.41-4.57,1.47-6.65,.14-2.07-1.33-3.36-3.83-3.36-6.55v-39.32c-26.62-2.28-69.29-17.52-75.23-63.77-6.6-51.47,23.29-70.21,34.89-75.47,1.87-11.41,9.62-37.97,41.6-48.64,24.7-8.24,38.38-4.55,45.5-.05,9.1-12.15,32.49-36.6,73.35-36.6s72.09,25.99,83.04,37.17c6.85-4.74,20.63-9.11,46.36-.52,31.98,10.67,39.73,37.23,41.6,48.64,11.59,5.26,41.49,24,34.89,75.47-5.93,46.26-48.61,61.49-75.23,63.77v39.32c0,2.72-1.28,5.22-3.36,6.55-1,.64-2.11,.96-3.22,.96Zm-124.07-47h10.55c.07,0,.13,0,.2,0,2.75,.09,63.3,2.44,106.75,26.83v-33.86c0-4.13,2.92-7.48,6.54-7.51,.62,0,62.41-1.18,68.83-51.24,6.39-49.84-27.95-60.02-29.42-60.43-2.86-.8-4.9-3.66-5.01-7.01-.05-1.16-1.68-29.72-32.72-40.08-27.98-9.34-36.43-.85-37.45,.35-.96,2.11-2.6,3.25-4.68,3.61-2.14,.37-4.14-.84-5.62-2.65-.3-.36-31.36-37.36-77.95-37.36s-66.45,35.88-66.65,36.24c-1.28,2.3-3.33,4-5.76,3.83-2.32-.15-4.24-1.35-5.3-3.68-1.02-1.2-9.47-9.69-37.45-.35-31.04,10.36-32.67,38.92-32.73,40.13-.15,3.32-2.19,6.18-5.01,6.96-1.43,.42-35.76,10.97-29.42,60.43,6.42,50.06,68.21,51.24,68.84,51.24,3.61,.03,6.53,3.39,6.53,7.51v33.86c43.45-24.39,103.99-26.74,106.75-26.83,.07,0,.13,0,.2,0Z"/><path d="M1358.46,978.09c-1.05,0-2.08-.43-2.9-1.24-1.29-1.3-1.8-3.33-1.31-5.21,.06-.24,6.24-23.8,4.12-38.44-.21-1.48,.16-2.98,1.03-4.11,.86-1.13,2.14-1.73,3.43-1.71,.4,.01,39,1,49.2-23.32,.89-2.13,2.97-3.26,4.98-2.71,.28,.08,28.03,7.61,54.96,7.61h10.55c26.93,0,54.69-7.54,54.96-7.61,2.01-.56,4.09,.58,4.98,2.71,10.2,24.33,48.8,23.34,49.2,23.32,1.3-.05,2.57,.59,3.43,1.71,.86,1.13,1.24,2.63,1.03,4.11-2.13,14.67,4.05,38.2,4.12,38.43,.5,1.88,0,3.92-1.3,5.21-1.29,1.3-3.13,1.61-4.7,.8-.55-.28-55.46-28.15-111.72-28.15h-10.55c-56.33,0-111.18,27.87-111.72,28.15-.58,.3-1.19,.44-1.8,.44Zm113.52-38.6h10.55c45.74,0,89.4,17.2,107.11,25.14-1.45-7.47-3.01-17.98-2.66-27.31-11.4-.53-39.15-4.06-50.71-25.39-8.31,2.04-30.97,7.05-53.73,7.05h-10.55c-22.76,0-45.42-5-53.73-7.05-11.57,21.33-39.31,24.86-50.71,25.39,.35,9.33-1.21,19.84-2.66,27.31,17.71-7.94,61.37-25.14,107.11-25.14Z"/><path d="M1411.89,912.08c-7.06-10.05-13.4-21.3-15.07-34.13,5.47,10.14,14.36,17.03,23.28,22.4,3.38,1.82,4.82,6.41,3.23,10.27-2,5.15-8.51,5.93-11.44,1.47h0Z"/><path d="M1361.99,939.85c-12.19-4.26-23.38-14.46-27.72-28.3,7.16,9.46,18.41,14.27,29.17,13.37,3.71-1.33,7.66,1.02,8.83,5.25,1.76,5.79-3.28,11.82-8.39,10.22,0,0-1.88-.54-1.88-.54h0Z"/><path d="M1324.1,847.13c-2.68,9.11-5.14,18.38-6.56,27.91-2.98-9.42-4.92-19.26-6.59-29.13-.67-4.24,1.8-8.29,5.51-9.05,5.02-1.19,9.46,4.86,7.65,10.27h0Z"/><path d="M1406.15,804.88c-3.73,6.8-7.22,13.93-9.33,21.7-1.17-3.97-1.85-8.23-2.38-12.47-.53-4.51-.92-8.83-1.04-13.45-.1-4.39,2.93-8.04,6.78-8.16,5.52-.36,9.15,7.32,5.97,12.38h0Z"/><path d="M1534.42,900.35c8.93-5.37,17.81-12.26,23.28-22.4-1.7,12.95-8.11,24.3-15.27,34.4-7.66,8.87-17.54-5.9-8.02-12h0Z"/><path d="M1643.55,846.1c-1.67,9.81-3.6,19.59-6.56,28.94-1.05-7.23-2.77-14.16-4.62-21.12-.62-2.28-1.27-4.62-1.94-6.79-1.26-4.06,.61-8.51,4.16-9.95,4.85-2.13,10.13,3.2,8.97,8.92h0Z"/><path d="M1561.11,801.12c-.39,8.61-1.13,17.3-3.41,25.46-1.56-5.96-4.02-11.29-6.64-16.63-.87-1.72-1.78-3.53-2.69-5.07-2.14-3.65-1.29-8.59,1.9-11.04,4.72-3.77,11.41,.82,10.84,7.28h0Z"/><path class="cls-2" d="M1607.03,1526.91c-25.05,6.79-58.14,12.07-101.73,13.67-16.06,10.27-23.35,40.39-25.32,50.03,80.19-1.05,116.86-47.75,127.05-63.7Z"/><path class="cls-2" d="M1497.51,1540.82c-6.53,.17-13.26,.27-20.25,.27-8.42,0-16.5-.13-24.26-.37,16.48,10.62,22.75,27,25.09,38.68,3.2-11.75,9.25-28.47,19.42-38.57Z"/><path class="cls-2" d="M1441.51,1540.25c-52.23-2.5-88.71-10.41-114.07-19.66-.38,.15-.9,.35-1.57,.62,.57,.77,52,68.4,149.2,69.41-.22-8.71-3.25-38.27-33.57-50.37Z"/><path class="cls-2" d="M1416.42,1660.04c0-6.7,4.07-9.6,11.45-14.86,4.24-3.02,9.51-6.78,16.3-12.65,13.88-12,25.66-29.3,30.52-36.91-99.13-1.2-151.64-70.48-152.16-71.18-.34-.46-.48-1.02-.49-1.58-18.86,8.48-77.54,40.13-126.88,122.76-53.18,89.08-66.11,145.15-68.32,156.47,2.79,1.02,8.51,3.18,16.11,6.35,.1,.03,.19,.07,.28,.12,8.96,3.74,20.52,8.89,33.08,15.27,.22,.07,.42,.16,.6,.3,4.57,2.33,9.26,4.83,14.01,7.47,19.96,0,39.91,0,59.86,.02,3.82-56.17,13.09-150.34,34.48-212.88,.44-1.29,1.72-1.92,2.84-1.42,1.13,.5,1.69,1.96,1.25,3.24-21.16,61.86-30.36,155.17-34.17,211.06,54.04,.07,108.06,.23,162.07,.32-.16-55.72-.53-120.41-.71-151.51-.07-11.62-.11-19.06-.11-20.41Z"/><path class="cls-1" d="M1506.64,1680.96c-4.91,0-8.9,4.56-8.9,10.15s3.99,10.16,8.9,10.16,8.9-4.56,8.9-10.16-3.99-10.15-8.9-10.15Z"/><g><path class="cls-2" d="M1663.1,1664.9c10.33,47.43,18.63,116.71,23.97,166.19,1.51-.02,3.02-.03,4.54-.05-2.01-47.48-9.01-109.47-28.5-166.14Z"/><path class="cls-2" d="M1719.85,1608.57c-.83,.14-1.65-.26-2.13-1.04-.37-.6-37.25-59.84-104.67-81.79-6.06,10.79-42.84,68.68-132.97,69.88-2.98,4.93-16.39,26.31-33.26,40.9-6.94,6.01-12.54,10-16.62,12.91-7.29,5.2-9.39,6.86-9.39,10.62,0,1.34,.04,8.77,.11,20.37,.28,48.42,.58,104.67,.71,151.55,88.47,.14,176.92,.08,265.44-.87-5.34-49.48-13.64-118.76-23.97-166.19-4.83-14.03-10.41-27.73-16.88-40.81-.6-1.2-.22-2.73,.83-3.41,1.05-.68,2.39-.26,2.99,.95,4.63,9.35,9.01,24.62,13.07,43.27,19.5,56.67,26.49,118.66,28.5,166.14,27.6-.31,55.21-.7,82.83-1.2l41.05-24.73c-12.53-67.14-74.74-172.68-95.64-196.54Zm-265.74,184.28c-7.33,0-13.28-6.8-13.28-15.16s5.96-15.16,13.28-15.16,13.28,6.8,13.28,15.16c0,8.36-5.96,15.16-13.28,15.16Zm0-86.58c-7.33,0-13.28-6.8-13.28-15.16s5.96-15.16,13.28-15.16,13.28,6.8,13.28,15.16c0,8.36-5.96,15.16-13.28,15.16Zm52.53,86.58c-7.33,0-13.28-6.8-13.28-15.16s5.96-15.16,13.28-15.16,13.28,6.8,13.28,15.16c0,8.36-5.96,15.16-13.28,15.16Zm0-86.58c-7.33,0-13.28-6.8-13.28-15.16s5.96-15.16,13.28-15.16,13.28,6.8,13.28,15.16c0,8.36-5.96,15.16-13.28,15.16Zm133.21-.04c0,1.38-.98,2.5-2.19,2.5h-99.76c-1.21,0-2.19-1.12-2.19-2.5v-31.01c0-1.38,.98-2.5,2.19-2.5h99.76c1.21,0,2.19,1.12,2.19,2.5v31.01Z"/></g><rect class="cls-1" x="1540.09" y="1677.73" width="95.37" height="26.01"/><path class="cls-1" d="M1454.11,1767.54c-4.91,0-8.9,4.56-8.9,10.15s3.99,10.16,8.9,10.16,8.9-4.56,8.9-10.16-3.99-10.15-8.9-10.15Z"/><path class="cls-1" d="M1506.64,1767.54c-4.91,0-8.9,4.56-8.9,10.15s3.99,10.16,8.9,10.16,8.9-4.56,8.9-10.16-3.99-10.15-8.9-10.15Z"/><path class="cls-1" d="M1454.11,1680.96c-4.91,0-8.9,4.56-8.9,10.15s3.99,10.16,8.9,10.16,8.9-4.56,8.9-10.16-3.99-10.15-8.9-10.15Z"/><path class="cls-28" d="M1248.51,1873.27c0-.17,.01-.36,.02-.53-.1,.1-.19,.18-.29,.27,.09,.09,.18,.17,.27,.26Z"/><path class="cls-28" d="M1695.13,1756.72s0,0,0,0c0,0,0,0,0,0,0,0,0,0,0,0Z"/><path class="cls-28" d="M1454.11,1767.54c-4.91,0-8.9,4.56-8.9,10.15s3.99,10.16,8.9,10.16,8.9-4.56,8.9-10.16-3.99-10.15-8.9-10.15Z"/><path class="cls-28" d="M1454.11,1680.96c-4.91,0-8.9,4.56-8.9,10.15s3.99,10.16,8.9,10.16,8.9-4.56,8.9-10.16-3.99-10.15-8.9-10.15Z"/><path class="cls-28" d="M1475.08,1590.62c-.22-8.71-3.25-38.27-33.57-50.37-52.23-2.5-88.71-10.41-114.07-19.66-.38,.15-.9,.35-1.57,.62,.57,.77,52,68.4,149.2,69.41Z"/><path class="cls-28" d="M1607.03,1526.91c-25.05,6.79-58.14,12.07-101.73,13.67-16.06,10.27-23.35,40.39-25.32,50.03,80.19-1.05,116.86-47.75,127.05-63.7Z"/><path class="cls-28" d="M1497.51,1540.82c-6.53,.17-13.26,.27-20.25,.27-8.42,0-16.5-.13-24.26-.37,16.48,10.62,22.75,27,25.09,38.68,3.2-11.75,9.25-28.47,19.42-38.57Z"/><path class="cls-28" d="M1506.64,1680.96c-4.91,0-8.9,4.56-8.9,10.15s3.99,10.16,8.9,10.16,8.9-4.56,8.9-10.16-3.99-10.15-8.9-10.15Z"/><polygon class="cls-28" points="1540.09 1703.73 1547.13 1703.73 1547.13 1693.64 1627.35 1694.25 1627.79 1703.73 1635.46 1703.73 1635.46 1677.73 1540.09 1677.73 1540.09 1703.73"/><path class="cls-28" d="M1506.64,1767.54c-4.91,0-8.9,4.56-8.9,10.15s3.99,10.16,8.9,10.16,8.9-4.56,8.9-10.16-3.99-10.15-8.9-10.15Z"/><g><path d="M1132.07,1798.75c4.01-17.44,19.01-70.41,66.72-150.31,58.38-97.78,129.97-123.1,130.69-123.34,3.48-1.18,5.46-5.35,4.44-9.33-1.03-3.98-4.69-6.25-8.18-5.07-3.1,1.05-76.65,26.81-137.83,129.28-60.68,101.64-69.75,160.14-70.1,162.58-.54,3.72,1.42,7.32,4.58,8.42,.42,.14,21.61,7.6,47.73,20.64,10.27-.01,20.54-.02,30.81-.02-28.68-16.93-56.9-28.33-68.86-32.85Z"/><path d="M1289.69,1612.66c-3.4-1.51-7.2,.4-8.52,4.27-21.92,64.08-31.15,158.49-34.88,214.7,4.43,0,8.85,.01,13.28,.02,3.8-55.64,12.94-148.1,33.86-209.25,1.32-3.87-.35-8.22-3.74-9.73Z"/></g><path d="M1614.95,1531.6c-10.26,16.96-49.01,69.08-137.69,69.08-102.83,0-155.88-70.03-158.09-73.02-2.35-3.17-2-7.91,.78-10.58,2.77-2.68,6.92-2.28,9.27,.88h0c.5,.68,51.58,67.7,148.04,67.7s127.71-63.76,129.03-66.48m187.84,84.72h0s0,0,0,0Z"/><path d="M1477.27,1600.68c-.26,0-.52-.02-.79-.05-3.45-.47-5.98-3.92-5.78-7.88,.06-1.4,1.11-35.29-30.88-47.88-3.44-1.35-5.26-5.63-4.08-9.55,1.18-3.92,4.92-6.01,8.36-4.65,18.2,7.16,28.62,20.52,34.19,33.78,4.74-12.44,12.06-25.87,22.89-32.71,3.18-2.01,7.18-.69,8.94,2.94,1.76,3.63,.61,8.2-2.57,10.21-14.42,9.11-22.08,38.93-23.81,49.65-.58,3.6-3.33,6.15-6.47,6.15Z"/><path d="M1424.09,1660.04c0-1.57,1.17-2.68,7.84-7.43,4.14-2.95,9.81-6.99,16.87-13.1,19.19-16.6,34.02-41.8,34.64-42.86,1.68-2.88,1-6.76-1.52-8.68-2.52-1.92-5.92-1.14-7.6,1.73-.14,.24-14.45,24.54-32.14,39.83-6.67,5.77-11.88,9.48-16.06,12.46-7.55,5.38-13,9.27-13,18.05,0,1.34,.04,8.81,.11,20.45,.36,61.98,.6,112.51,.71,151.46,3.66,0,7.31,.01,10.97,.02-.13-46.92-.43-103.15-.71-151.56-.07-11.59-.11-19.02-.11-20.36Z"/><path d="M1454.11,1794.11c-7.93,0-14.38-7.36-14.38-16.42s6.45-16.42,14.38-16.42,14.38,7.36,14.38,16.42-6.45,16.42-14.38,16.42Zm0-25.32c-4.3,0-7.8,3.99-7.8,8.9s3.5,8.9,7.8,8.9,7.8-3.99,7.8-8.9-3.5-8.9-7.8-8.9Z"/><path d="M1506.64,1794.11c-7.93,0-14.38-7.36-14.38-16.42s6.45-16.42,14.38-16.42,14.38,7.36,14.38,16.42-6.45,16.42-14.38,16.42Zm0-25.32c-4.3,0-7.8,3.99-7.8,8.9s3.5,8.9,7.8,8.9,7.8-3.99,7.8-8.9-3.5-8.9-7.8-8.9Z"/><path d="M1454.11,1707.53c-7.93,0-14.38-7.36-14.38-16.42s6.45-16.42,14.38-16.42,14.38,7.36,14.38,16.42-6.45,16.42-14.38,16.42Zm0-25.32c-4.3,0-7.8,3.99-7.8,8.9s3.5,8.9,7.8,8.9,7.8-3.99,7.8-8.9-3.5-8.9-7.8-8.9Z"/><path d="M1506.64,1707.53c-7.93,0-14.38-7.36-14.38-16.42s6.45-16.42,14.38-16.42,14.38,7.36,14.38,16.42-6.45,16.42-14.38,16.42Zm0-25.32c-4.3,0-7.8,3.99-7.8,8.9s3.5,8.9,7.8,8.9,7.8-3.99,7.8-8.9-3.5-8.9-7.8-8.9Z"/><path d="M1637.65,1709.99h-99.76c-1.82,0-3.29-1.68-3.29-3.76v-31.01c0-2.07,1.47-3.76,3.29-3.76h99.76c1.82,0,3.29,1.68,3.29,3.76v31.01c0,2.07-1.47,3.76-3.29,3.76Zm-96.47-7.51h93.18v-23.5h-93.18v23.5Z"/><path d="M1173.97,1818.94c-3.51,1.09-5.57,5.22-4.62,9.22,.28,1.17,.54,2.32,.78,3.46,4.5,0,9-.01,13.51-.01-.47-2.42-.99-4.89-1.59-7.4-.96-4-4.58-6.36-8.08-5.27Z"/><path class="cls-2" d="M1679.03,1479.33c.08-.19,.2-.39,.32-.55,64.09-83.05,37.3-240.81-9.14-360.76-48.4-125-191.53-127.87-192.97-127.89-1.4,.01-144.56,2.95-192.94,127.89-46.44,119.95-73.23,277.71-9.14,360.76,.13,.17,.24,.36,.33,.57,.24,.55,26.83,56.73,201.76,56.73s201.52-56.18,201.77-56.75Zm-138.1-160.66c6.67,0,12.1,7.06,12.1,15.75s-5.43,15.75-12.1,15.75-12.1-7.06-12.1-15.75,5.43-15.75,12.1-15.75Zm-127.35,0c6.67,0,12.1,7.06,12.1,15.75s-5.43,15.75-12.1,15.75-12.1-7.06-12.1-15.75,5.43-15.75,12.1-15.75Zm-12.09,66.06c-.12-1.38,.77-2.6,1.98-2.73,1.17-.14,2.27,.87,2.39,2.25,.15,1.6,4.33,39.09,70.28,39.09s72.47-38.85,72.53-39.24c.2-1.36,1.33-2.29,2.51-2.07,1.19,.22,2.01,1.49,1.82,2.85-.24,1.78-6.76,43.47-76.86,43.47-70.22,0-74.5-41.84-74.64-43.62Z"/><path class="cls-31" d="M1398.66,1293.3s52.21-22.2,46.69-122.51c-5.52-100.31-69.54-137.2-92.92-139.35,0,0-54.6,21.71-82.93,114.21-28.33,92.5-32.78,160.5-36.5,204.51,0,21.72,9.87,67.71,17.51,81.79l148.15-138.65Z"/><path class="cls-31" d="M1555.45,1293.3s-52.21-22.2-46.69-122.51c5.52-100.31,69.54-137.2,92.92-139.35,0,0,54.6,21.71,82.93,114.21,28.33,92.5,32.78,160.5,36.5,204.51,0,21.72-9.87,67.71-17.51,81.79l-148.15-138.65Z"/><path class="cls-26" d="M1244.68,1428.34s65.76-147.55,235.3-147.55,226.02,145.04,226.02,145.04c0,0-8.6,78.89-98.97,97.03-90.37,18.14-232.31,20.2-285.93-7.48-53.62-27.68-61.03-49-76.43-87.04Z"/><path class="cls-2" d="M1657.13,1081.89c7.69-2.13,46.86-11.69,91.55,.37,47.95,12.94,56.92,29.5,56.57,32.9-.12,1.17-1.06,2.24-2.08,2.38-.16,.03-.51,.12-1.04,.25-9.57,2.33-26.81,5.54-49.13,5.54-22.84,0-51-3.38-81.7-14.49,1.01,2.34,1.99,4.71,2.94,7.14,2.49,6.44,4.93,13,7.3,19.64,1.88,1.58,17.75,13.55,69.29,16.19,55.38,2.85,91.98-19.93,100.29-37,.84-1.71,.64-4.1-.58-7.08-8.23-20.08-60.53-58.59-115.92-70.65-53.89-11.73-94.39,5.26-105.22,10.57,9.99,9.74,19.43,21.06,27.75,34.24Z"/><path class="cls-26" d="M1799.87,1113.22c-3.61-5.04-17.02-16.58-52.21-26.08-41.25-11.13-77.58-3.47-87.84-.83,3.05,5.13,5.92,10.53,8.61,16.21,60.17,23.03,111.03,15.47,131.44,10.7Z"/><path class="cls-26" d="M1154.65,1113.22c20.42,4.78,71.27,12.33,131.44-10.7,2.68-5.68,5.56-11.08,8.61-16.21-10.27-2.64-46.65-10.29-87.84,.83-35.19,9.5-48.6,21.04-52.21,26.08Z"/><path d="M1413.59,1345.15c4.25,0,7.71-4.82,7.71-10.74s-3.46-10.74-7.71-10.74-7.71,4.82-7.71,10.74,3.46,10.74,7.71,10.74Z"/><path d="M1540.94,1345.15c4.25,0,7.71-4.82,7.71-10.74s-3.46-10.74-7.71-10.74-7.71,4.82-7.71,10.74c0,5.92,3.46,10.74,7.71,10.74Z"/><path class="cls-2" d="M1280.29,1115.99c.94-2.43,1.93-4.8,2.93-7.14-30.69,11.11-58.85,14.49-81.7,14.49s-39.57-3.21-49.13-5.54c-.49-.12-.82-.2-1-.24-1.11-.1-1.99-1.08-2.12-2.39-.35-3.41,8.63-19.96,56.57-32.9,44.68-12.06,83.85-2.5,91.55-.37,8.33-13.18,17.77-24.5,27.75-34.24-10.83-5.31-51.33-22.31-105.22-10.57-55.39,12.06-107.69,50.58-115.92,70.65-1.22,2.98-1.42,5.36-.58,7.08,8.31,17.06,44.88,39.84,100.29,37,51.45-2.63,67.36-14.57,69.29-16.19,2.37-6.64,4.8-13.19,7.3-19.63Z"/><path class="cls-28" d="M1540.94,1345.15c4.25,0,7.71-4.82,7.71-10.74s-3.46-10.74-7.71-10.74-7.71,4.82-7.71,10.74c0,5.92,3.46,10.74,7.71,10.74Z"/><path class="cls-28" d="M1664.55,1094.79c1.33,2.52,2.63,5.09,3.88,7.74,44.06,16.86,83.12,17.32,108.89,14.48-4.7-4.14-20.74-17.03-42.9-21.69-23.63-4.96-61.81-1.38-69.87-.53Z"/><path class="cls-28" d="M1413.59,1345.15c4.25,0,7.71-4.82,7.71-10.74s-3.46-10.74-7.71-10.74-7.71,4.82-7.71,10.74,3.46,10.74,7.71,10.74Z"/><path class="cls-28" d="M1220.58,1095.32c-22.25,4.67-38.33,17.66-42.96,21.74,25.78,2.78,64.64,2.24,108.46-14.53,.98-2.43,2.28-5.04,3.84-7.79-9.11-.93-46.2-4.27-69.34,.59Z"/><path class="cls-28" d="M1360.66,1014.43v.8c.26-.17,.53-.32,.8-.49-.47-.18-.8-.31-.8-.31Z"/><path class="cls-28" d="M1593.87,1015.23v-1l-.71,.57c.23,.15,.48,.29,.71,.44Z"/><g class="cls-27"><path class="cls-2" d="M1286.09,1102.52c1.26-2.66,2.57-5.25,3.91-7.79-.02,0-.05,0-.07,0-1.56,2.75-2.86,5.36-3.84,7.79Z"/></g><g class="cls-30"><path class="cls-29" d="M1290,1094.74c.26-.49,.52-.97,.79-1.46-.29,.48-.58,.97-.85,1.45,.02,0,.05,0,.07,0Z"/></g><g class="cls-27"><path class="cls-2" d="M1290,1094.74c.26-.49,.52-.97,.79-1.46-.29,.48-.58,.97-.85,1.45,.02,0,.05,0,.07,0Z"/></g><path d="M1477.26,1546.09c-169.93,0-204.59-52.63-209.13-61.28-66.25-86.74-39.28-248.33,8.15-370.84,21.02-54.29,62.51-94.66,119.97-116.74,43.05-16.55,79.42-17.1,80.95-17.11,1.64,.01,38.02,.56,81.07,17.11,57.47,22.09,98.95,62.46,119.97,116.74,47.43,122.51,74.4,284.1,8.15,370.84-4.54,8.65-39.2,61.28-209.13,61.28Zm-.06-550.96c-.23,0-35.99,.59-77.11,16.47-54.45,21.03-92.05,57.52-111.77,108.44-45.89,118.53-72.58,274.15-9.86,355.43,.39,.51,.73,1.08,.99,1.7,.19,.4,27.19,53.9,197.81,53.9s197.59-53.36,197.81-53.9c.26-.62,.59-1.19,.99-1.7,62.72-81.28,36.03-236.89-9.86-355.43h0c-19.71-50.93-57.32-87.41-111.77-108.44-41.11-15.88-76.87-16.46-77.23-16.47Z"/><path d="M1759.96,1162.06c-3.13,0-6.31-.08-9.54-.25-57.54-2.94-73.29-17.24-74.9-18.86-2.72-2.75-2.98-7.49-.58-10.6,2.41-3.11,6.56-3.4,9.29-.66h0s14.28,12.42,66.78,15.11c52.9,2.7,88.72-18.94,96.26-34.43,.38-2.61-6.41-15.8-32.02-33.86-24.46-17.26-54.16-30.57-81.47-36.52-61.31-13.35-104.87,11.36-105.31,11.61-3.24,1.88-7.2,.41-8.85-3.28-1.65-3.69-.38-8.2,2.85-10.1,1.92-1.12,47.79-27.36,113.77-13,56.25,12.25,111.89,51.05,122.22,76.25,3.09,7.54,1.87,12.97,.31,16.19-10.34,21.24-47.95,42.38-98.81,42.38Z"/><path d="M1753,1125.84c-24.27,0-54.47-3.76-87.34-16.45-2.3-.89-3.53-3.73-2.75-6.35,.77-2.62,3.27-4.02,5.56-3.14,56.22,21.71,104.3,16.44,126.81,11.78-5.42-5.17-18.44-14.1-48.12-22.11-47.89-12.93-89.23-.18-89.65-.05-2.33,.74-4.75-.82-5.4-3.48-.65-2.66,.72-5.42,3.05-6.16,1.77-.56,43.83-13.59,94.02-.05,43.88,11.84,59.01,28.14,58.25,35.63-.25,2.43-1.92,4.31-3.98,4.58-.18,.04-.47,.11-.86,.21-9.65,2.35-27.06,5.59-49.59,5.59Z"/><path d="M1194.56,1162.06c-50.87,0-88.47-21.14-98.81-42.38-1.57-3.22-2.78-8.64,.31-16.19,10.33-25.2,65.97-64,122.22-76.25,65.99-14.37,111.85,11.87,113.77,13,3.23,1.89,4.51,6.42,2.85,10.11-1.66,3.69-5.61,5.15-8.85,3.26h0c-.43-.25-43.99-24.96-105.31-11.61-27.32,5.95-57.01,19.26-81.47,36.52-25.61,18.07-32.39,31.25-31.97,34.01,7.48,15.33,43.28,36.97,96.2,34.28,52.51-2.68,66.77-15.11,66.91-15.24,2.72-2.74,6.81-2.39,9.22,.72,2.4,3.11,2.08,7.92-.64,10.67-1.61,1.62-17.36,15.92-74.9,18.86-3.22,.16-6.41,.24-9.54,.24Z"/><path d="M1201.53,1125.84c-22.53,0-39.93-3.24-49.59-5.59-.39-.09-.68-.17-.86-.21-2.06-.27-3.73-2.15-3.98-4.58-.77-7.49,14.37-23.79,58.25-35.63,50.19-13.54,92.25-.51,94.02,.05,2.33,.74,3.7,3.5,3.05,6.16-.65,2.66-3.06,4.23-5.4,3.48-.41-.13-41.76-12.88-89.65,.05-29.68,8.01-42.69,16.94-48.12,22.11,22.51,4.66,70.59,9.93,126.81-11.78,2.28-.89,4.78,.52,5.56,3.14,.78,2.62-.46,5.46-2.75,6.35-32.86,12.69-63.07,16.45-87.34,16.45Z"/><path d="M1476.14,1433.34c-74.17,0-78.85-46.19-79.01-48.15-.34-4.13,2.31-7.79,5.93-8.18,3.58-.4,6.78,2.6,7.16,6.68,.18,1.63,4.71,34.64,65.92,34.64s67.98-33.67,68.21-35.1c.66-4.04,4.05-6.78,7.59-6.09,3.55,.69,5.96,4.45,5.4,8.51-.27,1.95-7.38,47.7-81.2,47.7Z"/><g><path d="M1540.93,1352.66c-7.88,0-14.29-8.19-14.29-18.25s6.41-18.25,14.29-18.25,14.29,8.19,14.29,18.25-6.41,18.25-14.29,18.25Zm0-26.49c-2.99,0-5.52,3.77-5.52,8.24s2.53,8.24,5.52,8.24,5.52-3.77,5.52-8.24-2.53-8.24-5.52-8.24Z"/><path d="M1413.59,1352.66c-7.88,0-14.29-8.19-14.29-18.25s6.41-18.25,14.29-18.25,14.29,8.19,14.29,18.25c0,10.06-6.41,18.25-14.29,18.25Zm0-26.49c-2.99,0-5.52,3.77-5.52,8.24s2.53,8.24,5.52,8.24,5.52-3.77,5.52-8.24c0-4.46-2.53-8.24-5.52-8.24Z"/></g><g><path d="M1583.94,1173.44c17.29-.59,31.79,22.17,32.38,50.83,.59,28.66-12.95,52.36-30.24,52.95-17.29,.59-31.79-22.17-32.38-50.83-.59-28.66,12.95-52.36,30.24-52.95Z"/><path class="cls-2" d="M1584.4,1185.46c5.31,3.06,7.05,12.94,3.9,22.07-3.15,9.13-10.01,14.06-15.32,11-5.31-3.06-7.05-12.94-3.9-22.07,3.15-9.13,10.01-14.06,15.32-11Z"/></g><g><path d="M1362.06,1173.44c-17.29-.59-31.79,22.17-32.38,50.83-.59,28.66,12.95,52.36,30.24,52.95,17.29,.59,31.79-22.17,32.38-50.83,.59-28.66-12.95-52.36-30.24-52.95Z"/><path class="cls-2" d="M1361.61,1185.46c-5.31,3.06-7.05,12.94-3.9,22.07,3.15,9.13,10.01,14.06,15.32,11,5.31-3.06,7.05-12.94,3.9-22.07-3.15-9.13-10.01-14.06-15.32-11Z"/></g><path d="M1591.9,939.85s-1.88,.54-1.88,.54c-5.12,1.61-10.15-4.43-8.39-10.22,1.17-4.23,5.12-6.58,8.83-5.25,10.75,.9,22.01-3.91,29.17-13.37-4.34,13.84-15.53,24.04-27.72,28.3h0Z"/><g><path d="M1658.61,1621.85c-1.32-3.86-5.13-5.77-8.52-4.27-3.38,1.51-5.06,5.86-3.74,9.73,20.25,59.22,29.47,147.79,33.48,203.85,4.43-.05,8.85-.09,13.28-.14-3.96-56.71-13.29-147.15-34.5-209.17Z"/><path d="M1821.97,1807.48c-.36-2.44-9.43-60.95-70.1-162.58-61.18-102.47-134.73-128.24-137.83-129.28-3.49-1.18-7.14,1.1-8.18,5.07-1.03,3.98,.96,8.15,4.44,9.33,.72,.25,72.31,25.57,130.69,123.34,47.71,79.9,62.71,132.87,66.72,150.31-10.42,3.94-33.18,13.1-57.83,26.58,11.39-.18,22.79-.39,34.19-.6,19.1-8.75,32.99-13.63,33.33-13.75,3.16-1.1,5.12-4.7,4.58-8.42Z"/></g></g><g><g><path class="cls-24" d="M378.38,758.62v75.31c0,25.76-21.3,36.61-47.54,36.61h-105.83c-26.3,0-47.61-10.85-47.61-36.61v-75.31h200.98Z"/><path class="cls-24" d="M579.3,758.62v75.31c0,25.76-21.3,36.61-47.54,36.61h-105.83c-26.24,0-47.54-10.85-47.54-36.61v-75.31h200.91Z"/><path class="cls-24" d="M780.21,758.62v75.31c0,25.76-21.3,36.61-47.54,36.61h-105.83c-26.24,0-47.54-10.85-47.54-36.61v-75.31h200.91Z"/><path class="cls-24" d="M981.2,758.62v75.31c0,25.76-21.3,36.61-47.61,36.61h-105.77c-26.3,0-47.61-10.85-47.61-36.61v-75.31h200.98Z"/><path class="cls-24" d="M1182.11,758.62v75.31c0,25.76-21.3,36.61-47.54,36.61h-105.83c-26.3,0-47.54-10.85-47.54-36.61v-75.31h200.91Z"/><path class="cls-24" d="M1383.03,758.62v75.31c0,25.76-21.3,36.61-47.54,36.61h-105.83c-26.24,0-47.54-10.85-47.54-36.61v-75.31h200.91Z"/><path class="cls-24" d="M1583.94,758.62v75.31c0,25.76-21.24,36.61-47.54,36.61h-105.83c-26.24,0-47.54-10.85-47.54-36.61v-75.31h200.91Z"/><path class="cls-24" d="M1784.93,758.62v75.31c0,25.76-21.3,36.61-47.61,36.61h-105.77c-26.3,0-47.61-10.85-47.61-36.61v-75.31h200.98Z"/><path class="cls-24" d="M1985.85,758.62v75.31c0,25.76-21.3,36.61-47.54,36.61h-105.83c-26.3,0-47.54-10.85-47.54-36.61v-75.31h200.91Z"/><path class="cls-24" d="M2186.76,758.62v75.31c0,25.76-21.3,36.61-47.54,36.61h-105.83c-26.24,0-47.54-10.85-47.54-36.61v-75.31h200.91Z"/><path class="cls-24" d="M2387.67,758.62v75.31c0,25.76-21.24,36.61-47.54,36.61h-105.83c-26.24,0-47.54-10.85-47.54-36.61v-75.31h200.91Z"/><path class="cls-24" d="M2588.66,758.62v75.31c0,25.76-21.3,36.61-47.61,36.61h-105.77c-26.3,0-47.61-10.85-47.61-36.61v-75.31h200.99Z"/><path class="cls-24" d="M2789.58,758.62v75.31c0,25.76-21.3,36.61-47.54,36.61h-105.84c-26.24,0-47.54-10.85-47.54-36.61v-75.31h200.92Z"/></g><path class="cls-19" d="M2789.58,758.62H177.4s162.1-106.83,255.96-264H2533.61c45.92,76.87,108.14,141.64,159.73,187.87,53.9,48.23,96.24,76.13,96.24,76.13Z"/><g><rect class="cls-6" x="1489.78" y="494.62" width="6.76" height="375.92"/><rect class="cls-6" x="1470.16" y="494.62" width="6.76" height="375.92"/><path class="cls-6" d="M1293.73,758.6c-.21,1.19-.27,1.86-.27,1.99l.07,109.95h-6.76v-110.35c0-.13,.07-.66,.21-1.59,2.23-18.22,23.19-185.71,26.44-263.98h6.76c-3.18,77.95-23.94,243.92-26.44,263.98Z"/><path class="cls-6" d="M1274.19,758.6c-.21,1.19-.27,1.86-.27,1.99l.07,109.95h-6.76v-110.35c0-.13,.07-.66,.21-1.59,2.23-18.22,23.19-185.71,26.44-263.98h6.76c-3.18,77.95-23.94,243.92-26.44,263.98Z"/><path class="cls-6" d="M1140.49,494.62c-5.48,78.48-41.25,241.67-46.19,263.98-.21,.86-.4,1.53-.48,1.92v110.02h-6.76l.07-111.07c0-.07,.07-.33,.21-.86,3.04-13.64,40.64-184.31,46.32-263.98h6.84Z"/><path class="cls-6" d="M1120.95,494.62c-5.48,78.48-41.25,241.67-46.19,263.98-.21,.86-.4,1.53-.47,1.92v110.02h-6.76l.07-111.07c0-.07,.07-.33,.21-.86,3.04-13.64,40.64-184.31,46.32-263.98h6.83Z"/><path class="cls-6" d="M958.44,494.62c-6.76,88.61-58.63,242.06-66.13,263.98-.34,.99-.61,1.66-.74,2.12v109.82h-6.76l.21-111.41c0-.07,.07-.2,.21-.53,3.59-10.33,59.37-172.46,66.47-263.98h6.76Z"/><path class="cls-6" d="M938.97,494.62c-6.36,93.45-58.43,242.26-66.21,263.98-.34,.99-.61,1.66-.74,2.12v109.82h-6.76l.21-111.48c0-.07,.07-.2,.21-.46,3.51-9.8,59.85-167.16,66.55-263.98h6.76Z"/><path class="cls-6" d="M801.08,494.62c-9.2,100.8-91.29,240.14-105.77,263.98-.67,1.06-1.22,1.92-1.55,2.52v109.42h-6.76v-111.28l.4-.66,.07-.13c1.01-1.66,96.63-156.96,106.84-263.85h6.77Z"/><path class="cls-6" d="M781.53,494.62c-9.4,98.81-91.49,240.01-105.83,263.98-.61,1.12-1.15,1.92-1.49,2.52v109.42h-6.76v-111.28l.4-.66,.07-.13c1.01-1.66,96.36-159.15,106.78-263.85h6.84Z"/><path class="cls-6" d="M643.58,494.62c-40.23,128.02-135.72,242.06-154.8,263.98-1.01,1.26-1.89,2.19-2.44,2.85v109.09h-6.76v-111.61l.27-.33,.54-.59c1.15-1.33,111.58-123.78,156.08-263.39h7.1Z"/><path class="cls-6" d="M624.04,494.62c-35.91,112.85-136.46,241.01-155,263.98-1.01,1.19-1.76,2.12-2.23,2.71v109.23h-6.76v-111.54l.34-.4,.4-.53c1.22-1.46,116.59-141.33,156.22-263.45h7.03Z"/><path class="cls-6" d="M496.43,494.62c-69.99,154.91-178.47,244.05-204.63,263.98-1.96,1.46-3.38,2.52-4.39,3.24v108.7h-6.76v-112.07l1.42-.99c1.35-.92,128.08-90.07,207-262.86h7.36Z"/><path class="cls-6" d="M477.76,494.62c-50.44,124.11-179.61,240.74-206.26,263.98-1.62,1.39-2.84,2.38-3.65,3.11v108.83h-6.76v-111.87l.07-.07,1.15-.92c1.56-1.33,151.96-127.62,208.28-263.06h7.17Z"/><path class="cls-6" d="M1673.52,870.54v-110.35c0-.07-.07-.59-.21-1.59-2.3-18.08-23.27-185.57-26.44-263.98h6.76c3.25,78.81,24.41,248.09,26.44,263.98,.07,.73,.14,1.12,.14,1.19l.07,110.74h-6.76Z"/><path class="cls-6" d="M1699.82,759.79v110.74h-6.76v-110.35c0-.07-.07-.59-.21-1.59-2.3-18.08-23.26-185.57-26.44-263.98h6.76c3.25,78.81,24.48,248.09,26.51,263.98,.07,.73,.14,1.13,.14,1.2Z"/><path class="cls-6" d="M1879.91,760.19v110.35h-6.76v-110.02c-.07-.4-.27-1.06-.47-1.92-4.94-22.32-40.71-185.51-46.19-263.98h6.83c5.69,79.67,43.29,250.34,46.32,263.98,.14,.53,.21,.79,.21,.86l.07,.73Z"/><path class="cls-6" d="M1899.53,760.19v110.35h-6.76v-110.02c-.07-.4-.27-1.06-.47-1.92-4.94-22.32-40.71-185.51-46.19-263.98h6.83c5.69,79.67,43.28,250.34,46.26,263.98,.14,.53,.21,.79,.21,.86l.13,.73Z"/><path class="cls-6" d="M2082.25,760.19v110.35h-6.76v-109.82c-.13-.46-.4-1.12-.74-2.12-7.5-21.92-59.37-175.37-66.13-263.98h6.76c7.1,91.53,62.89,253.65,66.47,263.98,.14,.33,.21,.46,.21,.53l.2,1.06Z"/><path class="cls-6" d="M2101.79,760.19v110.35h-6.76v-109.82c-.13-.46-.4-1.12-.74-2.12-7.78-21.72-59.85-170.54-66.21-263.98h6.76c6.7,96.82,63.02,254.18,66.61,263.98,.07,.26,.13,.4,.13,.46l.21,1.13Z"/><path class="cls-6" d="M2279.98,759.26v111.28h-6.76v-109.42c-.34-.59-.88-1.45-1.55-2.52-14.41-23.84-96.57-163.18-105.77-263.98h6.76c10.21,106.89,105.83,262.19,106.84,263.85l.07,.13,.41,.66Z"/><path class="cls-6" d="M2299.53,759.26v111.28h-6.76v-109.42c-.34-.59-.88-1.39-1.49-2.52-14.27-23.97-96.44-165.17-105.83-263.98h6.83c10.42,104.71,105.77,262.19,106.78,263.85l.07,.13,.41,.66Z"/><path class="cls-6" d="M2487.46,758.93v111.61h-6.76v-109.09c-.54-.66-1.42-1.59-2.44-2.85-19.14-21.92-114.63-135.97-154.86-263.98h7.1c44.5,139.67,154.93,262.07,156.08,263.39l.54,.59,.34,.33Z"/><path class="cls-6" d="M2507,759v111.54h-6.76v-109.23c-.48-.59-1.22-1.53-2.23-2.71-18.53-22.98-119.16-151.13-155.07-263.98h7.03c39.62,122.12,155.07,261.99,156.28,263.45l.4,.53,.34,.4Z"/><path class="cls-6" d="M2686.35,758.47v112.07h-6.76v-108.7c-1.01-.73-2.44-1.79-4.39-3.24-26.17-19.93-134.65-109.08-204.64-263.98h7.37c78.99,172.79,205.72,261.94,207,262.86l1.42,.99Z"/><path class="cls-6" d="M2705.89,758.66v111.87h-6.76v-108.83c-.81-.66-2.02-1.72-3.59-3.11-26.44-23.05-155.87-139.81-206.33-263.98h7.23c56.26,135.44,206.66,261.74,208.28,263.06l1.09,.92,.07,.07Z"/></g></g><g><rect class="cls-3" x="331.72" y="1750.52" width="2303.53" height="94.42"/><rect class="cls-8" x="331.72" y="1805.51" width="2303.53" height="39.43"/></g><g id="Sauces"><g><g><rect class="cls-15" x="467.26" y="1430.9" width="78.17" height="30.09"/><polygon class="cls-15" points="518.53 1430.92 494.14 1430.92 501.76 1381.91 510.9 1381.91 518.53 1430.92"/><rect class="cls-15" x="450.98" y="1462.21" width="110.7" height="282.06"/></g><g><rect class="cls-18" x="615.85" y="1431.16" width="78.17" height="30.22"/><polygon class="cls-12" points="667.13 1430.92 642.74 1430.92 650.36 1381.91 659.49 1381.91 667.13 1430.92"/><rect class="cls-12" x="599.58" y="1462.21" width="110.7" height="282.06"/></g><g><polygon class="cls-12" points="841.21 1745.43 746.52 1745.43 738.15 1678.68 849.58 1678.68 841.21 1745.43"/><path class="cls-12" d="M849.54,1672.16h-111.35c-1.8,0-3.26,1.46-3.26,3.26h0c0,1.8,1.46,3.26,3.26,3.26h111.35c1.8,0,3.26-1.46,3.26-3.26h0c0-1.8-1.46-3.26-3.26-3.26Z"/></g></g></g><g id="Register"><g><polygon class="cls-18" points="2533.8 1555.97 2533.8 1750.51 2057.24 1750.51 2057.24 1711.24 2320.41 1628.88 2320.41 1555.97 2533.8 1555.97"/><g><rect class="cls-18" x="2420.88" y="1491.05" width="30.23" height="64.94"/><rect class="cls-18" x="2338.2" y="1403.05" width="195.6" height="87.99"/><rect class="cls-21" x="2365.61" y="1425.44" width="140.74" height="42.61"/></g></g></g></g></g></svg>