<?xml version="1.0" encoding="UTF-8"?><svg id="Calque_2" xmlns="http://www.w3.org/2000/svg" viewBox="0 0 4297.3 4629.08"><defs><style>.cls-1{fill:#ffb727;}.cls-2{fill:#b51918;}.cls-3{fill:#263238;}</style></defs><g id="tache-ketchup"><g id="tache-ketchup-2"><g id="tache"><g><path class="cls-2" d="M4233.75,858.74c-99.26,126.77-268.99,168.99-423.52,214.47-154.47,45.42-322.35,117.05-382.6,266.41-92.37,228.99,123.82,475.03,100.37,720.76-12.25,128.62-89.23,242.35-115.7,368.75-47.69,227.95,97.48,480.08,318.53,553.25,94.34,31.2,196.68,32.62,290.47,65.54,93.73,32.92,183.76,113.97,177.42,213.11-7.14,110.71-136.5,181.18-246.04,163.51-109.48-17.6-198.35-96.68-272.93-178.84-74.53-82.09-144.13-172.81-240.62-227.45-262.16-148.37-611.47,46.96-735.35,321.55-123.82,274.53-86.53,591.53-45.11,889.87,11.02,79.39,21.97,161.48-.06,238.53-21.97,77.05-86.34,148.07-166.41,151.14-129.54,4.98-200.93-161.61-174.22-288.44,26.77-126.9,110.59-235.45,141.79-361.3,40.74-164.44-19.82-349.67-149.79-458.29-130.03-108.56-323.09-135.2-477.61-65.79-62.09,27.88-117.97,69.66-182.96,90.03-64.99,20.31-146.53,12.43-186.04-43.02-68.31-95.88,33.72-254.04-47.82-339.03-104.74-109.23-288.38,90.22-429.49,35.51-116.5-45.11-104.43-215.95-49.79-328.26,54.65-112.31,132-239.7,77.36-352.01-54.03-110.96-208.99-130.59-326.1-91.45-117.05,39.08-217.05,119.2-334.04,158.47-117.05,39.26-271.95,20.12-326.41-90.65-42.52-86.4-3.69-195.08,65.73-261.79,69.42-66.77,162.96-101.11,253.55-133.67,200.93-72.19,401.8-144.44,602.73-216.62,132.68-47.69,275.09-102.96,350.29-222.28,107.2-170.28,28.99-403.15-108.56-550.05-137.54-146.84-323.33-237.79-481.98-361.49-111.14-86.65-213.18-196.75-246.16-333.73-32.99-137.05,24.25-302.9,154.96-355.52,130.22-52.43,281.67,22.95,370.23,131.82,88.56,108.86,132.93,245.92,194.65,371.95,104.25,212.75,278.22,408.75,509.25,461.37,230.96,52.56,510.72-92.37,537.8-327.7,13.66-118.96-35.08-235.27-52.62-353.73-17.54-118.4,11.82-263.15,121.85-310.41,126.1-54.09,269.79,65.11,301.73,198.53,31.94,133.48-9.29,271.82-33.54,406.9-.2,1.12-.4,2.25-.6,3.38-35.08,199.61,85.74,394.98,280.26,451.89,118.11,34.56,243.32,44.93,365.29,28.2,239.88-32.86,463.58-170.22,601.56-369.24,82.53-119.14,170.9-278.9,315.15-265.42,160.37,14.95,204.38,254.41,105.11,381.24Z"/><path class="cls-3" d="M4226.68,851.67c-116.85,146.34-312.02,174.02-479.01,230.8-151.75,51.59-313.95,141.28-346.77,312.63-33.55,175.2,68.1,343.28,104.81,509.61,9.77,44.3,15.66,89.57,13.71,135-2.23,52.1-16.13,102.54-33.71,151.37-32.71,90.85-78.21,178.43-89.5,275.53-18.36,157.83,49.42,321,166.01,427.16,63.22,57.56,138.65,94.69,221.79,113.52,99.05,22.44,207.5,25.04,296.08,79.8,74.25,45.9,138.03,135.42,95.31,224.08-35.52,73.72-126.41,111.52-204.94,105.46-97.61-7.53-181.39-73.26-247.75-140.1-69.19-69.68-127.48-150.02-202.89-213.5-62.37-52.5-134.74-89.52-215.87-101.32-73.43-10.68-148.66-1.57-218.89,21.63-148.43,49.04-278.22,157.01-358.18,290.81-101.12,169.21-122.84,377.3-116.67,570.53,3.34,104.71,14.97,208.95,28.67,312.74,13.89,105.27,43.15,223.64,3.95,326.71-29.87,78.56-112.53,149.68-200.47,117.57-73.41-26.8-110.54-112.11-118.26-184.61-10.06-94.41,33.74-182.94,73.48-265.7,40.3-83.94,79.23-168.57,84.19-263,8.99-171.11-79.67-343.85-229.43-429.15-75.93-43.25-164.42-64.59-251.7-61.79-93.51,2.99-172.83,36.66-253.36,81.55-74.53,41.55-184.32,92.56-260.69,24.59-62.29-55.44-32.67-154.82-28.3-226.32,3.81-62.32-10.59-130.7-74.11-157.62-58.28-24.7-125.29,3.38-180.12,24.55-62.31,24.06-135.29,58.64-203.31,39.21-76.15-21.75-97.96-101.84-94.01-172.68,5.04-90.33,49.9-164.11,87-244.14,36.53-78.81,69.28-171.31,31.74-255.96-30.12-67.93-97.76-106.06-168.87-117.44-79.41-12.71-156.39,4.73-228.97,37.03-156.68,69.73-332.58,218.49-512.67,127.76-80.15-40.38-111.53-126.96-86.41-211.67,29.02-97.87,113-159.64,201.93-200.47,100.54-46.16,208.27-78.74,312.28-116.12,110.5-39.72,220.99-79.44,331.49-119.15,161.42-58.01,361.93-113.31,447.1-278.05,79.76-154.27,24.26-342.57-71.83-475.88-113.7-157.74-291.36-253.66-448.02-362.06-150.03-103.81-323.66-246.83-337.16-443.84-5.56-81.11,17.29-167.65,71.41-229.65,59.82-68.52,150.53-91.43,237.67-69.72,203.2,50.62,287.75,256.84,364.38,429.39,73.05,164.49,169.22,320.09,314.43,430.52,130.45,99.2,293.11,149.49,455.09,110.38,139.31-33.64,272.63-128.79,318.3-269.2,61.53-189.16-75.78-372.81-35.41-562.89,17.01-80.07,68.42-159.18,156.44-168.74s166.1,52.51,209.59,122.2c58.1,93.09,51.05,209.11,33.74,313.09-15.56,93.43-47.04,187.7-37.77,283.36,15.5,160.07,126.05,299.86,279.06,350.22,190.02,62.54,404.24,51.76,589.01-22.88,165.64-66.91,308.02-181.6,408.83-328.97,46.93-68.6,90.79-142.76,154.4-197.62,55.6-47.96,135.73-73.64,203.32-33.89,115.03,67.63,111.21,251.92,38.29,347.4-7.81,10.23,9.55,20.2,17.27,10.09,74.51-97.57,77.5-267.84-17.67-354.18-48.12-43.65-117.61-53.61-177.93-31.16-71.21,26.5-122.56,88.92-165.87,148.58-52.51,72.33-97.85,148.44-160.07,213.34-65.14,67.94-141.27,125.03-224.41,169.09-186.82,99.01-404.47,125.54-609.82,74.9-89.6-22.1-168.89-64.33-228.08-136.54-54.55-66.54-86.12-151.28-88.07-237.31-1.1-48.49,8.94-95.4,18.44-142.68,10.69-53.16,21.7-106.33,28.11-160.22,11.36-95.47,7.05-197.58-47.06-280.29-42.36-64.74-111.05-119.46-190.23-126.63-74.92-6.78-142.38,35.98-178.31,100.19-99.88,178.47,24.8,368.06,20.44,552.6-3.98,168.32-137.19,294.06-290.95,340.96-171.32,52.26-346.16-1.44-482.7-111.56-72.37-58.37-133.66-129.73-184.7-207.22s-91.78-167.47-130.57-255.22c-73.58-166.45-171.99-351.53-367.4-391.39-78.49-16.01-160.16,1.2-220.91,54.7-57.82,50.92-89.88,126.38-98.66,201.85-21.56,185.29,108.46,343.09,244.34,451.65,156.77,125.24,341.81,214.4,482.77,359.35,122.75,126.23,213.69,329.12,141.6,502.96-77.34,186.51-308.84,242.48-480.19,304.06-111.93,40.23-223.86,80.47-335.79,120.7-99.77,35.86-203.8,66.72-298.92,114.06-79.97,39.8-151.12,98.11-183.97,183.41-28.65,74.39-19.92,161.19,39.19,218.28,53.33,51.5,132.3,67.97,204.27,63.76,90.26-5.28,171.02-46.63,248.96-89.23,83.87-45.85,169.98-97.7,267.53-104.83,77.18-5.64,166.61,13.05,214.55,79.31,64.31,88.88,18.14,201.76-24.17,289.05-36.28,74.86-73.8,144.95-79.24,229.69-4.1,63.97,10.27,136.33,66.23,175.08,56.47,39.1,127.32,26.51,188.14,6,62.98-21.23,129.4-60.42,197.6-58.63,34.41,.9,65.12,18.22,83.01,47.9,19.87,32.98,18.55,73.84,15.51,110.86-5.72,69.74-26.21,152.99,21.05,213.45,49.55,63.38,143.32,62.42,212.12,36.24,46.23-17.59,88.04-44.18,131.61-67.21,42.86-22.65,87.7-39.3,135.53-47.71,94.1-16.56,194.19-2.33,279.98,39.71,169.47,83.04,267.28,276.99,240.38,463.06-26.14,180.88-189.25,334-148.58,525.01,13.91,65.31,50.52,133.78,113.25,163.44,70.47,33.32,148.99,4.02,197.11-53.15,64.03-76.08,67.05-177.93,56.57-272.28-11.82-106.43-29.34-212.03-38.56-318.79-18.14-209.95-13.91-430.72,74.57-625.96,69.05-152.35,203.44-278.55,360.7-336.22,74.4-27.28,155.52-39.27,234.19-26.3,90.24,14.87,166.61,62.47,231.85,125.11,126.67,121.62,240.93,320.15,437.25,329.56,73.18,3.51,151.87-27.48,197.43-85.99,48.91-62.81,43.28-146.06-3.02-208.67-121.25-163.97-354.2-111.7-515.42-204.82-146.35-84.53-242.56-251.6-242.19-420.61,.22-100.62,41.71-191.56,77.75-283.45,35.7-91.03,57.3-181.04,43.91-279.06-12.55-91.86-45.81-179.04-74.38-266.73-27.58-84.62-53.77-173.91-43.86-263.87,21.06-191.23,207.57-282.45,371.09-333.35,160.38-49.92,342.51-86.16,453.08-224.64,7.95-9.96-6.11-24.2-14.14-14.14Z"/></g><g><path class="cls-2" d="M1498.66,3876.48c-32.82,49.01-107.9,67.89-154.5,31.78-43.41-33.59-48.85-100.27-26.29-150.33,10.24-22.67,24.89-42.61,41.95-60.67,37.7-39.92,103.54-34.81,133.32,11.32,.18,.28,.35,.55,.53,.83,31.78,49.67,37.87,118.11,4.99,167.07Z"/><path class="cls-3" d="M1490.03,3871.44c-1.28,1.91-2.63,3.78-4.03,5.6l1.56-2.02c-5.71,7.37-12.38,13.95-19.75,19.67l2.02-1.56c-8.28,6.39-17.38,11.67-27.01,15.75l2.39-1.01c-9.9,4.16-20.3,7.05-30.94,8.51l2.66-.36c-9.72,1.3-19.59,1.39-29.31,.09l2.66,.36c-8.23-1.13-16.3-3.27-23.97-6.48l2.39,1.01c-6.95-2.94-13.5-6.74-19.48-11.36l2.02,1.56c-6.24-4.85-11.83-10.48-16.66-16.73l1.56,2.02c-5.3-6.91-9.64-14.5-13.04-22.51l1.01,2.39c-4.23-10.05-6.97-20.66-8.42-31.45l.36,2.66c-1.68-12.78-1.57-25.76,.15-38.54l-.36,2.66c1.78-13.03,5.21-25.81,10.3-37.93l-1.01,2.39c6.63-15.68,15.7-30.29,26.08-43.75l-1.56,2.02c4.47-5.77,9.2-11.35,14.13-16.73,4.06-4.43,8.27-8.64,13.02-12.34l-2.02,1.56c5.89-4.54,12.33-8.31,19.18-11.2l-2.39,1.01c6.97-2.91,14.29-4.9,21.77-5.93l-2.66,.36c7.71-1.03,15.53-1.03,23.24,0l-2.66-.36c7.5,1.03,14.84,3.02,21.82,5.96l-2.39-1.01c6.57,2.8,12.77,6.41,18.43,10.77l-2.02-1.56c5.58,4.33,10.57,9.35,14.89,14.93l-1.56-2.02c7.45,9.71,13.24,20.87,18,32.11l-1.01-2.39c5.91,14.06,9.99,28.87,12.05,43.98l-.36-2.66c1.87,13.94,2,28.09,.15,42.03l.36-2.66c-1.61,11.88-4.67,23.54-9.31,34.6l1.01-2.39c-3.09,7.33-6.86,14.34-11.28,20.95-1.39,2.08-1.66,5.35-1.01,7.71s2.43,4.83,4.6,5.98c5.04,2.66,10.57,1.06,13.68-3.59,7.85-11.73,13.74-24.9,17.58-38.47s5.69-27.95,5.71-42.1-1.84-28.81-5.27-42.73c-3.45-13.98-8.65-27.59-15.25-40.38-6.06-11.74-13.37-23.11-23.09-32.17s-20.06-15.12-31.91-19.54c-10.86-4.06-22.72-5.96-34.3-5.76s-23.54,2.49-34.37,6.99c-5.91,2.46-11.6,5.25-16.93,8.82-5.42,3.63-10.57,7.78-15.18,12.42-10.99,11.06-20.91,23.53-29.56,36.49-8.32,12.47-15.34,25.86-20.47,39.95-4.47,12.26-7.15,25.02-8.55,37.98s-.96,25.86,.91,38.73,5.57,24.77,11,36.29c5.29,11.22,12.64,21.67,21.51,30.34,4.71,4.61,9.93,8.78,15.44,12.39,5.37,3.52,11.09,6.28,17.01,8.72,11.07,4.56,23.06,6.83,34.99,7.41s24.44-.85,36.19-3.81,23.46-7.75,34.05-13.89c10.56-6.13,20.44-13.84,28.75-22.8,4.3-4.63,8.23-9.65,11.75-14.89,1.39-2.07,1.65-5.36,1.01-7.71s-2.43-4.83-4.6-5.98c-5.04-2.67-10.56-1.06-13.68,3.59Z"/></g><g><path class="cls-2" d="M1262.36,4042.37c-13.19,19.7-43.36,27.28-62.09,12.77-17.45-13.5-19.63-40.3-10.56-60.41,4.12-9.11,10-17.12,16.86-24.38,15.15-16.04,41.61-13.99,53.58,4.55,.07,.11,.14,.22,.21,.33,12.77,19.96,15.22,47.47,2.01,67.14Z"/><path class="cls-3" d="M1253.73,4037.32c-.49,.72-1,1.43-1.53,2.13l1.56-2.02c-2.34,3.03-5.07,5.73-8.09,8.08l2.02-1.56c-3.31,2.54-6.93,4.63-10.77,6.27l2.39-1.01c-4.03,1.69-8.25,2.86-12.59,3.45l2.66-.36c-3.84,.5-7.71,.53-11.55,.03l2.66,.36c-3.37-.46-6.66-1.33-9.8-2.65l2.39,1.01c-2.77-1.19-5.37-2.7-7.76-4.54l2.02,1.56c-2.5-1.95-4.72-4.19-6.67-6.69l1.56,2.02c-2.18-2.84-3.94-5.95-5.34-9.25l1.01,2.39c-1.65-4-2.73-8.18-3.31-12.47l.36,2.66c-.66-5.08-.62-10.21,.03-15.28l-.36,2.66c.72-5.31,2.1-10.51,4.17-15.46l-1.01,2.39c2.66-6.25,6.25-12.06,10.38-17.44l-1.56,2.02c3.27-4.22,6.78-8.5,11-11.8l-2.02,1.56c2.4-1.84,5-3.36,7.79-4.54l-2.39,1.01c2.82-1.16,5.76-1.95,8.78-2.37l-2.66,.36c3.09-.4,6.21-.39,9.3,.02l-2.66-.36c2.98,.42,5.89,1.21,8.67,2.37l-2.39-1.01c2.61,1.12,5.07,2.54,7.33,4.26l-2.02-1.56c2.24,1.73,4.23,3.72,5.98,5.94l-1.56-2.02c3.06,3.96,5.42,8.51,7.37,13.1l-1.01-2.39c2.35,5.64,3.98,11.54,4.82,17.6l-.36-2.66c.74,5.61,.8,11.28,.07,16.9l.36-2.66c-.66,4.79-1.89,9.47-3.75,13.93l1.01-2.39c-1.25,2.94-2.76,5.75-4.53,8.41-1.39,2.09-1.66,5.35-1.01,7.71s2.43,4.83,4.6,5.98c5.03,2.66,10.58,1.07,13.68-3.59,14.18-21.3,12.48-49.8,1.09-71.87-2.64-5.12-5.93-10.12-10.16-14.07-4.51-4.21-9.61-7.19-15.35-9.36-9.67-3.66-21.35-3.47-30.91,.44-5.79,2.37-11,5.53-15.46,9.98-4.78,4.78-9.07,10.24-12.83,15.85s-6.62,11.36-8.88,17.52c-2,5.47-3.05,11.15-3.68,16.93-1.23,11.35,.75,22.94,5.63,33.25,2.35,4.96,5.72,9.62,9.66,13.44,4.55,4.41,9.73,7.54,15.56,9.91,9.95,4.05,21.5,4.05,31.82,1.45s20.55-8.38,27.89-16.32c2.06-2.22,3.93-4.65,5.62-7.15,1.4-2.07,1.65-5.36,1.01-7.71s-2.43-4.83-4.6-5.98c-5.05-2.67-10.55-1.05-13.68,3.59Z"/></g><g><path class="cls-2" d="M3604.88,749.22c-67.49,110.89-192.56,182.08-321.41,191.57-39.41,2.9-68.02-39.52-48.55-73.9,.76-1.35,1.58-2.67,2.45-3.95,22.83-33.59,65.37-46.65,104.83-56.15,39.46-9.44,82.05-19.21,109.11-49.51,24.2-27.17,30.79-65.26,44.4-99.01,13.61-33.81,41.88-68,78.21-65.53,32,2.2,55.93,34.08,58.62,66.03,2.74,31.94-10.98,63.06-27.66,90.45Z"/><path class="cls-3" d="M3596.25,744.17c-4.94,8.1-10.18,16.01-15.73,23.71-1.3,1.8-2.61,3.58-3.93,5.36-.72,.97-1.45,1.93-2.19,2.89-.37,.48-.75,.95-1.1,1.44,1.75-2.4,.3-.4-.1,.12-2.91,3.72-5.9,7.39-8.95,11.01-12.07,14.29-25.19,27.69-39.18,40.1-3.61,3.21-7.28,6.35-11.01,9.42-1.71,1.41-3.43,2.81-5.16,4.19-.79,.63-1.58,1.25-2.37,1.88-.47,.37-.95,.75-1.43,1.12-.32,.25-.64,.49-.95,.74,1.23-.95,1.42-1.1,.59-.46-7.53,5.75-15.22,11.27-23.11,16.51-15.63,10.38-31.95,19.72-48.82,27.94-4.17,2.04-8.38,4.01-12.62,5.91-2.21,.99-4.43,1.96-6.66,2.92-.37,.16-.74,.32-1.11,.48-2.02,.87,2.19-.91,.16-.07-1.31,.54-2.61,1.08-3.92,1.62-8.7,3.54-17.51,6.79-26.42,9.75-17.9,5.95-36.19,10.72-54.73,14.24-4.55,.87-9.12,1.65-13.7,2.37-2.19,.34-4.38,.66-6.58,.97-.66,.09-2.85,.34,.26-.03-.6,.07-1.2,.16-1.8,.24-1.4,.18-2.8,.35-4.2,.52-8.67,1.03-17.74,2.46-26.48,1.66-.51-.05-1.03-.13-1.54-.16,3.21,.2,1.43,.2,.63,.07-.92-.15-1.83-.33-2.74-.53-2.03-.45-4.04-1.03-6-1.73-.78-.28-1.53-.6-2.3-.89,3.35,1.24,.06-.02-.74-.42-1.75-.87-3.44-1.84-5.08-2.9-.81-.53-1.61-1.08-2.39-1.65-2.05-1.5,1.73,1.43-.27-.21-1.49-1.22-2.91-2.53-4.25-3.91s-2.77-2.76-3.78-4.33c.01,.02,1.58,2.13,.7,.88-.28-.39-.56-.77-.84-1.17-.64-.92-1.25-1.85-1.82-2.8-.91-1.5-1.74-3.04-2.49-4.62-.2-.43-.4-.87-.6-1.3-.79-1.71,.93,2.4,.27,.63-.34-.89-.68-1.78-.98-2.69-.55-1.66-1.02-3.35-1.39-5.06-.2-.94-.36-1.88-.53-2.82-.33-1.89,.29,2.67,.1,.76-.05-.48-.1-.95-.15-1.43-.17-1.92-.22-3.86-.15-5.79,.03-.81,.08-1.62,.15-2.43,.04-.49,.12-.97,.15-1.46-.23,3.46-.15,1.08,0,.22,.32-1.81,.74-3.6,1.26-5.35,.29-.98,.62-1.95,.97-2.9,.12-.32,.25-.64,.37-.96,.6-1.62-1.1,2.42,.02-.01,.87-1.9,1.87-3.73,2.96-5.51,.67-1.09,1.38-2.16,2.12-3.21,.34-.48,.68-.97,1.03-1.44,.19-.26,1.75-2.28,.63-.87s.14-.17,.31-.37c.37-.46,.74-.91,1.11-1.36,.75-.9,1.51-1.78,2.29-2.64,1.55-1.73,3.17-3.39,4.85-5,1.53-1.47,3.11-2.89,4.74-4.26,.89-.75,1.79-1.47,2.69-2.2,1.28-1.03-.52,.41-.65,.49,.64-.42,1.24-.94,1.86-1.39,3.77-2.76,7.71-5.3,11.76-7.63s7.98-4.33,12.1-6.24c.99-.46,1.99-.91,2.99-1.35,.72-.32,4.24-1.57,1.19-.53,2.27-.77,4.47-1.82,6.71-2.66,8.88-3.35,17.96-6.15,27.11-8.66,18.42-5.04,37.15-8.8,55.47-14.21,18.95-5.6,37.96-12.81,54.34-24.05,8.3-5.69,16.09-12.27,22.62-19.95s12.47-16.7,17.15-26.03c9.33-18.6,15.19-38.62,21.92-58.24,1.6-4.66,3.25-9.31,5.03-13.9,.46-1.19,.93-2.38,1.41-3.57,.14-.36,.29-.72,.44-1.07,.8-1.98-.96,2.21-.1,.24,.94-2.16,1.91-4.3,2.94-6.42,2.09-4.29,4.39-8.49,6.89-12.55,1.15-1.87,2.35-3.71,3.59-5.53,.62-.9,1.25-1.8,1.89-2.69,.29-.4,.59-.8,.88-1.2,.43-.58,2.29-2.58,.24-.35,3.06-3.33,5.74-6.95,8.95-10.17,1.64-1.64,3.33-3.22,5.08-4.73,.72-.62,1.45-1.24,2.2-1.83,.55-.44,2.2-1.45-.23,.16,.63-.41,1.21-.91,1.82-1.35,3.47-2.5,7.15-4.72,11.01-6.55,.5-.24,1-.46,1.5-.69,1.87-.86-2.28,.89-.36,.15,.85-.33,1.7-.66,2.57-.96,2.07-.72,4.18-1.33,6.33-1.81,1.08-.24,2.16-.45,3.25-.63,.83-.13,2.55-.03-.46,.05,.55-.02,1.11-.13,1.66-.17,2.25-.2,4.51-.26,6.77-.18,.95,.03,1.9,.09,2.84,.18,.55,.05,1.11,.15,1.67,.18-3.07-.14-1.25-.17-.46-.04,2.17,.37,4.31,.87,6.42,1.51,1.04,.32,2.08,.67,3.1,1.05,.5,.18,1.01,.46,1.52,.59-.11-.03-2.35-1.05-.88-.37,2.07,.95,4.09,1.96,6.05,3.13,1.81,1.08,3.53,2.27,5.24,3.49,1.6,1.15-1.54-1.24-.5-.39,.36,.29,.72,.57,1.07,.87,1,.82,1.97,1.68,2.91,2.55,1.5,1.39,2.93,2.85,4.3,4.37,.75,.83,1.49,1.68,2.2,2.55,.24,.29,.47,.58,.71,.87,1.11,1.34-1.47-1.98,.15,.21,2.7,3.65,5.08,7.55,7.12,11.61,.43,.85,.84,1.71,1.24,2.57,.23,.51,.43,1.07,.7,1.56-1.39-2.5-.42-1-.13-.28,.85,2.12,1.61,4.27,2.28,6.46,.61,2,1.14,4.01,1.6,6.05,.25,1.11,.47,2.22,.66,3.34,.08,.46,.16,.93,.23,1.4,.38,2.45-.23-2.12,0-.14,.6,5.36,.79,10.74,.51,16.13-.13,2.56-.38,5.11-.67,7.66s.36-2.31-.02,.11c-.07,.46-.14,.92-.21,1.38-.26,1.61-.55,3.22-.88,4.82-1.07,5.29-2.49,10.51-4.19,15.63-.85,2.58-1.77,5.14-2.76,7.68-.47,1.22-.97,2.42-1.45,3.63-.92,2.29,.89-2.02-.1,.24-.38,.87-.76,1.75-1.15,2.61-4.38,9.77-9.54,19.16-15.1,28.31-2.72,4.48-1.13,11.19,3.59,13.68s10.78,1.19,13.68-3.59c12.04-19.8,22.66-41.33,27.03-64.25,2.17-11.37,3.09-23.09,1.63-34.6-1.33-10.53-4.28-20.44-8.98-29.98-8.78-17.79-23.84-32.6-42.63-39.37s-39.87-3.08-56.53,7.3c-17.03,10.6-30.2,26.94-39.69,44.42-9.91,18.25-15.66,38.42-22.32,57.99-1.66,4.87-3.37,9.72-5.21,14.53-.84,2.19-1.71,4.36-2.6,6.53s.93-2.13,.02-.04c-.25,.58-.5,1.17-.76,1.75-.6,1.35-1.21,2.7-1.83,4.04-2.14,4.57-4.48,9.05-7.08,13.37-1.19,1.98-2.43,3.92-3.73,5.82-.71,1.04-1.44,2.07-2.19,3.08-.22,.3-1.11,1.16-1.14,1.52,.92-1.19,1.06-1.36,.4-.53-.26,.33-.53,.66-.79,.99-3.12,3.83-6.53,7.43-10.19,10.75-1.64,1.49-3.33,2.93-5.06,4.32-.55,.44-2.23,1.38,.12-.08-.5,.31-.97,.74-1.44,1.09-1.13,.84-2.28,1.65-3.44,2.45-3.99,2.73-8.14,5.22-12.41,7.5-1.97,1.05-3.96,2.06-5.97,3.02-1.1,.53-2.21,1.04-3.32,1.55-.56,.25-1.12,.5-1.68,.75-.29,.13-2.73,1.12-1.06,.47s-.28,.11-.51,.21c-.57,.23-1.14,.47-1.71,.7-1.15,.46-2.29,.91-3.45,1.35-2.32,.88-4.65,1.72-6.99,2.53-4.72,1.63-9.48,3.11-14.27,4.5-9.6,2.78-19.3,5.18-29.01,7.51-18.83,4.52-37.68,9.15-55.7,16.36-18.67,7.47-36.63,17.28-50.76,31.84-7.44,7.67-13.79,16.38-17.8,26.32-3.16,7.85-4.46,16.77-3.61,25.2,1.88,18.41,11.55,34.55,26.66,45.19,6.96,4.9,15.33,8.36,23.74,9.65,9.81,1.51,19.39,.5,29.2-.59,39.23-4.35,77.74-13.88,114.35-28.66s70.83-33.87,101.98-57.78c31.78-24.4,59.92-52.9,83.31-85.47,5.42-7.54,10.54-15.29,15.37-23.22,2.73-4.47,1.13-11.19-3.59-13.68s-10.77-1.19-13.68,3.59Z"/></g><g><path class="cls-2" d="M3824.58,438.46c-17.12,8.73-38.97,10.7-54.99,.05-18.55-12.35-23.98-38.04-19.81-59.93,4.4-23.11,18.61-43.28,37.51-57.12,30.75-22.51,75.57-4.24,80.84,33.5,.03,.21,.06,.42,.09,.63,4.34,32.99-14,67.78-43.63,82.88Z"/><path class="cls-3" d="M3819.54,429.82c-1.42,.72-2.85,1.39-4.31,2.01l2.39-1.01c-5.53,2.33-11.33,3.96-17.27,4.77l2.66-.36c-4.96,.65-9.97,.71-14.93,.06l2.66,.36c-3.98-.55-7.87-1.57-11.59-3.11l2.39,1.01c-3.26-1.39-6.33-3.15-9.15-5.3l2.02,1.56c-2.89-2.24-5.46-4.84-7.7-7.74l1.56,2.02c-2.57-3.37-4.65-7.06-6.31-10.96l1.01,2.39c-2.12-5.09-3.49-10.45-4.24-15.91l.36,2.66c-.85-6.49-.82-13.05,.02-19.54l-.36,2.66c.99-7.32,3.01-14.46,5.88-21.25l-1.01,2.39c3.1-7.25,7.15-14.05,11.96-20.3l-1.56,2.02c5.26-6.77,11.38-12.83,18.16-18.09l-2.02,1.56c3.91-3.01,8.02-5.6,12.57-7.53l-2.39,1.01c4.08-1.7,8.34-2.86,12.72-3.47l-2.66,.36c4.56-.61,9.17-.6,13.73,0l-2.66-.36c4.71,.64,9.3,1.9,13.67,3.75l-2.39-1.01c4.09,1.75,7.94,3.99,11.47,6.7l-2.02-1.56c3.38,2.62,6.43,5.64,9.06,9.02l-1.56-2.02c2.55,3.31,4.67,6.92,6.32,10.76l-1.01-2.39c1.75,4.15,2.92,8.5,3.53,12.96l-.36-2.66c.91,6.81,.87,13.7-.03,20.51l.36-2.66c-1,7.3-2.98,14.43-5.82,21.23l1.01-2.39c-2.88,6.8-6.6,13.2-11.09,19.07l1.56-2.02c-4.28,5.54-9.22,10.54-14.75,14.83l2.02-1.56c-3.73,2.87-7.7,5.4-11.9,7.55-2.16,1.11-3.97,3.69-4.6,5.98s-.36,5.58,1.01,7.71c3.07,4.76,8.69,6.14,13.68,3.59,13.58-6.96,24.93-17.77,33.41-30.38,8.61-12.8,13.67-27.62,15.35-42.91,1.54-14.05-.45-28.83-7.42-41.26-6.12-10.92-16.11-20.09-27.59-25.11-3.23-1.42-6.49-2.73-9.9-3.64s-6.97-1.45-10.51-1.84c-6.34-.7-12.82-.17-19.04,1.17-14.25,3.06-26.35,12-36.39,22.23-11.4,11.61-20.21,25.77-25.08,41.31-4.57,14.59-5.34,30.54-1.68,45.42,3.7,15.01,12.73,29.07,26.44,36.71,15.16,8.45,33.83,8.72,50.1,3.43,4.22-1.37,8.35-3.12,12.31-5.12,2.16-1.09,3.97-3.7,4.6-5.98,.66-2.39,.36-5.58-1.01-7.71-3.08-4.78-8.68-6.12-13.68-3.59Z"/></g><g><path class="cls-2" d="M332.47,1821c-66.81,4.92-129.39,48.36-157.39,109.25-11.06,24.03-15.43,55.97,3.81,74.12,20.16,18.92,52.68,11.16,78.58,1.29,81.35-31.05,159.21-71.19,231.65-119.46-38.46-44.08-98.15-69.5-156.64-65.19Z"/><path class="cls-3" d="M332.47,1811c-19.74,1.48-39.2,5.86-57.57,13.27-19.04,7.68-36.55,17.9-52.65,30.63s-28.91,26.77-40.14,42.93c-11.05,15.9-20.5,33.99-24.4,53.08-4.15,20.28-2.5,42.6,12.1,58.5,7.03,7.65,16.82,12.9,26.95,15,10.73,2.22,21.46,1.66,32.19-.15,9.68-1.64,19.13-4.51,28.33-7.9,10.89-4,21.65-8.37,32.37-12.8,22.43-9.27,44.6-19.15,66.44-29.75,21.31-10.34,42.32-21.33,62.97-32.94s40.78-23.75,60.6-36.54c4.86-3.13,9.69-6.3,14.49-9.5,5.6-3.73,6.43-10.67,2.02-15.71-15.62-17.85-34.74-32.86-55.62-44.1-20.79-11.18-43.55-19-66.94-22.32-13.66-1.94-27.37-2.7-41.15-1.7-2.68,.19-5.13,.98-7.07,2.93-1.73,1.73-3.04,4.58-2.93,7.07,.23,5.09,4.41,10.4,10,10,12.35-.89,24.75-.48,37.02,1.15l-2.66-.36c17.02,2.3,33.67,6.92,49.5,13.59l-2.39-1.01c15.52,6.59,30.16,15.13,43.51,25.42l-2.02-1.56c9.65,7.48,18.58,15.84,26.62,25.03l2.02-15.71c-23.88,15.91-48.35,30.94-73.34,45.05s-50.5,27.3-76.46,39.54c-14.64,6.9-29.41,13.5-44.32,19.79l2.39-1.01c-10.03,4.23-20.11,8.32-30.26,12.27-8.78,3.42-17.6,6.75-26.71,9.18-4.94,1.32-9.95,2.38-15.01,3.08l2.66-.36c-6.52,.88-13.13,1.14-19.67,.31l2.66,.36c-4.35-.59-8.59-1.66-12.64-3.36l2.39,1.01c-3.1-1.34-6.01-3.02-8.7-5.06l2.02,1.56c-2.69-2.08-5.1-4.46-7.2-7.14l1.56,2.02c-2.15-2.8-3.91-5.85-5.3-9.1l1.01,2.39c-1.7-4.08-2.77-8.35-3.36-12.72l.36,2.66c-.79-6.19-.61-12.45,.22-18.63l-.36,2.66c1.24-8.92,3.8-17.61,7.28-25.9l-1.01,2.39c5.78-13.62,13.59-26.42,22.6-38.13l-1.56,2.02c10.05-12.99,21.76-24.64,34.74-34.71l-2.02,1.56c13.38-10.33,28.03-18.93,43.58-25.53l-2.39,1.01c15.12-6.37,31.02-10.82,47.28-13.04l-2.66,.36c3.53-.47,7.08-.84,10.63-1.11,2.68-.2,5.12-.98,7.07-2.93,1.73-1.73,3.04-4.58,2.93-7.07-.23-5.08-4.41-10.42-10-10Z"/></g></g><g id="end"><g><path class="cls-3" d="M1927.5,2091.11v-1.15c-11.22,0-21.33,.45-30.32,1.34-8.99,.89-16.48,2.17-22.48,3.83-9.31,2.68-18.27,5.33-26.87,7.94-8.61,2.62-16.93,5.2-24.96,7.75-.38-8.16-.57-16.38-.57-24.67v-11.09l2.1-56.24-8.61-8.61c12.75-2.93,23.34-5.51,31.75-7.75,8.42-2.23,14.85-4.05,19.32-5.45,27.42-4.21,47.05-12.05,58.91-23.53l-1.34-24.29c-.26-4.33-.45-8.25-.57-11.76-.13-3.51-.19-7.11-.19-10.81v-25.06c-.13-2.8-.19-5.58-.19-8.32v-8.51c0-8.42,.13-16.83,.38-25.25,.25-8.42,.64-17.41,1.15-26.97l-37.87-37.68c0-.13,.03-.22,.1-.29,.06-.06,.1-.22,.1-.48l-30.41-22.57c-92.07,33.16-175.85,59.68-251.34,79.57-32.77,7.65-60.13,14.57-82.06,20.75-21.93,6.19-38.45,11.51-49.54,15.97,0,11.6,1.82,27.8,5.45,48.58,3.63,20.79,9.02,46.23,16.16,76.32,.77,4.46,1.46,8.67,2.1,12.62,.64,3.95,1.27,7.59,1.91,10.9,1.27,7.27,2.29,13.36,3.06,18.27,.77,4.91,1.4,8.58,1.91,11,10.58,51.14,19.48,96.76,26.68,136.86,7.2,40.11,12.85,75.2,16.93,105.3,2.8,17.09,6.18,32.83,10.14,47.25,3.95,14.41,8.54,27.73,13.77,39.98,.25-.26,.51-.38,.77-.38l37.87,37.87c24.48-10.33,47.44-19.54,68.86-27.64,21.42-8.1,41.51-15.21,60.25-21.33,58.66-22.95,106.54-40.2,143.65-51.74,37.11-11.54,63.63-17.31,79.57-17.31v-71.73c0-5.23,.06-12.24,.19-21.04,.13-8.8,.29-18.39,.48-28.79,.19-10.39,.41-21.17,.67-32.33,.25-11.16,.51-21.71,.77-31.66l-37.68-37.68Z"/><path class="cls-1" d="M1762.03,2169.86c-26.14,10.33-52.92,19.7-80.34,28.12h-2.87c-1.79-11.73-2.68-21.61-2.68-29.65v-4.21l91.43-32.33c-3.19-20.28-4.59-47.5-4.21-81.68l1.34-33.86c-6.89,0-41.12,9.88-102.72,29.65-1.91-10.33-3.32-23.91-4.21-40.74,16.83-8.54,35.58-16.07,56.24-22.57,26.65-7.78,45.46-13.9,56.43-18.36,29.07-6.89,47.37-11.6,54.9-14.15,23.59-3.57,37.3-7.14,41.12-10.71l-.96-13.96c-.77-11.22-1.02-21.29-.77-30.22v-18.17c-.51-21.29-.07-44.82,1.34-70.58-93.85,33.66-178.33,60.44-253.44,80.34-64.78,15.18-102.78,25.06-114,29.65,0,10.59,7.01,45.27,21.04,104.05,4.72,28.57,7.78,46.48,9.18,53.75,21.17,102.14,35.77,183.31,43.8,243.49,5.1,31.88,9.5,52.03,13.2,60.44,34.94-14.79,71.6-28.37,109.98-40.74,119.61-46.93,189.04-70.39,208.3-70.39v-49.35c0-21.04,.51-51.52,1.53-91.43-5.48,0-13.01,1.4-22.57,4.21-55.47,15.94-95.83,29.07-121.08,39.4Z"/></g><g><path class="cls-3" d="M2470.63,1820.26c.06-.13,.1-.25,.1-.38l-32.9-24.87c-22.19,11.73-46.77,23.62-73.74,35.67-26.97,12.05-56.52,24.45-88.66,37.2-1.79,17.09-3.6,34.05-5.45,50.88-1.85,16.83-3.67,33.41-5.45,49.73-10.33-21.68-20.4-43.07-30.22-64.17-9.82-21.1-18.68-40.77-26.59-59.01l-36.92-36.92c-.51-.64-.83-1.34-.96-2.1l-160.48,74.6c-2.17,27.67-4.24,54.68-6.22,81.01-1.98,26.33-3.8,51.1-5.45,74.31-1.66,23.21-3.09,44.44-4.3,63.7-1.21,19.26-2.2,35.64-2.96,49.16-.51,9.18-1.21,19.51-2.1,30.99-.89,11.48-1.88,23.59-2.96,36.34-1.08,12.75-2.3,25.98-3.63,39.69-1.34,13.71-2.71,27.42-4.11,41.12-1.4,13.71-2.84,27.22-4.3,40.55-1.47,13.32-2.9,25.98-4.3,37.97,.25-.13,.48-.22,.67-.29,.19-.07,.41-.16,.67-.29l37.68,37.87c9.82-3.7,20.5-7.78,32.04-12.24,11.54-4.46,23.34-9.09,35.39-13.87,12.05-4.78,24.04-9.56,35.96-14.35,11.92-4.78,23.21-9.34,33.86-13.68,10.65-4.34,20.34-8.32,29.07-11.95,8.73-3.63,15.91-6.73,21.52-9.28,.25-8.54,.54-17.95,.86-28.21,.32-10.26,.67-20.56,1.05-30.89,14.03,32.26,27.42,64.52,40.17,96.79,12.75,32.26,24.99,64.78,36.73,97.55,.25-.26,.51-.45,.77-.57l37.87,37.87c46.16-32.01,88.69-53.94,127.58-65.8,4.21-39.53,8.48-79.83,12.82-120.89,4.33-41.06,8.7-82.25,13.1-123.56,4.4-41.32,8.8-82.5,13.2-123.56,4.4-41.06,8.7-81.35,12.91-120.89h.19c2.42-19,4.88-36.41,7.36-52.22,2.49-15.81,5.13-30.8,7.94-44.95l-37.87-37.68c0-.13,.03-.25,.1-.38Z"/><path class="cls-1" d="M2293.96,1897.92c-7.27,72.94-14.54,134.6-21.81,184.96-9.82-17.21-20.66-35.96-32.52-56.23-30.99-60.06-59.1-118.72-84.35-175.97l-126.82,59.1c-9.44,117.83-15.43,202.56-17.98,254.21-3.06,55.22-8.8,118.78-17.21,190.7,59.04-22.44,105.52-41.19,139.44-56.23l3.25-84.93,5.16-91.05c60.83,123.31,108.26,232.72,142.31,328.23,32.39-22.45,64.27-38.45,95.64-48.01l50.69-474.56c4.72-37.74,9.88-70.64,15.49-98.7-44.38,23.34-94.81,46.16-151.3,68.48Z"/></g><g><path class="cls-3" d="M3044.55,2014.69c-1.15-4.52-2.49-9.34-4.02-14.44-1.53-5.1-3.13-10.26-4.78-15.49-3.7-9.95-8.7-19.76-15.02-29.46-6.31-9.69-13.93-19-22.86-27.93l-27.93-27.73c-4.34-5.23-9.06-10.23-14.15-15.02-5.1-4.78-10.59-9.4-16.45-13.87-36.73-27.54-82.12-41.32-136.19-41.32h-1.91c-34.69,2.93-66.47,7.97-95.35,15.11-28.88,7.14-54.8,16.26-77.75,27.35-19.89,7.65-40.62,16.83-62.17,27.54-21.55,10.71-42.78,22.64-63.69,35.77,2.42,16.71,4.97,34.11,7.65,52.22,2.68,18.11,5.42,36.47,8.23,55.09,2.8,18.62,5.51,36.92,8.13,54.9,2.61,17.98,5.19,35.32,7.75,52.03,1.27,12.12,2.58,24.74,3.92,37.87,1.34,13.14,2.64,26.4,3.92,39.79,1.27,13.39,2.55,26.65,3.83,39.79,1.27,13.14,2.49,25.82,3.63,38.06l7.46,111.13c.25,0,.41-.03,.48-.1,.06-.07,.22-.1,.48-.1l37.87,37.87c30.73-3.95,61.14-10.23,91.24-18.84,30.09-8.61,60.19-19.61,90.28-33l37.3-21.42c75.11-43.36,138.8-106.03,191.08-188.02,5.74-11.6,10.33-21.45,13.77-29.55,3.44-8.1,5.93-14.57,7.46-19.41l.19,.19c14.15-36.47,21.23-72.49,21.23-108.07,0-2.3-.32-5.23-.96-8.8-.64-3.57-1.53-7.62-2.68-12.15Zm-314.65,157.9c-2.29-12.5-4.27-25.22-5.93-38.16-1.66-12.94-3.19-26.3-4.59-40.07,28.18-23.21,64.97-34.81,110.37-34.81h6.89c.25,29.07-35.32,66.76-106.73,113.04Z"/><path class="cls-1" d="M2981.05,1964.49c-8.03-23.72-24.93-45.33-50.69-64.84-32.52-24.35-73.32-36.53-122.42-36.53-67.46,5.48-122.86,19.06-166.22,40.74-40.17,14.92-76.77,32.77-109.79,53.56l29.65,199.5c5.61,51.77,10.77,103.99,15.49,156.66l5.93,87.41c43.23-5.48,93.34-20.98,150.34-46.48l36.53-21.04c71.79-41.32,132.81-101.44,183.05-180.37,13.13-27.29,19.7-42.27,19.7-44.95,13.13-33.92,19.7-67.26,19.7-100.04,0-7.01-3.76-21.55-11.29-43.61Z"/><path class="cls-3" d="M2847.64,2036.92c-7.78-30.6-26.97-49.6-57.57-57-60.83-2.04-108.9,13.96-144.22,48.01,5.61,65.29,16.26,124.27,31.94,176.93,116.68-66.82,173.3-122.8,169.85-167.94Z"/></g></g></g></g></svg>