<?xml version="1.0" encoding="utf-8"?>
<!-- Generator: Adobe Illustrator 27.5.0, SVG Export Plug-In . SVG Version: 6.00 Build 0)  -->
<svg version="1.1" xmlns="http://www.w3.org/2000/svg" xmlns:xlink="http://www.w3.org/1999/xlink" x="0px" y="0px"
	 viewBox="0 0 800 800" id="planche" style="enable-background:new 0 0 800 800;" xml:space="preserve">
<g id="background">
	
		<radialGradient id="SVGID_2_" cx="300.8109" cy="413.2646" r="215.048" gradientTransform="matrix(3.7037 0 0 3.7037 -698.8171 -1106.1178)" gradientUnits="userSpaceOnUse">
		<stop  offset="0.4462" style="stop-color:#FFFFFF"/>
		<stop  offset="0.6473" style="stop-color:#FAFCFD"/>
		<stop  offset="0.8881" style="stop-color:#EBF1F9"/>
		<stop  offset="1" style="stop-color:#E2EBF6"/>
	</radialGradient>
	<rect style="fill:url(#SVGID_2_);" width="800" height="800"/>
</g>
<g id="objects">
	
		<radialGradient id="SVGID_00000181086615892684146950000010524368535677658260_" cx="890.8186" cy="1268.6635" r="4.8875" gradientTransform="matrix(63.9272 0 0 5.2159 -56548.0781 -5897.7358)" gradientUnits="userSpaceOnUse">
		<stop  offset="0" style="stop-color:#6C6F71"/>
		<stop  offset="0.0797" style="stop-color:#878A8B"/>
		<stop  offset="0.2062" style="stop-color:#ACADAF"/>
		<stop  offset="0.3391" style="stop-color:#CACBCC"/>
		<stop  offset="0.4783" style="stop-color:#E1E2E2"/>
		<stop  offset="0.6267" style="stop-color:#F2F2F2"/>
		<stop  offset="0.7906" style="stop-color:#FCFCFC"/>
		<stop  offset="1" style="stop-color:#FFFFFF"/>
	</radialGradient>
	<path style="opacity:0.3;fill:url(#SVGID_00000181086615892684146950000010524368535677658260_);" d="M711.898,719.481
		c0,14.084-139.888,25.499-312.452,25.499c-172.571,0-312.423-11.415-312.423-25.499c0-14.077,139.852-25.488,312.423-25.488
		C572.011,693.992,711.898,705.403,711.898,719.481z"/>
	<g>
		<g>
			<g>
				<path style="fill:#56230D;" d="M288.494,778.672v-0.258c-0.347,0.398-0.694,0.724-1.035,0.974
					c-0.333,0.249-0.702,0.441-1.1,0.567c-0.398,0.134-0.824,0.195-1.295,0.195c-0.622,0-1.194-0.13-1.729-0.391
					c-0.528-0.264-0.984-0.637-1.367-1.128c-0.391-0.485-0.68-1.057-0.883-1.718c-0.195-0.659-0.296-1.371-0.296-2.138
					c0-1.621,0.398-2.883,1.187-3.791c0.788-0.904,1.83-1.357,3.125-1.357c0.745,0,1.374,0.127,1.888,0.387
					c0.513,0.254,1.013,0.651,1.504,1.18v-3.827c0-0.535,0.101-0.933,0.318-1.208c0.209-0.268,0.514-0.404,0.904-0.404
					c0.391,0,0.694,0.123,0.911,0.376c0.21,0.249,0.318,0.614,0.318,1.107v11.434c0,0.495-0.116,0.864-0.347,1.109
					c-0.231,0.246-0.521,0.369-0.882,0.369c-0.354,0-0.644-0.123-0.875-0.383C288.609,779.514,288.494,779.146,288.494,778.672z
					 M283.394,774.863c0,0.701,0.109,1.302,0.326,1.793c0.217,0.496,0.521,0.868,0.897,1.114c0.383,0.253,0.796,0.38,1.244,0.38
					c0.456,0,0.875-0.119,1.251-0.357c0.376-0.235,0.673-0.601,0.897-1.093c0.231-0.492,0.34-1.106,0.34-1.837
					c0-0.691-0.109-1.284-0.34-1.783c-0.224-0.496-0.528-0.872-0.911-1.14c-0.384-0.261-0.803-0.391-1.259-0.391
					c-0.47,0-0.897,0.134-1.266,0.401c-0.376,0.272-0.666,0.654-0.875,1.161C283.495,773.611,283.394,774.197,283.394,774.863z"/>
				<path style="fill:#56230D;" d="M299.923,775.521h-5.071c0.007,0.586,0.123,1.106,0.362,1.555
					c0.224,0.448,0.535,0.789,0.919,1.017c0.383,0.228,0.803,0.344,1.266,0.344c0.311,0,0.593-0.036,0.854-0.108
					c0.253-0.076,0.506-0.189,0.745-0.348c0.239-0.152,0.463-0.318,0.665-0.495c0.203-0.178,0.463-0.424,0.789-0.724
					c0.13-0.112,0.318-0.17,0.571-0.17c0.261,0,0.478,0.072,0.644,0.217c0.159,0.148,0.246,0.351,0.246,0.618
					c0,0.235-0.094,0.507-0.275,0.821c-0.189,0.315-0.463,0.615-0.832,0.904c-0.369,0.289-0.839,0.528-1.396,0.716
					c-0.565,0.188-1.208,0.282-1.932,0.282c-1.664,0-2.966-0.47-3.884-1.421c-0.926-0.951-1.389-2.239-1.389-3.866
					c0-0.768,0.108-1.477,0.34-2.135c0.231-0.654,0.564-1.215,0.999-1.685c0.434-0.466,0.977-0.824,1.613-1.077
					c0.644-0.246,1.353-0.376,2.126-0.376c1.013,0,1.881,0.217,2.611,0.644c0.724,0.427,1.266,0.979,1.628,1.656
					c0.361,0.677,0.542,1.367,0.542,2.069c0,0.654-0.188,1.077-0.564,1.27C301.131,775.42,300.603,775.521,299.923,775.521z
					 M294.852,774.045h4.702c-0.058-0.882-0.304-1.548-0.716-1.989c-0.419-0.441-0.962-0.658-1.635-0.658
					c-0.651,0-1.179,0.225-1.599,0.666C295.192,772.512,294.946,773.17,294.852,774.045z"/>
				<path style="fill:#56230D;" d="M311.736,776.762c0,0.713-0.166,1.327-0.52,1.837c-0.347,0.511-0.861,0.898-1.541,1.161
					c-0.68,0.261-1.504,0.391-2.481,0.391c-0.934,0-1.729-0.141-2.395-0.427c-0.665-0.282-1.157-0.64-1.476-1.063
					c-0.311-0.434-0.477-0.86-0.477-1.291c0-0.285,0.108-0.528,0.311-0.73c0.203-0.199,0.456-0.3,0.767-0.3
					c0.275,0,0.485,0.064,0.629,0.195c0.145,0.134,0.282,0.321,0.413,0.561c0.268,0.466,0.586,0.807,0.962,1.038
					c0.362,0.224,0.868,0.34,1.512,0.34c0.521,0,0.948-0.116,1.273-0.348c0.332-0.231,0.499-0.495,0.499-0.796
					c0-0.455-0.167-0.784-0.514-0.99c-0.347-0.21-0.912-0.413-1.707-0.601c-0.89-0.225-1.621-0.456-2.177-0.702
					c-0.565-0.238-1.013-0.563-1.346-0.962c-0.333-0.397-0.506-0.89-0.506-1.472c0-0.517,0.159-1.01,0.47-1.473
					c0.311-0.463,0.767-0.832,1.375-1.107c0.6-0.275,1.331-0.412,2.185-0.412c0.673,0,1.273,0.068,1.808,0.209
					c0.536,0.138,0.984,0.326,1.338,0.561c0.362,0.232,0.637,0.491,0.817,0.777c0.188,0.282,0.282,0.564,0.282,0.835
					c0,0.297-0.101,0.539-0.296,0.734c-0.203,0.188-0.485,0.282-0.854,0.282c-0.268,0-0.492-0.076-0.68-0.231
					c-0.181-0.148-0.398-0.376-0.637-0.68c-0.195-0.253-0.427-0.456-0.694-0.607c-0.268-0.152-0.629-0.229-1.085-0.229
					c-0.47,0-0.853,0.098-1.164,0.301c-0.312,0.195-0.47,0.448-0.47,0.745c0,0.271,0.116,0.491,0.347,0.665
					c0.224,0.178,0.528,0.322,0.918,0.435c0.383,0.115,0.919,0.253,1.599,0.419c0.803,0.195,1.454,0.427,1.968,0.702
					c0.506,0.271,0.897,0.593,1.157,0.962C311.613,775.864,311.736,776.288,311.736,776.762z"/>
				<path style="fill:#56230D;" d="M314.391,768.403c-0.361,0-0.672-0.108-0.926-0.333c-0.26-0.217-0.383-0.535-0.383-0.94
					c0-0.365,0.13-0.665,0.391-0.904c0.26-0.239,0.571-0.358,0.918-0.358c0.333,0,0.629,0.106,0.89,0.322
					c0.26,0.217,0.391,0.528,0.391,0.94c0,0.401-0.123,0.713-0.376,0.937C315.042,768.291,314.738,768.403,314.391,768.403z
					 M315.671,771.079v7.495c0,0.521-0.123,0.914-0.369,1.179c-0.246,0.268-0.557,0.397-0.94,0.397s-0.687-0.13-0.926-0.404
					c-0.239-0.275-0.355-0.666-0.355-1.172v-7.415c0-0.514,0.116-0.897,0.355-1.157c0.239-0.261,0.542-0.391,0.926-0.391
					s0.695,0.13,0.94,0.391C315.548,770.262,315.671,770.624,315.671,771.079z"/>
				<path style="fill:#56230D;" d="M327.028,771.51v7.534c0,0.86-0.087,1.599-0.275,2.221c-0.181,0.622-0.478,1.136-0.882,1.541
					c-0.405,0.401-0.933,0.701-1.592,0.896c-0.658,0.203-1.468,0.297-2.445,0.297c-0.89,0-1.693-0.123-2.395-0.376
					c-0.702-0.25-1.244-0.571-1.627-0.97c-0.376-0.393-0.565-0.799-0.565-1.215c0-0.318,0.109-0.579,0.326-0.774
					c0.21-0.202,0.47-0.304,0.774-0.304c0.376,0,0.716,0.167,0.999,0.507c0.137,0.166,0.282,0.34,0.434,0.514
					c0.145,0.181,0.311,0.325,0.492,0.448c0.181,0.123,0.398,0.217,0.651,0.274c0.253,0.059,0.543,0.095,0.875,0.095
					c0.673,0,1.194-0.095,1.563-0.282c0.369-0.189,0.629-0.449,0.781-0.785c0.145-0.336,0.231-0.69,0.26-1.078
					c0.022-0.383,0.044-0.998,0.058-1.848c-0.405,0.557-0.861,0.983-1.389,1.272c-0.521,0.29-1.143,0.439-1.866,0.439
					c-0.861,0-1.62-0.221-2.271-0.666c-0.651-0.445-1.15-1.06-1.497-1.862c-0.348-0.796-0.521-1.719-0.521-2.764
					c0-0.774,0.108-1.483,0.318-2.105c0.21-0.63,0.514-1.158,0.904-1.592c0.397-0.427,0.846-0.752,1.36-0.97
					c0.514-0.221,1.078-0.329,1.692-0.329c0.731,0,1.367,0.142,1.91,0.424c0.535,0.281,1.034,0.723,1.497,1.323v-0.351
					c0-0.448,0.109-0.8,0.333-1.045c0.224-0.246,0.506-0.369,0.853-0.369c0.499,0,0.832,0.162,0.998,0.488
					C326.949,770.429,327.028,770.898,327.028,771.51z M319.52,774.798c0,1.049,0.225,1.845,0.688,2.38
					c0.456,0.542,1.049,0.811,1.779,0.811c0.434,0,0.839-0.116,1.223-0.348c0.383-0.231,0.694-0.579,0.933-1.045
					c0.239-0.467,0.362-1.031,0.362-1.697c0-1.056-0.231-1.88-0.694-2.466c-0.47-0.586-1.078-0.883-1.845-0.883
					c-0.738,0-1.331,0.282-1.78,0.847C319.744,772.957,319.52,773.756,319.52,774.798z"/>
				<path style="fill:#56230D;" d="M331.152,771.043v0.315c0.456-0.604,0.954-1.046,1.497-1.328
					c0.543-0.278,1.165-0.419,1.867-0.419c0.68,0,1.295,0.148,1.83,0.448c0.535,0.297,0.94,0.716,1.208,1.259
					c0.167,0.318,0.282,0.658,0.333,1.027c0.051,0.369,0.073,0.839,0.073,1.406v4.822c0,0.521-0.116,0.914-0.355,1.179
					c-0.239,0.268-0.543,0.397-0.926,0.397s-0.694-0.13-0.94-0.404c-0.239-0.275-0.361-0.666-0.361-1.172v-4.319
					c0-0.853-0.116-1.508-0.354-1.96c-0.239-0.452-0.709-0.68-1.418-0.68c-0.463,0-0.882,0.137-1.266,0.412
					c-0.376,0.275-0.658,0.654-0.832,1.136c-0.13,0.383-0.195,1.106-0.195,2.163v3.248c0,0.527-0.123,0.922-0.362,1.186
					c-0.246,0.261-0.564,0.391-0.948,0.391c-0.376,0-0.68-0.13-0.918-0.404c-0.239-0.275-0.362-0.666-0.362-1.172v-7.495
					c0-0.491,0.108-0.86,0.318-1.106c0.217-0.238,0.514-0.361,0.89-0.361c0.224,0,0.427,0.051,0.615,0.159
					c0.181,0.108,0.333,0.271,0.441,0.484C331.094,770.472,331.152,770.732,331.152,771.043z"/>
				<path style="fill:#56230D;" d="M346.929,775.521h-5.078c0.015,0.586,0.13,1.106,0.362,1.555
					c0.231,0.448,0.535,0.789,0.918,1.017c0.384,0.228,0.811,0.344,1.266,0.344c0.311,0,0.593-0.036,0.853-0.108
					c0.253-0.076,0.506-0.189,0.745-0.348c0.239-0.152,0.463-0.318,0.665-0.495c0.203-0.178,0.463-0.424,0.789-0.724
					c0.13-0.112,0.326-0.17,0.571-0.17c0.26,0,0.478,0.072,0.644,0.217c0.166,0.148,0.246,0.351,0.246,0.618
					c0,0.235-0.086,0.507-0.275,0.821c-0.181,0.315-0.463,0.615-0.831,0.904c-0.369,0.289-0.839,0.528-1.397,0.716
					c-0.557,0.188-1.208,0.282-1.931,0.282c-1.664,0-2.959-0.47-3.885-1.421c-0.926-0.951-1.389-2.239-1.389-3.866
					c0-0.768,0.116-1.477,0.34-2.135c0.231-0.654,0.564-1.215,0.998-1.685c0.441-0.466,0.977-0.824,1.621-1.077
					c0.637-0.246,1.346-0.376,2.127-0.376c1.013,0,1.88,0.217,2.604,0.644c0.724,0.427,1.266,0.979,1.627,1.656
					c0.362,0.677,0.543,1.367,0.543,2.069c0,0.654-0.188,1.077-0.557,1.27C348.129,775.42,347.602,775.521,346.929,775.521z
					 M341.851,774.045h4.709c-0.065-0.882-0.304-1.548-0.723-1.989c-0.412-0.441-0.955-0.658-1.635-0.658
					c-0.644,0-1.179,0.225-1.591,0.666C342.19,772.512,341.945,773.17,341.851,774.045z"/>
				<path style="fill:#56230D;" d="M357.498,778.672v-0.258c-0.354,0.398-0.695,0.724-1.035,0.974
					c-0.34,0.249-0.702,0.441-1.1,0.567c-0.391,0.134-0.824,0.195-1.295,0.195c-0.622,0-1.193-0.13-1.722-0.391
					c-0.528-0.264-0.991-0.637-1.374-1.128c-0.384-0.485-0.68-1.057-0.875-1.718c-0.203-0.659-0.304-1.371-0.304-2.138
					c0-1.621,0.398-2.883,1.186-3.791c0.789-0.904,1.838-1.357,3.125-1.357c0.752,0,1.382,0.127,1.896,0.387
					c0.506,0.254,1.013,0.651,1.498,1.18v-3.827c0-0.535,0.108-0.933,0.318-1.208c0.21-0.268,0.513-0.404,0.904-0.404
					c0.398,0,0.695,0.123,0.912,0.376c0.21,0.249,0.318,0.614,0.318,1.107v11.434c0,0.495-0.116,0.864-0.347,1.109
					c-0.224,0.246-0.521,0.369-0.883,0.369c-0.354,0-0.643-0.123-0.875-0.383C357.613,779.514,357.498,779.146,357.498,778.672z
					 M352.397,774.863c0,0.701,0.108,1.302,0.326,1.793c0.217,0.496,0.521,0.868,0.897,1.114c0.383,0.253,0.796,0.38,1.244,0.38
					c0.456,0,0.875-0.119,1.251-0.357c0.376-0.235,0.68-0.601,0.904-1.093s0.332-1.106,0.332-1.837c0-0.691-0.108-1.284-0.332-1.783
					c-0.224-0.496-0.535-0.872-0.912-1.14c-0.383-0.261-0.803-0.391-1.259-0.391c-0.477,0-0.904,0.134-1.273,0.401
					c-0.376,0.272-0.666,0.654-0.868,1.161C352.499,773.611,352.397,774.197,352.397,774.863z"/>
				<path style="fill:#56230D;" d="M368.095,767.238v3.957c0.484-0.507,0.984-0.897,1.49-1.165c0.507-0.268,1.136-0.401,1.881-0.401
					c0.861,0,1.613,0.206,2.265,0.611c0.651,0.412,1.157,1.002,1.512,1.779c0.354,0.774,0.535,1.693,0.535,2.757
					c0,0.788-0.101,1.504-0.296,2.162c-0.203,0.655-0.492,1.223-0.868,1.704c-0.383,0.48-0.839,0.854-1.382,1.117
					c-0.543,0.261-1.143,0.391-1.794,0.391c-0.398,0-0.774-0.043-1.121-0.141c-0.354-0.094-0.651-0.221-0.897-0.373
					c-0.253-0.159-0.463-0.318-0.637-0.48c-0.174-0.163-0.405-0.412-0.687-0.742v0.258c0,0.488-0.116,0.856-0.354,1.109
					c-0.231,0.246-0.528,0.369-0.89,0.369c-0.369,0-0.665-0.123-0.875-0.369c-0.224-0.253-0.333-0.621-0.333-1.109v-11.321
					c0-0.524,0.109-0.923,0.318-1.19c0.217-0.272,0.514-0.404,0.89-0.404c0.398,0,0.709,0.13,0.919,0.383
					C367.986,766.399,368.095,766.761,368.095,767.238z M368.218,774.942c0,1.027,0.239,1.823,0.709,2.373
					c0.47,0.557,1.085,0.835,1.859,0.835c0.651,0,1.208-0.285,1.686-0.85c0.47-0.568,0.702-1.382,0.702-2.438
					c0-0.684-0.094-1.273-0.289-1.766c-0.195-0.495-0.478-0.875-0.839-1.147c-0.362-0.268-0.781-0.401-1.259-0.401
					c-0.499,0-0.94,0.134-1.324,0.401c-0.383,0.272-0.688,0.658-0.912,1.168C368.327,773.629,368.218,774.237,368.218,774.942z"/>
				<path style="fill:#56230D;" d="M379.141,780.477l0.239-0.579l-3.197-8.037c-0.188-0.463-0.289-0.795-0.289-1.005
					c0-0.225,0.058-0.427,0.167-0.615c0.116-0.195,0.275-0.347,0.47-0.459c0.203-0.112,0.412-0.17,0.629-0.17
					c0.369,0,0.651,0.115,0.839,0.354c0.189,0.238,0.362,0.578,0.506,1.02l2.192,6.384l2.083-5.935
					c0.167-0.48,0.311-0.857,0.449-1.128c0.13-0.275,0.268-0.456,0.419-0.55c0.145-0.098,0.362-0.145,0.629-0.145
					c0.195,0,0.383,0.051,0.564,0.159c0.181,0.101,0.318,0.242,0.419,0.419c0.102,0.178,0.152,0.362,0.152,0.56
					c-0.029,0.12-0.072,0.293-0.13,0.514c-0.058,0.221-0.123,0.445-0.203,0.677l-3.385,8.847c-0.289,0.781-0.579,1.389-0.854,1.834
					c-0.282,0.445-0.651,0.785-1.107,1.023c-0.463,0.238-1.078,0.355-1.859,0.355c-0.759,0-1.331-0.079-1.707-0.246
					c-0.383-0.166-0.571-0.467-0.571-0.904c0-0.296,0.087-0.528,0.268-0.686c0.188-0.159,0.448-0.246,0.803-0.246
					c0.145,0,0.275,0.021,0.413,0.061c0.167,0.036,0.304,0.054,0.427,0.054c0.296,0,0.528-0.043,0.702-0.13
					c0.174-0.087,0.326-0.242,0.463-0.463C378.809,781.222,378.96,780.903,379.141,780.477z"/>
			</g>
			<g>
				<path style="fill:#56230D;" d="M416.707,769.835h0.614v-0.781c0-0.81,0.102-1.454,0.311-1.935
					c0.195-0.481,0.549-0.828,1.041-1.045c0.492-0.218,1.165-0.326,2.019-0.326c1.518,0,2.272,0.369,2.272,1.114
					c0,0.238-0.079,0.444-0.239,0.614c-0.151,0.171-0.347,0.254-0.557,0.254c-0.102,0-0.281-0.015-0.527-0.059
					c-0.239-0.028-0.456-0.058-0.623-0.058c-0.47,0-0.767,0.144-0.904,0.42c-0.13,0.274-0.202,0.665-0.202,1.183v0.618h0.637
					c0.991,0,1.483,0.297,1.483,0.897c0,0.416-0.131,0.688-0.391,0.803c-0.261,0.116-0.63,0.17-1.093,0.17h-0.637v6.869
					c0,0.513-0.116,0.903-0.362,1.172c-0.245,0.274-0.557,0.404-0.947,0.404c-0.369,0-0.665-0.13-0.918-0.404
					c-0.239-0.269-0.362-0.659-0.362-1.172v-6.869h-0.716c-0.384,0-0.68-0.083-0.89-0.264c-0.21-0.167-0.318-0.398-0.318-0.673
					C415.397,770.143,415.838,769.835,416.707,769.835"/>
				<path style="fill:#56230D;" d="M425.191,776.411v2.163c0,0.527-0.13,0.922-0.375,1.183c-0.246,0.264-0.558,0.394-0.934,0.394
					c-0.384,0-0.688-0.13-0.926-0.397c-0.239-0.268-0.362-0.658-0.362-1.179v-7.22c0-1.165,0.42-1.751,1.259-1.751
					c0.434,0,0.745,0.138,0.934,0.412c0.195,0.271,0.297,0.673,0.318,1.205c0.31-0.532,0.621-0.934,0.947-1.205
					c0.333-0.274,0.767-0.412,1.31-0.412c0.55,0,1.077,0.138,1.584,0.412c0.514,0.271,0.774,0.637,0.774,1.082
					c0,0.314-0.109,0.582-0.326,0.781c-0.225,0.21-0.455,0.315-0.709,0.315c-0.094,0-0.332-0.065-0.694-0.181
					c-0.361-0.116-0.686-0.174-0.954-0.174c-0.384,0-0.695,0.102-0.934,0.297c-0.246,0.206-0.434,0.499-0.564,0.89
					c-0.13,0.391-0.217,0.861-0.275,1.403C425.214,774.972,425.191,775.63,425.191,776.411"/>
				<path style="fill:#56230D;" d="M437.113,775.514h-5.078c0.015,0.59,0.131,1.114,0.354,1.563
					c0.239,0.445,0.542,0.785,0.933,1.017c0.384,0.228,0.804,0.336,1.267,0.336c0.311,0,0.593-0.028,0.847-0.108
					c0.253-0.072,0.506-0.188,0.744-0.34c0.246-0.152,0.463-0.318,0.666-0.499c0.203-0.177,0.471-0.42,0.789-0.724
					c0.137-0.112,0.324-0.174,0.57-0.174c0.268,0,0.485,0.076,0.651,0.225c0.167,0.145,0.239,0.348,0.239,0.615
					c0,0.238-0.087,0.51-0.268,0.82c-0.189,0.318-0.463,0.619-0.832,0.908c-0.377,0.282-0.84,0.528-1.397,0.713
					c-0.564,0.191-1.208,0.285-1.932,0.285c-1.678,0-2.966-0.47-3.892-1.421c-0.926-0.951-1.389-2.243-1.389-3.866
					c0-0.768,0.116-1.479,0.347-2.135c0.225-0.658,0.558-1.219,0.998-1.689c0.435-0.474,0.97-0.829,1.613-1.082
					c0.637-0.246,1.346-0.372,2.127-0.372c1.014,0,1.881,0.213,2.604,0.648c0.724,0.419,1.273,0.977,1.628,1.652
					c0.361,0.681,0.542,1.367,0.542,2.073c0,0.65-0.181,1.07-0.557,1.266C438.314,775.42,437.793,775.514,437.113,775.514
					 M432.035,774.042h4.709c-0.064-0.887-0.304-1.552-0.716-1.986c-0.419-0.441-0.962-0.661-1.642-0.661
					c-0.645,0-1.18,0.221-1.592,0.669C432.383,772.512,432.122,773.17,432.035,774.042"/>
				<path style="fill:#56230D;" d="M447.898,775.514h-5.07c0.008,0.59,0.123,1.114,0.354,1.563c0.232,0.445,0.535,0.785,0.919,1.017
					c0.383,0.228,0.803,0.336,1.273,0.336c0.303,0,0.593-0.028,0.846-0.108c0.254-0.072,0.506-0.188,0.745-0.34
					c0.246-0.152,0.463-0.318,0.665-0.499c0.203-0.177,0.471-0.42,0.789-0.724c0.137-0.112,0.325-0.174,0.571-0.174
					c0.268,0,0.485,0.076,0.651,0.225c0.166,0.145,0.238,0.348,0.238,0.615c0,0.238-0.086,0.51-0.275,0.82
					c-0.174,0.318-0.456,0.619-0.832,0.908c-0.369,0.282-0.839,0.528-1.39,0.713c-0.564,0.191-1.207,0.285-1.938,0.285
					c-1.664,0-2.959-0.47-3.885-1.421c-0.926-0.951-1.389-2.243-1.389-3.866c0-0.768,0.115-1.479,0.347-2.135
					c0.224-0.658,0.558-1.219,0.998-1.689c0.435-0.474,0.97-0.829,1.613-1.082c0.637-0.246,1.346-0.372,2.127-0.372
					c1.005,0,1.874,0.213,2.611,0.648c0.724,0.419,1.266,0.977,1.62,1.652c0.361,0.681,0.543,1.367,0.543,2.073
					c0,0.65-0.189,1.07-0.557,1.266C449.1,775.42,448.579,775.514,447.898,775.514 M442.828,774.042h4.702
					c-0.065-0.887-0.304-1.552-0.716-1.986c-0.42-0.441-0.963-0.661-1.643-0.661c-0.645,0-1.172,0.221-1.592,0.669
					C443.168,772.512,442.915,773.17,442.828,774.042"/>
				<path style="fill:#56230D;" d="M453.585,771.065v0.311c0.484-0.601,0.991-1.042,1.518-1.323c0.522-0.29,1.121-0.428,1.787-0.428
					c0.796,0,1.533,0.207,2.199,0.615c0.673,0.412,1.201,1.017,1.592,1.809c0.391,0.796,0.586,1.728,0.586,2.814
					c0,0.795-0.109,1.529-0.333,2.198c-0.225,0.669-0.542,1.23-0.933,1.679c-0.391,0.452-0.855,0.803-1.39,1.049
					c-0.542,0.238-1.106,0.361-1.722,0.361c-0.738,0-1.367-0.148-1.866-0.448c-0.507-0.289-0.983-0.73-1.439-1.302v3.892
					c0,1.136-0.42,1.707-1.244,1.707c-0.492,0-0.811-0.145-0.977-0.438c-0.152-0.3-0.232-0.724-0.232-1.291v-11.194
					c0-0.496,0.108-0.857,0.318-1.107c0.217-0.238,0.514-0.365,0.89-0.365c0.368,0,0.658,0.127,0.89,0.377
					C453.469,770.233,453.585,770.588,453.585,771.065 M458.663,774.834c0-0.688-0.108-1.273-0.311-1.766
					c-0.209-0.491-0.499-0.867-0.867-1.128c-0.369-0.261-0.781-0.397-1.23-0.397c-0.716,0-1.324,0.285-1.809,0.846
					c-0.492,0.564-0.744,1.397-0.744,2.492c0,1.027,0.245,1.834,0.737,2.405c0.491,0.575,1.085,0.86,1.815,0.86
					c0.427,0,0.832-0.126,1.193-0.376c0.369-0.249,0.666-0.622,0.883-1.125C458.555,776.144,458.663,775.539,458.663,774.834"/>
				<path style="fill:#56230D;" d="M463.879,768.396c-0.361,0-0.666-0.112-0.919-0.333c-0.261-0.224-0.391-0.531-0.391-0.933
					c0-0.372,0.13-0.673,0.398-0.911c0.261-0.235,0.564-0.354,0.912-0.354c0.34,0,0.637,0.1,0.897,0.318
					c0.261,0.217,0.391,0.535,0.391,0.947c0,0.397-0.13,0.709-0.376,0.933C464.537,768.283,464.232,768.396,463.879,768.396
					 M465.166,771.076v7.505c0,0.514-0.123,0.904-0.376,1.172c-0.246,0.268-0.558,0.397-0.94,0.397c-0.376,0-0.68-0.13-0.926-0.404
					c-0.231-0.275-0.355-0.666-0.355-1.165v-7.429c0-0.514,0.123-0.897,0.355-1.158c0.246-0.26,0.55-0.391,0.926-0.391
					c0.383,0,0.694,0.131,0.94,0.391C465.043,770.255,465.166,770.616,465.166,771.076"/>
				<path style="fill:#56230D;" d="M473.521,778.965l-2.279-3.762l-1.41,1.327v2.065c0,0.499-0.13,0.882-0.398,1.15
					c-0.252,0.274-0.564,0.404-0.903,0.404c-0.398,0-0.716-0.13-0.94-0.397c-0.225-0.268-0.348-0.658-0.348-1.179v-11.061
					c0-0.572,0.116-1.014,0.333-1.317c0.224-0.304,0.55-0.448,0.955-0.448c0.397,0,0.708,0.138,0.947,0.412
					c0.239,0.267,0.355,0.673,0.355,1.201v6.293l2.915-3.063c0.362-0.376,0.637-0.64,0.832-0.777c0.181-0.138,0.413-0.21,0.688-0.21
					c0.325,0,0.593,0.105,0.81,0.311c0.21,0.202,0.326,0.463,0.326,0.773c0,0.377-0.354,0.89-1.057,1.52l-1.374,1.263l2.655,4.185
					c0.195,0.311,0.34,0.542,0.426,0.701c0.088,0.163,0.131,0.326,0.131,0.463c0,0.413-0.116,0.738-0.348,0.977
					c-0.225,0.239-0.52,0.354-0.883,0.354c-0.311,0-0.564-0.079-0.73-0.257C474.049,779.724,473.818,779.413,473.521,778.965"/>
				<path style="fill:#56230D;" d="M479.156,780.15c-0.391,0-0.723-0.123-1.013-0.383c-0.282-0.246-0.427-0.601-0.427-1.063
					c0-0.384,0.138-0.716,0.412-0.991c0.275-0.282,0.607-0.42,1.006-0.42c0.398,0,0.738,0.138,1.027,0.413
					c0.275,0.274,0.42,0.61,0.42,0.998c0,0.456-0.145,0.81-0.42,1.063C479.873,780.027,479.54,780.15,479.156,780.15"/>
				<path style="fill:#56230D;" d="M492.061,776.938c0,0.326-0.101,0.673-0.296,1.035c-0.189,0.372-0.485,0.72-0.883,1.052
					c-0.398,0.33-0.891,0.604-1.498,0.804c-0.6,0.202-1.279,0.308-2.025,0.308c-1.605,0-2.857-0.471-3.762-1.404
					c-0.896-0.933-1.346-2.188-1.346-3.758c0-1.066,0.203-2.007,0.623-2.824c0.404-0.815,0.998-1.447,1.779-1.896
					c0.773-0.448,1.715-0.669,2.792-0.669c0.673,0,1.288,0.098,1.853,0.293c0.564,0.195,1.034,0.455,1.425,0.76
					c0.391,0.318,0.687,0.644,0.89,0.994c0.21,0.351,0.311,0.68,0.311,0.987c0,0.308-0.115,0.571-0.347,0.789
					c-0.231,0.209-0.514,0.321-0.839,0.321c-0.217,0-0.398-0.054-0.535-0.166c-0.145-0.112-0.311-0.289-0.485-0.539
					c-0.311-0.482-0.644-0.847-0.991-1.081c-0.347-0.243-0.781-0.362-1.316-0.362c-0.76,0-1.381,0.297-1.852,0.898
					c-0.471,0.597-0.701,1.421-0.701,2.456c0,0.484,0.057,0.94,0.18,1.345c0.116,0.405,0.29,0.756,0.522,1.042
					c0.231,0.289,0.499,0.506,0.824,0.658c0.326,0.152,0.68,0.225,1.064,0.225c0.521,0,0.97-0.123,1.339-0.362
					c0.376-0.238,0.701-0.607,0.983-1.1c0.159-0.293,0.333-0.521,0.514-0.687c0.181-0.159,0.405-0.246,0.673-0.246
					c0.318,0,0.578,0.123,0.788,0.361C491.953,776.411,492.061,776.671,492.061,776.938"/>
				<path style="fill:#56230D;" d="M503.252,774.881c0,0.771-0.123,1.486-0.354,2.138c-0.254,0.651-0.594,1.215-1.057,1.678
					c-0.455,0.471-0.998,0.829-1.627,1.082c-0.645,0.249-1.353,0.372-2.142,0.372c-0.788,0-1.49-0.123-2.12-0.383
					c-0.621-0.246-1.172-0.611-1.627-1.078c-0.463-0.478-0.811-1.034-1.057-1.678c-0.225-0.645-0.347-1.354-0.347-2.131
					c0-0.785,0.122-1.508,0.361-2.159c0.239-0.651,0.586-1.212,1.034-1.671c0.456-0.463,0.998-0.817,1.635-1.07
					c0.645-0.25,1.346-0.377,2.12-0.377c0.781,0,1.497,0.127,2.142,0.384c0.636,0.253,1.179,0.614,1.642,1.078
					c0.456,0.478,0.803,1.03,1.042,1.671C503.129,773.387,503.252,774.096,503.252,774.881 M500.648,774.881
					c0-1.06-0.238-1.881-0.701-2.471c-0.464-0.593-1.093-0.89-1.874-0.89c-0.507,0-0.955,0.138-1.346,0.398
					c-0.384,0.26-0.68,0.648-0.882,1.164c-0.211,0.514-0.318,1.114-0.318,1.798c0,0.677,0.101,1.269,0.303,1.775
					c0.211,0.507,0.507,0.893,0.891,1.165c0.383,0.265,0.832,0.405,1.353,0.405c0.781,0,1.41-0.297,1.874-0.898
					C500.41,776.743,500.648,775.923,500.648,774.881"/>
				<path style="fill:#56230D;" d="M513.141,775.072v3.443c0,0.55-0.123,0.955-0.368,1.23c-0.253,0.274-0.571,0.404-0.977,0.404
					c-0.391,0-0.716-0.13-0.955-0.404c-0.246-0.275-0.369-0.681-0.369-1.23v-4.13c0-0.651-0.021-1.161-0.065-1.526
					c-0.043-0.352-0.166-0.651-0.361-0.883c-0.195-0.232-0.506-0.348-0.934-0.348c-0.846,0-1.402,0.29-1.678,0.879
					c-0.26,0.575-0.397,1.414-0.397,2.507v3.501c0,0.539-0.13,0.948-0.369,1.223c-0.246,0.275-0.565,0.412-0.962,0.412
					c-0.398,0-0.717-0.137-0.97-0.412c-0.253-0.274-0.376-0.684-0.376-1.223v-7.418c0-0.488,0.115-0.858,0.34-1.11
					c0.232-0.257,0.528-0.384,0.89-0.384c0.354,0,0.651,0.123,0.89,0.354c0.232,0.239,0.355,0.571,0.355,0.987v0.242
					c0.448-0.535,0.934-0.929,1.447-1.179c0.514-0.261,1.077-0.384,1.707-0.384c0.658,0,1.216,0.131,1.679,0.391
					c0.47,0.258,0.853,0.651,1.164,1.172c0.434-0.527,0.912-0.918,1.41-1.179c0.5-0.257,1.049-0.384,1.657-0.384
					c0.709,0,1.323,0.138,1.837,0.42c0.514,0.275,0.891,0.68,1.143,1.193c0.224,0.471,0.333,1.208,0.333,2.218v5.06
					c0,0.55-0.123,0.955-0.362,1.23c-0.253,0.274-0.579,0.404-0.983,0.404c-0.391,0-0.709-0.137-0.963-0.412
					c-0.253-0.274-0.376-0.684-0.376-1.223v-4.361c0-0.558-0.028-1.002-0.072-1.335c-0.043-0.337-0.173-0.622-0.384-0.85
					c-0.209-0.224-0.527-0.34-0.947-0.34c-0.348,0-0.665,0.105-0.977,0.305c-0.311,0.202-0.55,0.477-0.723,0.816
					C513.235,773.185,513.141,773.959,513.141,775.072"/>
			</g>
			<g>
				<path style="fill:#56230D;" d="M392.437,774.252c-0.007-0.004-0.007-0.012-0.007-0.019
					C392.43,774.24,392.43,774.248,392.437,774.252z"/>
				<path style="fill:#56230D;" d="M392.567,775.08L392.567,775.08c-0.051-0.232-0.087-0.471-0.116-0.702
					C392.48,774.613,392.517,774.849,392.567,775.08z"/>
				<path style="fill:#56230D;" d="M393.421,777.488c0-0.007-0.007-0.021-0.015-0.036
					C393.414,777.467,393.421,777.481,393.421,777.488z"/>
				<path style="fill:#56230D;" d="M393.341,777.329c-0.022-0.043-0.043-0.09-0.065-0.137
					C393.298,777.242,393.319,777.286,393.341,777.329z"/>
				<path style="fill:#56230D;" d="M392.806,776.006c0.13,0.405,0.282,0.788,0.456,1.161
					C393.088,776.787,392.936,776.4,392.806,776.006L392.806,776.006z"/>
				<path style="fill:#56230D;" d="M402.471,764.316c0.499,0,0.875,0.039,1.295,0.111l0.123-0.763c0,0-1.172-0.362-2.713-0.235
					l-0.123-0.416c0.477-0.102,0.839-0.528,0.839-1.034c0-0.579-0.47-1.049-1.056-1.049c-0.579,0-1.056,0.47-1.056,1.049
					c0,0.506,0.362,0.933,0.839,1.034l0.13,0.463c-1.627,0.225-2.93,0.861-2.93,0.861l0.224,0.709
					c0.991-0.33,1.852-0.528,2.626-0.615C401.435,764.352,402.008,764.316,402.471,764.316z"/>
				<path style="fill:#56230D;" d="M393.406,768.172l0.007-0.008c0.036-0.047,0.072-0.094,0.108-0.141l-0.311-0.225l-0.484-0.357
					c-0.029,0.039-0.796,0.744-1.403,2.047c-0.029-0.036-0.058-0.08-0.087-0.116c-0.188-0.202-0.441-0.304-0.767-0.296
					c0,0-0.007,0-0.014,0c-0.195,0-0.333-0.065-0.42-0.145c0.087-0.115,0.138-0.257,0.138-0.415c0-0.366-0.297-0.67-0.666-0.67
					c-0.369,0-0.665,0.304-0.665,0.67c0,0.372,0.296,0.669,0.665,0.669c0.058,0,0.116-0.008,0.167-0.022
					c0.166,0.185,0.427,0.344,0.81,0.337c0.195-0.004,0.34,0.047,0.434,0.155c0.108,0.123,0.152,0.297,0.159,0.427
					c0,0.004,0,0.008,0,0.008c-0.441,1.185-0.311,2.669-0.311,2.669l1.056,0.043c0.021-0.542,0.101-1.482,0.369-2.234
					C392.719,769.119,393.377,768.215,393.406,768.172z"/>
				<path style="fill:#56230D;" d="M411.672,765.198c-0.369,0-0.666,0.3-0.666,0.673c0,0.055,0.008,0.108,0.021,0.163
					c-0.188,0.162-0.34,0.427-0.34,0.81c0,0.199-0.043,0.34-0.151,0.438c-0.087,0.073-0.188,0.116-0.297,0.138
					c-0.788-1.1-1.758-1.772-1.758-1.772l-0.759,0.81c0.57,0.521,1.156,1.18,1.729,1.993c0.397,0.564,0.803,1.291,1.136,2.015
					l1.026-0.484c0,0-0.47-1.158-1.128-2.192c0.116-0.043,0.231-0.104,0.333-0.195c0.202-0.181,0.297-0.434,0.289-0.76
					c0-0.202,0.072-0.347,0.152-0.441c0.115,0.091,0.253,0.146,0.412,0.146c0.369,0,0.666-0.297,0.666-0.666
					C412.338,765.498,412.041,765.198,411.672,765.198z"/>
				<path style="fill:#56230D;" d="M409.018,774.399c-1.411,0.688-3.733,1.599-6.786,2.022c-1.193,0.166-2.358,0.228-3.429,0.228
					c-1.389,0-2.619-0.104-3.559-0.224c-1.078-0.135-1.917-0.301-2.438-0.42c0.13,0.394,0.282,0.781,0.456,1.161
					c0.007,0.011,0.007,0.018,0.015,0.025c0.021,0.047,0.043,0.094,0.065,0.137c0.022,0.044,0.044,0.087,0.065,0.123
					c0.007,0.015,0.015,0.029,0.015,0.036c0.304,0.572,0.673,1.093,1.085,1.549c1.439,1.576,2.908,1.822,2.922,1.826l0.022,0.004
					l0.021,0.007c0.015,0.007,1.31,0.427,3.292,0.427c1.946,0,3.856-0.394,5.671-1.172c1.352-0.688,2.626-1.736,3.255-2.669
					c0.492-0.724,0.84-1.49,1.049-2.293c0.116-0.427,0.203-1.107,0.145-1.823C410.492,773.611,409.863,773.987,409.018,774.399z"/>
				<path style="fill:#56230D;" d="M393.855,768.508c-0.036,0.061-0.651,0.926-1.128,2.254c-0.362,0.994-0.354,2.444-0.354,2.459
					v0.004c0,0.34,0.021,0.676,0.058,1.009c0,0.007,0,0.015,0.007,0.019c0,0.043,0.007,0.083,0.015,0.126
					c0.029,0.231,0.065,0.471,0.116,0.702c0.702,0.181,4.883,1.157,9.548,0.506c2.93-0.412,5.151-1.273,6.504-1.932
					c1.114-0.542,1.838-1.034,2.119-1.236c-0.281-1.027-1.041-2.641-1.743-3.647c-2.003-2.864-4.167-3.602-5.28-3.783
					c-0.42-0.068-0.76-0.108-1.244-0.108c-0.441,0-0.998,0.036-1.744,0.116c-0.738,0.072-1.57,0.268-2.532,0.593
					c-1.346,0.452-2.561,1.157-3.523,2.048l-0.036,0.032C394.499,767.799,394.202,768.074,393.855,768.508z M406.123,767.843
					c0.963,0,1.751,0.781,1.751,1.739c0,0.962-0.788,1.743-1.751,1.743c-0.955,0-1.736-0.781-1.736-1.743
					C404.387,768.624,405.168,767.843,406.123,767.843z M397.884,767.773c1.555,0,2.821,1.259,2.821,2.815
					c0,1.555-1.266,2.817-2.821,2.817c-1.556,0-2.814-1.263-2.814-2.817C395.07,769.032,396.329,767.773,397.884,767.773z"/>
			</g>
		</g>
		<g>
			
				<radialGradient id="SVGID_00000069395411605641044120000007420999553821874612_" cx="295.237" cy="408.747" r="121.6146" gradientTransform="matrix(3.7037 0 0 3.7037 -698.8171 -1106.1178)" gradientUnits="userSpaceOnUse">
				<stop  offset="0" style="stop-color:#B16C27"/>
				<stop  offset="0.0406" style="stop-color:#A66423"/>
				<stop  offset="0.1903" style="stop-color:#824A16"/>
				<stop  offset="0.3304" style="stop-color:#67370D"/>
				<stop  offset="0.4557" style="stop-color:#582B07"/>
				<stop  offset="0.5538" style="stop-color:#522705"/>
				<stop  offset="1" style="stop-color:#170000"/>
			</radialGradient>
			<path style="fill:url(#SVGID_00000069395411605641044120000007420999553821874612_);" d="M530.264,253.954h-20.645
				c-88.036-23.456-81.642-93.674-77.005-116.56c2.59-5.762,4.066-12.135,4.066-18.86c0-25.452-20.639-46.087-46.087-46.087
				c-25.456,0-46.087,20.635-46.087,46.087c0,5.97,1.172,11.654,3.237,16.887c4.568,20.488,14.164,94.351-76.592,118.533h-18.106
				c-16.446,0-29.778,13.33-29.778,29.776v383.559c0,16.449,13.332,29.781,29.778,29.781h277.22
				c16.446,0,29.774-13.332,29.774-29.781V283.73C560.038,267.284,546.71,253.954,530.264,253.954z M390.23,137.682
				c-11.158,0-20.204-9.048-20.204-20.206c0-11.16,9.046-20.208,20.204-20.208c11.162,0,20.208,9.047,20.208,20.208
				C410.438,128.634,401.393,137.682,390.23,137.682z"/>
			
				<radialGradient id="SVGID_00000054981366301825244440000002075780508835347342_" cx="294.9591" cy="405.4676" r="130.2275" gradientTransform="matrix(3.7037 0 0 3.7037 -698.8171 -1106.1178)" gradientUnits="userSpaceOnUse">
				<stop  offset="0" style="stop-color:#BB7E3E"/>
				<stop  offset="0.5538" style="stop-color:#663E1B"/>
				<stop  offset="1" style="stop-color:#2D1300"/>
			</radialGradient>
			<path style="fill:url(#SVGID_00000054981366301825244440000002075780508835347342_);" d="M435.033,106.491v23.957
				c1.031-3.805,1.646-7.78,1.646-11.914C436.68,114.359,436.079,110.338,435.033,106.491z M386.675,97.626v-24.98
				c-1.812,0.15-3.603,0.378-5.346,0.732c0.318,8.232,0.571,16.554,0.633,25.698C383.453,98.407,385.026,97.921,386.675,97.626z
				 M530.264,253.954h-4.322v35.918c-0.221,0.045-0.438,0.086-0.666,0.128v-36.046h-6.571v55.492c-0.239-1.3-0.481-2.597-0.724-3.9
				v-51.592h-3.486c-0.441,30.006-1.596,59.907-4.047,89.893c0.072-31.098-0.004-60.918-0.025-89.893h-0.804
				c-2.851-0.761-5.595-1.575-8.247-2.427c0.564,74.846,0.764,149.648-0.419,225.118c0.032-75.764-1.017-150.791-1.671-225.845
				c-4.463-1.508-8.688-3.129-12.612-4.885l-0.011,0.673c-0.008-0.228-0.008-0.457-0.015-0.686c-0.883-0.391-1.704-0.81-2.561-1.213
				v106.744c-0.21-0.038-0.427-0.083-0.644-0.122v-106.93c-11.531-5.554-20.719-12.126-27.912-19.305
				c-0.264,35.295-0.67,70.611-1.002,105.909V224.014c-1.816-1.878-3.502-3.789-5.071-5.728v50.593
				c-0.242-1.675-0.481-3.348-0.724-5.026v-46.444c-6.506-8.285-10.858-17.074-13.697-25.769v98.232
				c-0.221,0.045-0.444,0.086-0.669,0.128V189.459c-6.329-21.253-3.87-41.605-1.751-52.065c0.666-1.47,1.244-2.979,1.751-4.523
				v-28.695c-1.935-5.903-5.034-11.261-9.013-15.844c-0.072,15.234-0.318,32.375-0.623,53.241
				c-0.517-21.457-0.807-39.041-0.864-54.877c-1.44-1.496-2.958-2.899-4.583-4.192v162.743c-0.238,0.17-0.473,0.291-0.709,0.419
				V81.972c-7.765-5.948-17.443-9.525-27.98-9.525c-1.082,0-2.134,0.087-3.194,0.163v24.946c0.93-0.134,1.859-0.288,2.832-0.288
				c11.162,0,20.208,9.047,20.208,20.208c0,11.158-9.046,20.206-20.208,20.206c-0.973,0-1.902-0.154-2.832-0.288v131.36
				c-0.242-1.631-0.481-3.268-0.723-4.901v-126.53c-9.455-1.687-16.649-9.908-16.649-19.848c0-7.462,4.091-13.905,10.109-17.406
				c-0.314-7.927-0.586-16.339-0.712-26.201c-6.218,1.548-11.925,4.35-16.851,8.133c0.173,179.784,1.775,357.958,1.736,536.955
				c-4.214-176.964-1.801-358.228-1.801-536.904c-0.756,0.582-1.498,1.184-2.21,1.812c0.206,42.452,0,81.002-0.622,131.165
				c-0.629-49.73-0.843-88.028-0.648-130.015c-2.362,2.226-4.507,4.682-6.358,7.366v53.966c-0.242-1.419-0.481-2.803-0.724-4.231
				V93.476c-4.691,7.216-7.44,15.812-7.44,25.058c0,5.97,1.172,11.654,3.237,16.887c2.112,9.48,5.284,30.388-0.89,52.514
				c0.047-0.009,0.091-0.009,0.134-0.016v265.719c-0.243-1.294-0.485-2.637-0.724-3.935V189.936
				c-3.678,12.103-10.254,24.456-21.383,35.444c4.644,45.68,0.102,92.086-0.275,136.151V225.643
				c-2.774,2.717-5.834,5.346-9.201,7.863c0.304,29.915,0.499,59.551,0.329,89.681c-0.076,13.329,2.355,35.661-0.684,38.469
				c-1.382,1.304-2.42-5.4-2.232-26.985c0.279-32.565-0.123-65.426-0.55-98.855c-2.033,1.405-4.199,2.751-6.441,4.072
				c-0.351,60.162-0.524,119.604-0.116,181.654c-2.568-29.124-1.049-61.81-1.754-86.705c-0.503-17.934-1.479-13.364-2.279-7.919
				c-0.163,1.188,0.108,15.35,0.217,24.577c0.029,0.387,0.058,0.756,0.086,1.15l-0.068,0.42c0,0,0.068-0.42,0.065-0.378
				c-0.021,0.375-0.033,0.736-0.051,1.11c1.556,80.636,2.944,161.582,1.537,275.681c-2.857-107.422-6.015-185.757-1.537-275.681
				c-0.007-0.246-0.011-0.486-0.014-0.732c-0.004-0.503-0.011-1.029-0.018-1.569c-2.109-27.713-2.109-28.731-1.953-101.601
				c2.561-4.689,0.365,38.345,1.776,37.676c0.643-0.292,1.439-18.643,1.823-31.008c0.148-5.06,0.29-10.297,0.405-15.627
				c-3.23,1.819-6.637,3.563-10.309,5.192v106.187c-0.231,0-0.466,0-0.698,0.04V246.413c-2.087,0.909-4.229,1.795-6.463,2.638
				v163.228c-0.243,0-0.485,0-0.724-0.048V249.305c-4.561,1.694-9.397,3.261-14.602,4.649h-2.514v25.023
				c-0.289-0.542-0.564-1.083-0.846-1.631v-23.393h-14.747c-1.761,0-3.476,0.183-5.15,0.474
				c0.126,107.723-0.593,215.696-0.394,323.419c-1.837-40.644-1.114-84.77-1.049-126.846c0.109-65.809-0.021-131.212-0.441-196.175
				c-3.643,0.881-7.017,2.418-9.998,4.499v295.601c2.999,7.921,0.734-34.36,2.482-38.05c2.89,66.378-2.199,107.907-3.451,143.924
				v27.344c-0.405-8.959-0.322-17.976,0-27.344V260.049c-1.526,1.163-2.93,2.467-4.21,3.895
				c-0.326,53.445-1.555,102.27-1.447,150.805V265.702c-3.819,5.006-6.12,11.242-6.12,18.029v383.559
				c0,16.449,13.332,29.781,29.778,29.781h1.009V334.085c0.242,0.166,0.485,0.295,0.723,0.461V697.07h8.909
				c0.036-1.389,0.083-2.684,0.141-3.776c2.083-41.529,0.756-91.685,2.763-132.046c0,43.96,0.036,87.88-0.021,131.793
				c0,1.295,0,2.647,0,4.029h2.21c0.528-132.256-4.091-262.37-1.005-418.429c2.391,153.603,1.569,286.141,1.009,418.429h2.185
				c-0.007-1.396-0.021-2.8-0.025-4.195c-0.061-26.859-0.018-53.762-0.018-104.717c3.602,66.196,4.789,87.971,3.686,108.912h5.194
				c-0.383-20.479-0.398-40.567,0.55-60.725c0.828,21.083,0.712,41.259,0.43,60.725h2.818c0.224-47.081,0.448-94.155,0.68-141.266
				c0.706,47.747,1.534,95.617,0.391,141.266h47.125v-96.68c1.201,33.673,1.385,67.325,0.633,96.68h26.212
				c-0.604-6.199-1.064-14.413-1.017-26.736c0.021-6.582,0.694-17.521,1.125-18.149c1.653-2.51,1.642,15.423,1.613,36.372
				c-0.076,1.652-0.214,5.15-0.348,8.514h26.501c-0.572-43.149,0.09-85.171,0.492-140.427c2.116,61.969,2.449,71.73,1.353,140.427
				h2.615c-0.622-50.391,0.228-95.58,0.626-140.221c0.032,44.203,2.12,88.123,1.696,140.221h15.213V480.588
				c0.21-1.473,0.419-2.938,0.63-4.402V697.07h11.668V559.534c0.404-0.123,0.803-0.254,1.2-0.373V697.07h12.804
				c-1.074-44.93-1.164-72.982-0.174-103.342c1.273,29.278,0.873,57.244,0.195,103.342h19.73
				c-0.416-42.513-0.723-83.908,0.532-134.437c0.593,52.709,0.745,95.584,0.148,134.437h3.679V558.738
				c0.234,1.092,0.477,2.221,0.716,3.313v135.02h17.814c-0.293-25,0.051-45.652,0.162-70.906
				c1.053,25.065,1.111,45.718,1.086,70.906h11.596c-2.861-133.029-0.622-261.011-1.11-386.246
				c1.739,124.404,3.14,249.194,2.354,386.246h1.497c-0.036-16.291,0.481-34.6,1.165-56.619c1.588,20.747,1.971,39.149,1.83,56.619
				h34.23c3.855,0,7.527-0.76,10.908-2.091v-91.782c1.006,28.522,1.227,59.685,0.677,91.533c10.689-4.522,18.19-15.101,18.19-27.441
				V283.73C560.038,267.284,546.71,253.954,530.264,253.954z M228.709,641.793h-0.72V494.455c0.242-0.047,0.484-0.047,0.72-0.047
				V641.793z M241.842,451.504c-0.239,0.21-0.477,0.42-0.72,0.63V351.226c0.243,1.378,0.481,2.803,0.72,4.192V451.504z
				 M260.502,433.991h-0.723V269.718c0.242,1.554,0.481,3.1,0.723,4.653V433.991z M321.744,556.898V439.894
				C323.422,486.161,322.873,520.519,321.744,556.898z M324.981,499.739c-1.19-30.089-0.47-58.417-0.04-85.323
				C325.784,443.576,326.305,471.578,324.981,499.739z M351.446,597.504c-1.682-53.433-1.074-107.617,0-159.288V597.504z
				 M349.793,286.859c2.676,47.978,1.472,76.559,2.369,120.349C349.236,365.346,350.933,336.261,349.793,286.859z M355.841,657.465
				c-0.239,0.21-0.481,0.42-0.723,0.63V557.19c0.242,1.421,0.484,2.81,0.723,4.235V657.465z M367.791,667.69
				c-0.249,0.459-0.495,0.966-0.745,1.472V354.826c0.25,0.088,0.496,0.17,0.745,0.25V667.69z M378.027,599.512
				c-0.467,0.047-0.934,0.083-1.392,0.127V165.501c0.459,1.3,0.926,2.601,1.392,3.897V599.512z M379.08,518.301
				c0.586-110.674,1.168-221.344,1.75-332.057C381.449,298.216,383.409,411.566,379.08,518.301z M413.133,521.021
				c-0.969-60.844-1.193-95.628-0.108-134.6C414.25,424.731,413.859,459.252,413.133,521.021z M415.752,470.489
				c-0.713-63.321-0.796-112.519,0.304-157.529C416.537,364.004,417.227,410.853,415.752,470.489z M436.057,474.302
				c-0.137,1.979-0.26,3.801-0.379,5.53c-0.456,26.193,3.309,64.663-0.991,79.658c-0.511-53.32-0.55-57.133,0.991-79.658
				c0.043-2.575,0.111-5.071,0.249-7.375c-0.007-0.116-0.015-0.254-0.015-0.301c0.019-0.521,0.037-1.049,0.059-1.573
				c-0.941-39.978-0.73-80.657,0.256-143.454c0.699,63.321,1.35,103.657-0.256,143.454C436,471.824,436.028,473.065,436.057,474.302
				z M454.883,536.53c-0.224-5.447-0.727-12.695-0.621-16.095c1.219-39.056-1.846-114.02-0.279-108.156
				C457.922,426.988,454.199,491.854,454.883,536.53z M473.916,615.943c-0.235,0.289-0.467,0.622-0.705,0.875V272.86l0.705-0.249
				V615.943z M478.118,491.731c-1.089-45.298-1.183-73.46-0.191-103.964C479.207,417.18,478.799,445.254,478.118,491.731z
				 M510.845,456.575c0.401-33.485-2.503-78.154,1.798-97.894c0.68-3.145,1.609-22.669,2.025-0.877
				C515.565,405.236,512.019,422.171,510.845,456.575z M518.498,549.812c2.734,52.843,1.66,81.337,2.357,123.116
				C518.067,633.08,519.778,604.036,518.498,549.812z M524.375,641.956c-1.945-104.001,2.221-205.162,0.778-309.466
				C530.029,438.968,524.498,538.332,524.375,641.956z M537.273,635.341c-1.295-95.418-0.021-194.019-1.53-289.147
				C539.411,438.679,537.154,538.455,537.273,635.341z M436.057,474.302c0,0-0.021-0.329-0.051-0.709L436.057,474.302z"/>
			<g id="planche-zone" style="opacity:0.8;">
				
					<radialGradient id="SVGID_00000158735156864264304400000002317463133117683082_" cx="376.9992" cy="486.9999" r="287.0026" gradientTransform="matrix(3.7037 0 0 3.7037 -698.8171 -1106.1178)" gradientUnits="userSpaceOnUse">
					<stop  offset="0" style="stop-color:#BB7E3E"/>
					<stop  offset="0.5538" style="stop-color:#663E1B"/>
					<stop  offset="1" style="stop-color:#2D1300"/>
				</radialGradient>
				<path style="fill:url(#SVGID_00000158735156864264304400000002317463133117683082_);" d="M499.064,667.296H283.177
					c-18.765,0-34.032-15.267-34.032-34.031V319.536c0-18.765,15.267-34.032,34.032-34.032h215.888
					c18.764,0,34.031,15.267,34.031,34.032v313.728C533.096,652.029,517.828,667.296,499.064,667.296z M283.177,294.013
					c-14.077,0-25.525,11.449-25.525,25.523v313.728c0,14.073,11.448,25.525,25.525,25.525h215.888
					c14.073,0,25.524-11.451,25.524-25.525V319.536c0-14.074-11.451-25.523-25.524-25.523H283.177z"/>
			</g>
			<path style="opacity:0.5;fill:none;stroke:#FFFFFF;stroke-width:3;stroke-miterlimit:10;" d="M283.177,294.013
				c-14.077,0-25.525,11.449-25.525,25.523v313.728c0,14.073,11.448,25.525,25.525,25.525h215.888
				c14.073,0,25.524-11.451,25.524-25.525V319.536c0-14.074-11.451-25.523-25.524-25.523H283.177z"/>
			
				<radialGradient id="SVGID_00000067954891832425024050000014600620563846239377_" cx="294.8098" cy="339.2722" r="13.7832" gradientTransform="matrix(3.7037 0 0 3.7037 -698.8171 -1106.1178)" gradientUnits="userSpaceOnUse">
				<stop  offset="0" style="stop-color:#C28A4F"/>
				<stop  offset="0.5538" style="stop-color:#744F2F"/>
				<stop  offset="1" style="stop-color:#402811"/>
			</radialGradient>
			<path style="fill:url(#SVGID_00000067954891832425024050000014600620563846239377_);" d="M390.23,103.118
				c10.164,0,18.486,7.517,19.915,17.282c0.142-0.964,0.293-1.924,0.293-2.924c0-11.16-9.046-20.208-20.208-20.208
				c-11.158,0-20.204,9.047-20.204,20.208c0,1,0.156,1.96,0.297,2.924C371.748,110.636,380.074,103.118,390.23,103.118z"/>
		</g>
	</g>
</g>
</svg>
