<?xml version="1.0" encoding="UTF-8"?><svg id="Calque_2" xmlns="http://www.w3.org/2000/svg" viewBox="0 0 9123.02 4204.12"><defs><style>.cls-1{fill:#40512b;}.cls-1,.cls-2,.cls-3,.cls-4,.cls-5,.cls-6,.cls-7,.cls-8,.cls-9,.cls-10,.cls-11,.cls-12,.cls-13,.cls-14,.cls-15,.cls-16,.cls-17,.cls-18{stroke:#000;stroke-linecap:round;stroke-linejoin:round;}.cls-1,.cls-2,.cls-4,.cls-5,.cls-6,.cls-7,.cls-8,.cls-10,.cls-11,.cls-12,.cls-14,.cls-16{stroke-width:10px;}.cls-2{fill:#2d2835;}.cls-3,.cls-7{fill:#658444;}.cls-3,.cls-9,.cls-13,.cls-15,.cls-17,.cls-18{stroke-width:9.89px;}.cls-4{fill:#222438;}.cls-5{fill:#b7ac8f;}.cls-6{fill:#3a2523;}.cls-8{fill:#51280c;}.cls-9{fill:#b7e897;}.cls-10{fill:#514168;}.cls-11,.cls-15{fill:#95c178;}.cls-19{fill:#92ffe5;}.cls-12{fill:#fff;}.cls-13{fill:#c18b56;}.cls-14{fill:#b5d6ea;}.cls-16{fill:none;}.cls-17{fill:#8cd35e;}.cls-18,.cls-20{fill:#76b24f;}.cls-21{fill:#665365;}</style></defs><g id="Layer_5"><g id="background"><rect class="cls-19" x="5" y="5" width="9113.02" height="3432.66"/><polygon class="cls-14" points="8561.09 1625.33 8581.71 2054.08 7964.69 2011.95 7964.69 1235.13 7381.73 1275.98 7424.94 2472.9 7107.04 2472.9 7120.81 2205.11 6562.17 2194.75 6562.17 2303.25 6372.18 2303.25 6372.18 2191.23 6079.14 2185.79 6106.05 2635.98 5891.11 2635.98 5891.11 2406.24 5078.83 2406.24 5078.83 2236.03 4960.37 2236.03 4960.37 1853.89 4515.6 1792.44 4565.52 2406.24 3942.24 2406.24 4029.64 2635.98 2074.21 2635.98 2127.46 2178.06 1821.53 2178.06 1821.53 2406.24 1725.73 2406.24 1725.73 2635.98 478.21 2635.98 498.48 2502.66 365.94 2502.66 400.04 1681.05 192.83 1778.09 192.83 1275.98 5 1275.98 5 2134.81 5 2134.81 5 3244.59 5 3244.59 5 3337.33 9118.02 3337.33 9118.02 2756.85 9118.02 1595.84 8561.09 1625.33"/><polygon class="cls-14" points="5699.3 2654.4 5200.9 2662.59 5072.14 1457.47 5699.3 1449.27 5699.3 2654.4"/><polygon class="cls-14" points="6498.34 2681.23 6037.24 2681.23 5956.36 1121.17 6585.83 1121.17 6498.34 2681.23"/><polygon class="cls-20" points="5 3328.46 5 3099.94 4193.74 2701.72 9118.09 2829.53 9118.02 3328.46 5 3328.46"/><g><g><g><ellipse class="cls-9" cx="242.08" cy="2252.04" rx="218.47" ry="622.52" transform="translate(-157.52 22.55) rotate(-4.03)"/><ellipse class="cls-17" cx="570.68" cy="2094.1" rx="238.26" ry="832.63"/><polygon class="cls-13" points="692.51 1902.63 666.24 1935.89 584.5 2086.67 580.21 1724.69 545.95 1598.36 545.95 1972.71 457.61 1823.67 421.89 1790.81 545.95 2020.91 545.95 2445.3 428.42 2296.68 451.43 2357.44 545.95 2485.03 545.95 3008.59 595.43 3010.87 585.08 2136.54 692.51 1902.63"/><polygon class="cls-13" points="156.46 2312.66 173.08 2333.71 224.81 2429.12 227.52 2200.06 249.2 2120.12 249.2 2357 305.1 2262.69 327.7 2241.9 249.2 2387.51 249.2 2656.06 323.57 2562.01 309.02 2600.46 249.2 2681.2 249.2 3012.5 217.89 3013.95 224.44 2460.68 156.46 2312.66"/></g><g><ellipse class="cls-9" cx="918.48" cy="2317.05" rx="148.08" ry="463.19"/><ellipse class="cls-15" cx="703.55" cy="2422.25" rx="148.08" ry="422.73"/><polygon class="cls-13" points="772.13 2363.17 757.96 2379.87 713.87 2455.59 711.56 2273.81 693.08 2210.37 693.08 2398.36 645.44 2323.51 626.18 2307.01 693.08 2422.57 693.08 2635.7 629.7 2561.06 642.11 2591.57 693.08 2655.65 693.08 2918.58 719.77 2919.72 714.19 2480.64 772.13 2363.17"/><polygon class="cls-13" points="987.06 2252.31 972.89 2270.62 928.81 2353.59 926.5 2154.4 908.02 2084.89 908.02 2290.88 860.37 2208.86 841.11 2190.78 908.02 2317.4 908.02 2550.93 844.63 2469.15 857.04 2502.58 908.02 2572.79 908.02 2860.88 934.7 2862.13 929.12 2381.03 987.06 2252.31"/></g><ellipse class="cls-9" cx="1417.81" cy="2100.85" rx="202.42" ry="600.87"/><ellipse class="cls-17" cx="1982.16" cy="2282.24" rx="146.34" ry="403.14"/><polygon class="cls-13" points="1511.55 2016.87 1492.19 2040.61 1431.92 2148.25 1428.77 1889.86 1403.5 1799.68 1403.5 2066.9 1338.38 1960.51 1312.05 1937.05 1403.5 2101.3 1403.5 2404.24 1316.87 2298.15 1333.82 2341.53 1403.5 2432.6 1403.5 2806.33 1439.98 2807.96 1432.36 2183.84 1511.55 2016.87"/><polygon class="cls-13" points="1968.17 2891.76 1951.7 2165.23 1974.06 2207.67 1996.16 2890.81 1968.17 2891.76"/></g><g><ellipse class="cls-9" cx="8463.6" cy="2155.29" rx="185.55" ry="528.7" transform="translate(-130.44 599.58) rotate(-4.03)"/><ellipse class="cls-17" cx="8742.67" cy="2021.16" rx="202.35" ry="707.14"/><polygon class="cls-13" points="8846.15 1858.54 8823.84 1886.79 8754.41 2014.85 8750.77 1707.42 8721.67 1600.14 8721.67 1918.06 8646.65 1791.48 8616.31 1763.57 8721.67 1959 8721.67 2319.43 8621.86 2193.21 8641.4 2244.81 8721.67 2353.17 8721.67 2797.81 8763.69 2799.75 8754.91 2057.2 8846.15 1858.54"/><polygon class="cls-13" points="8390.88 2206.77 8405 2224.65 8448.93 2305.68 8451.24 2111.15 8469.65 2043.26 8469.65 2244.44 8517.13 2164.34 8536.32 2146.68 8469.65 2270.34 8469.65 2498.42 8532.81 2418.55 8520.45 2451.2 8469.65 2519.77 8469.65 2801.14 8443.06 2802.37 8448.62 2332.48 8390.88 2206.77"/></g><path class="cls-18" d="M9113.02,2825.6c-282.82-31.43-669.37-55.48-1038.07-79.14,43.32-31.84,73.9-109.12,73.9-199.45,0-118.74-175.95-444.8-175.95-444.8,0,0-60.15,326.05-60.15,444.8,0,85.08,27.15,158.6,66.52,193.45-26.02-1.6-52.22-3.15-78.6-4.7,7.77-33.89,12.08-71.25,12.08-110.54,0-153.57-146.9-440.6-146.9-440.6,0,0-89.36,174.65-128.7,324.37,.25-7.98,.36-16,.36-24.14,0-176.4-125.08-636.97-125.08-636.97,0,0-125.1,460.57-125.1,636.97,0,88.36,14.06,168.34,36.76,226.16-84.28-3.83-169.96-7.48-256.93-10.89,54.19-82.62,90.68-237.6,90.68-415.17,0-165.88-88.48-423.37-154.39-592.21-36.32-93.01-65.81-159.11-69.9-168.2-.3-.71-.47-1.07-.47-1.07,0,0-.11,.36-.27,1.05-6.92,25.32-136.28,503.12-136.28,760.43,0,172.76,34.54,324.14,86.34,408.31-577.91-20.38-1208.92-31.57-1869.74-31.57-1506.04,0-2857.25,58.16-3777.86,150.31,37.67-64.04,61.93-164.37,61.93-277.16,0-193.41-40.26-544.44-40.26-544.44,0,0-278.42,351.03-278.42,544.44,0,124.9,29.76,234.5,74.51,296.49-31.41,3.53-62.21,7.09-92.41,10.71,11.42-33.3,17.9-71.57,17.9-112.29,0-128.36-211.28-422.64-211.28-422.64,0,0-76.57,294.28-76.57,422.64,0,54.22,11.5,104.09,30.77,143.63-146.38,21.06-273.16,43.28-378.16,66.48v-37.33c57.9-13.79,102.59-103.97,102.59-213.17,0-118.72-153.87-542.75-153.87-542.75,0,0-82.22,424.03-82.22,542.75s52.85,215.01,118.05,215.01v38.95c-68.14,15.43-126.61,31.29-174.87,47.5v-31.84c32.42-11.83,56.83-63.93,56.83-126.45,0-71.22-105.56-266.82-105.56-266.82,0,0-36.05,195.59-36.05,266.82,0,65.16,26.52,118.99,60.97,127.7v38.9c-90.81,33.18-209.56,65.07-210.2,100.67m7578.41-380.5c8.59-20.33,16.06-43.67,22.16-69.4,1.15,24.73,4.01,48.5,8.34,70.93-10.13-.5-20.31-1.03-30.5-1.53Z"/><path class="cls-3" d="M7033.08,2723.19c131.58,212.83-2423.9,426.5-5277.43,500.47-1015.98-5.41-1745.45,2.4-1745.45-124.87,0-35.6,128.14-66.46,218.95-99.65v-38.9c-34.45-8.71-60.97-62.54-60.97-127.7,0-71.22,36.05-266.82,36.05-266.82,0,0,105.56,195.59,105.56,266.82,0,62.52-24.41,114.62-56.83,126.45v31.84c48.26-16.2,106.74-32.07,174.87-47.5v-38.95c-65.2,0-118.05-96.27-118.05-215.01s82.22-542.75,82.22-542.75c0,0,153.87,424.03,153.87,542.75,0,109.19-44.69,199.38-102.59,213.17v37.33c105.01-23.2,231.79-45.42,378.16-66.48-19.27-39.54-30.77-89.41-30.77-143.63,0-128.36,76.57-422.64,76.57-422.64,0,0,211.28,294.28,211.28,422.64,0,40.73-6.48,79-17.9,112.29,30.2-3.62,61-7.18,92.41-10.71-44.75-61.99-74.51-171.6-74.51-296.49,0-193.41,278.42-544.44,278.42-544.44,0,0,40.26,351.03,40.26,544.44,0,112.79-24.27,213.12-61.93,277.16,920.61-92.14,2271.82-150.31,3777.86-150.31,660.82,0,1291.83,11.19,1869.74,31.57-51.8-84.17-86.34-235.55-86.34-408.31,0-257.31,129.36-735.11,136.28-760.43l.74,.02c4.09,9.09,33.57,75.19,69.9,168.2-78.9,272.06-207.49,808.64-70.36,1030.44Z"/></g><path class="cls-7" d="M5986.89,2682.11c-60.53-8.1-127.77-15.62-200.84-22.46v-43.33c27.34,.55,45.12,8.54,45.12-45.94s-52.24-315.32-52.24-315.32c0,0-52.24,259.08-52.24,315.32,0,53.35,25.04,46.79,52.24,45.98v42.62c-35.9-3.32-73.19-6.48-111.76-9.46,14.1-12.49,24.06-42.79,24.06-78.21,0-46.56-57.28-174.42-57.28-174.42,0,0-19.58,127.86-19.58,174.42,0,33.36,8.84,62.2,21.66,75.86-8.47-.63-17-1.23-25.59-1.84,2.53-13.29,3.93-27.94,3.93-43.35,0-60.22-47.82-172.78-47.82-172.78,0,0-29.09,68.49-41.9,127.2,.08-3.13,.12-6.27,.12-9.46,0-69.17-40.72-249.78-40.72-249.78,0,0-40.73,180.61-40.73,249.78,0,34.65,4.58,66.01,11.97,88.69-27.44-1.5-55.33-2.93-83.64-4.27,17.64-32.4,29.52-93.17,29.52-162.8,0-65.05-28.81-166.02-50.26-232.23-11.82-36.47-21.42-62.39-22.75-65.96-.1-.28-.15-.42-.15-.42,0,0-.04,.14-.09,.41-2.25,9.93-44.37,197.29-44.37,298.2,0,67.75,11.24,127.11,28.11,160.11-188.14-7.99-393.57-12.38-608.7-12.38-490.3,0-930.19,22.81-1229.89,58.94,12.26-25.11,20.16-64.46,20.16-108.69,0-75.84-45.4-285.7-45.4-285.7,0,0-58.34,209.86-58.34,285.7,0,48.98,9.69,91.96,24.26,116.27-10.22,1.39-20.25,2.78-30.08,4.2,3.72-13.06,5.83-28.06,5.83-44.03,0-50.34-68.78-165.74-68.78-165.74,0,0-24.93,115.4-24.93,165.74,0,21.26,3.74,40.82,10.02,56.32-47.65,8.26-88.93,16.97-123.11,26.07v-14.64c18.85-5.41,33.4-40.77,33.4-83.59,0-46.55-50.09-212.83-50.09-212.83,0,0-26.77,166.28-26.77,212.83s17.2,84.32,38.43,84.32v15.27c-22.18,6.05-41.22,12.27-56.93,18.63v-12.49c10.55-4.64,18.5-25.07,18.5-49.58,0-27.93-34.36-104.63-34.36-104.63,0,0-11.73,76.7-11.73,104.63,0,25.55,8.63,46.66,19.85,50.08v15.26c-29.56,13.01-45.23,26.59-45.23,40.55,0,49.91,200.06,94.88,520.02,126.44m1923.95-276.72c2.8-7.97,5.23-17.12,7.21-27.21,.38,9.7,1.3,19.02,2.72,27.81-3.3-.2-6.61-.4-9.93-.6Z"/><path class="cls-21" d="M1836.77,4196.7c-83.33-2.95-1220.99,18.08-1646.67,0h0c-90.87,0-123.05-1.98-185.1-1.98v-866.26H9118.02v868.24"/><line class="cls-7" x1="5" y1="3328.46" x2="9118.02" y2="3328.46"/><g><path class="cls-11" d="M8481.67,3089.95c-.2,.15-.4,.3-.6,.45-25.5,17.14-73.95,15.86-116.84,4.75,14.2,44.14,15.93,87.07-19.03,110.53-5.21,3.46-11.08,6.44-17.48,8.9-45.62,17.47-118.73,9.86-177.44-10.09-9.23,26.97-22.17,54.03-37.7,77.89-14.76,37.88-37.1,67.77-67.26,78.27-60.8,21.1-135.62-43.05-178.94-113.99-60.44,38.69-142.52,66.33-189.59,49.09-38.93-14.27-46.24-56.5-41.64-102.91-39.42,21.28-86.38,34.44-114.81,24.05-24.11-8.82-30.82-33.06-29.7-61.11,.86-24.63,7.81-52.17,14.26-74.65-21.33-42.91-35.63-95.96-39.32-153.91-9.38-148.74,54.79-273.24,143.41-278.05,20.69-1.12,40.94,4.52,59.85,15.51,7.85-68.84,27.88-129.24,56.52-173.91,30.71-48.09,71.38-77.98,117.46-80.45,63.92-3.45,124.1,46.6,165.65,126.99,35.82-38.35,81.72-62.45,132.93-65.25,106.56-5.79,202,82.48,235.61,207.17,55.8,13.24,100.65,73.79,105.39,148.8,2.56,40.69-7.11,78.38-25.05,107.46,22.15,40.4,70.47,122.52,24.33,154.46Z"/><polygon class="cls-8" points="7897.21 3366.57 7778.13 3149.19 7798.34 3137.02 7917.42 3354.41 7897.21 3366.57"/><rect class="cls-8" x="7947.43" y="3073.88" width="23.3" height="286.61"/><polygon class="cls-8" points="8077.18 3395.59 8181.33 3138.34 8202.77 3147.87 8130.9 3325.4 8288.83 3207.25 8321.42 3212.87 8077.18 3395.59"/><polygon class="cls-8" points="8001.74 3402.61 8172.64 3195.41 8152.52 3196.31 7986 3385.05 8001.74 3402.61"/><rect class="cls-8" x="7843.17" y="3229.99" width="286.61" height="23.3" transform="translate(2542.12 9923.78) rotate(-72.92)"/><polygon class="cls-8" points="7821.18 3377.48 7797.19 3100.99 7773.89 3103.81 7790.45 3294.61 7674.19 3135.29 7655.42 3150.31 7821.18 3377.48"/><path class="cls-1" d="M8350.59,2916.29c-71.68-115.85-189.85-172.6-263.94-126.76-8.66,5.36-16.3,11.93-22.99,19.46-1.14-.77-2.28-1.54-3.42-2.29,11.09-59.33-5.13-136.08-49.09-207.13-71.68-115.85-189.85-172.6-263.94-126.76-8.15,5.04-15.37,11.17-21.77,18.14-.02-.06-.05-.11-.07-.17-.15,.24-.3,.5-.45,.74-14.69,16.23-24.72,37.21-30.03,61.34-12.44,33.32-21.39,71.08-26.03,111.83-18.91-10.99-39.17-16.63-59.85-15.51-88.62,4.81-152.79,129.31-143.41,278.05,3.68,57.95,17.99,111,39.32,153.91-6.44,22.47-13.4,50.02-14.26,74.65-1.12,28.05,5.59,52.29,29.7,61.11,28.43,10.39,75.39-2.77,114.81-24.05-4.59,46.41,2.71,88.64,41.64,102.91,47.08,17.25,129.15-10.4,189.59-49.09,43.32,70.94,118.14,135.09,178.94,113.99,30.16-10.5,52.5-40.39,67.26-78.27,14.09-21.65,25.9-45.95,34.89-70.42,3.32-1.58,6.6-3.28,9.76-5.23,37.2,11.81,79.27,18.62,116.26,17.41,26.45,2.75,51.42-1.9,72.73-15.09,74.09-45.84,76.04-176.92,4.36-292.77Z"/></g><g><g><path class="cls-12" d="M6575.28,799.77c0,77.44-44.69,140.22-99.82,140.22s-99.82-62.78-99.82-140.22l101.67-42.84,97.96,42.84Z"/><path class="cls-5" d="M6558.34,792.36l-81.02-35.43-101.67,42.84c0,56.68,23.95,105.46,58.4,127.57,6.72,2.02,13.67,3.09,20.79,3.09,53.69,0,97.88-60.45,103.51-138.08Z"/></g><g><path class="cls-12" d="M7230.66,802.96c0,77.44-44.69,140.22-99.82,140.22s-99.82-62.78-99.82-140.22l101.67-42.84,97.96,42.84Z"/><path class="cls-5" d="M7213.71,795.54l-81.02-35.43-101.67,42.84c0,56.68,23.95,105.47,58.4,127.57,6.72,2.02,13.67,3.09,20.79,3.09,53.69,0,97.88-60.45,103.51-138.08Z"/></g><g><path class="cls-6" d="M7137.15,720.59h-6.33c-4.24-24.66-11.26-48.45-20.95-70.06-11.67-26.13-27.11-49.06-45.15-67.06-18.13-17.84-38.81-30.7-60.55-37.49-21.74-6.83-44.49-7.5-66.56-2.11-22.05,5.44-43.45,16.89-62.58,33.75-4.7,4.36-9.18,9.2-13.78,13.81-4.34,5.05-8.53,10.4-12.74,15.69-3.9,5.74-7.65,11.68-11.43,17.58l-10.03,19.17c-5.81,12.39-14.51,38.2-14.51,38.2h-15.52s-18.65-50.95-33.71-72.71l-12.41-16.19c-4.5-4.79-8.98-9.64-13.57-14.25-4.84-4.09-9.67-8.24-14.61-12.05-5.13-3.31-10.18-6.88-15.38-9.93-21.04-11.51-43.59-17.11-65.97-16.63-22.39,.53-44.65,7.19-65.09,19.64-20.45,12.4-39.04,30.49-54.46,52.79-15.32,22.45-27.41,49.05-35.38,77.79-2.45,8.78-4.45,17.77-6.12,26.88h-8.71l-107.67,88.5s75.71-23.62,111.09-27.8c.78-.21,6.87-.64,9.07-.64,29.04,0,112.15,28.44,112.15,28.44l-109.12-88.5h-3.42c1.84-8.4,3.98-16.66,6.5-24.68,8.6-27.56,21.09-52.56,36.42-73.23,15.27-20.75,33.41-37.19,53.04-48.08,19.62-10.93,40.71-16.24,61.7-15.82,20.99,.58,41.8,6.96,60.82,18.82,19.11,11.58,36.48,28.3,51.52,48.45,15.04,20.22,27.33,44.55,36.29,71.32,2.88,8.68,5.35,17.65,7.51,26.81l-12.44,2391.62h38l-10.3-2380.96c5.28-27.7,13.86-53.96,25.55-77.06,12.08-23.77,26.91-44.77,44.12-61.18,17.09-16.67,36.67-28.43,57.22-34.53,20.56-5.95,41.98-6.3,62.72-.74,20.73,5.52,40.74,16.87,58.52,33.22,17.82,16.25,33.43,37.52,45.57,62.31,9.98,20.32,17.53,43.03,22.45,66.91h-7.28l-107.67,88.5s91.12-28.44,120.16-28.44,112.15,28.44,112.15,28.44l-109.12-88.5Z"/><polygon class="cls-4" points="6836.32 3149.34 6769.42 3149.34 6757.78 2770.3 6847.66 2770.3 6836.32 3149.34"/><polygon class="cls-10" points="6871.45 2952.05 6854.12 3337.45 6751.76 3337.45 6733.98 2952.05 6871.45 2952.05"/><path class="cls-2" d="M6850.45,3337.45h-98.69l-17.78-385.4h104.81c-13.88,126.15-30.84,301.94-21.45,334.11,8.53,29.44,22.63,44.15,33.11,51.29Z"/></g></g><rect class="cls-16" x="5" y="5" width="9113.02" height="4191.7"/><g><path class="cls-11" d="M6728.81,3228.48c-.23,.1-.46,.2-.69,.3-28.88,10.51-75.59-2.39-114.55-23.48,3.17,46.26-5.47,88.35-45.04,102.71-5.88,2.11-12.31,3.58-19.11,4.44-48.48,6-117.62-18.97-169.81-52.45-15.44,23.96-34.51,47.12-55.32,66.54-23.44,33.22-52.31,56.87-84.11,59.8-64.08,5.86-121.3-74.39-146.29-153.67-67.97,23.03-154.28,30.13-195.84,2.07-34.36-23.21-31.3-65.95-15.68-109.9-43.38,11.18-92.13,12.66-117.23-4.26-21.29-14.35-21.97-39.5-14.14-66.46,6.75-23.7,20.13-48.76,31.78-69.03-10.39-46.78-11.52-101.71-1.16-158.85,26.65-146.63,118.87-252.05,206.05-235.42,20.35,3.88,38.65,14.23,54.37,29.44,24.17-64.94,58.14-118.75,96.67-155.22,41.37-39.3,88.03-58.53,133.36-49.85,62.87,12.02,109.26,75.06,130.26,163.09,43.99-28.62,94.33-40.97,144.72-31.38,104.82,19.99,176.25,128.62,178.89,257.73,50.98,26.26,79.96,95.82,66.53,169.77-7.29,40.11-25.75,74.37-50.15,98.28,11.78,44.54,38.95,135.87-13.52,155.77Z"/><rect class="cls-8" x="6024.31" y="3180.99" width="21.46" height="220.29" transform="translate(-837.4 3441.95) rotate(-29.86)"/><rect class="cls-8" x="6126.84" y="3134.78" width="21.46" height="251.87"/><polygon class="cls-8" points="6246.35 3417.49 6342.28 3191.42 6362.04 3199.8 6295.84 3355.81 6441.31 3251.98 6453.77 3269.45 6246.35 3417.49"/><path class="cls-1" d="M6614.56,2950.94c-32.41-100.68-99.09-169.29-148.93-153.25-3.13,1.01-6.12,2.33-8.96,3.94-35.05-82.18-92.43-134.49-136.6-120.26-3.19,1.03-6.22,2.38-9.12,4.03-2.43-23.42-7.64-48.38-15.8-73.73-32.42-100.68-99.09-169.29-148.93-153.25-16.73,5.39-29.42,19.66-37.69,40.02-26.01,33.11-48.85,74.5-66.48,121.84-15.72-15.21-34.02-25.56-54.37-29.44-87.18-16.63-179.39,88.79-206.05,235.42-10.35,57.14-9.22,112.07,1.16,158.85-11.66,20.26-25.03,45.33-31.78,69.03-7.83,26.96-7.15,52.1,14.14,66.46,25.1,16.92,73.84,15.44,117.23,4.25-15.62,43.95-18.68,86.69,15.68,109.9,41.55,28.06,127.86,20.96,195.84-2.07,24.99,79.27,82.2,159.53,146.29,153.67,31.8-2.94,60.67-26.58,84.11-59.8,20.81-19.42,39.88-42.58,55.32-66.54,23.35,14.98,50.09,28.22,76.86,37.78,28.7,21.06,59.87,29.38,88.12,20.29,53.68-17.28,79.32-91.68,65.2-175.95,26.94-36.34,30.3-111.87,4.76-191.18Z"/></g><g><path class="cls-12" d="M3108.76,800.12c0,77.44-44.69,140.22-99.82,140.22s-99.82-62.78-99.82-140.22l101.68-42.84,97.96,42.84Z"/><path class="cls-5" d="M3091.81,792.71l-81.02-35.43-101.68,42.84c0,56.68,23.95,105.46,58.4,127.57,6.72,2.02,13.67,3.09,20.79,3.09,53.69,0,97.88-60.45,103.51-138.08Z"/></g><g><path class="cls-12" d="M3764.13,803.3c0,77.44-44.69,140.22-99.82,140.22s-99.82-62.78-99.82-140.22l101.67-42.84,97.96,42.84Z"/><path class="cls-5" d="M3747.19,795.89l-81.02-35.43-101.67,42.84c0,56.68,23.95,105.47,58.4,127.57,6.72,2.02,13.67,3.09,20.79,3.09,53.69,0,97.88-60.45,103.51-138.08Z"/></g><g><path class="cls-6" d="M3670.63,720.94h-6.33c-4.24-24.65-11.26-48.45-20.95-70.06-11.67-26.13-27.1-49.06-45.15-67.06-18.13-17.84-38.81-30.7-60.55-37.48-21.73-6.83-44.49-7.5-66.56-2.11-22.05,5.44-43.45,16.89-62.58,33.75-4.7,4.37-9.18,9.2-13.78,13.81-4.35,5.05-8.53,10.4-12.74,15.69-3.9,5.74-7.65,11.68-11.43,17.58l-10.02,19.17c-5.81,12.39-14.51,38.2-14.51,38.2h-15.52s-18.65-50.95-33.71-72.71l-12.41-16.19c-4.5-4.79-8.98-9.64-13.57-14.25-4.84-4.09-9.67-8.24-14.61-12.05-5.13-3.31-10.18-6.88-15.38-9.93-21.04-11.51-43.59-17.11-65.97-16.63-22.39,.53-44.65,7.19-65.09,19.63-20.45,12.4-39.04,30.49-54.46,52.79-15.32,22.45-27.41,49.05-35.38,77.79-2.44,8.78-4.45,17.77-6.12,26.88h-8.71l-107.67,88.5s75.71-23.62,111.09-27.8c.78-.21,6.87-.64,9.07-.64,29.04,0,112.15,28.44,112.15,28.44l-109.12-88.5h-3.42c1.84-8.4,3.98-16.66,6.5-24.68,8.61-27.56,21.09-52.56,36.42-73.23,15.27-20.75,33.41-37.19,53.04-48.08,19.62-10.93,40.71-16.24,61.7-15.82,20.99,.58,41.8,6.96,60.81,18.82,19.11,11.58,36.48,28.3,51.52,48.45,15.03,20.22,27.33,44.55,36.29,71.32,2.88,8.68,5.35,17.65,7.51,26.81l-12.44,2391.62h38l-10.3-2380.96c5.28-27.7,13.86-53.96,25.55-77.06,12.08-23.77,26.91-44.77,44.12-61.18,17.09-16.67,36.67-28.43,57.22-34.53,20.56-5.95,41.98-6.3,62.72-.74,20.74,5.52,40.74,16.87,58.52,33.22,17.82,16.25,33.43,37.52,45.57,62.31,9.98,20.32,17.53,43.03,22.45,66.91h-7.28l-107.67,88.5s91.12-28.44,120.16-28.44,112.15,28.44,112.15,28.44l-109.12-88.5Z"/><polygon class="cls-4" points="3369.8 3149.69 3302.9 3149.69 3291.26 2770.64 3381.14 2770.64 3369.8 3149.69"/><polygon class="cls-10" points="3404.92 2952.4 3387.6 3337.8 3285.23 3337.8 3267.45 2952.4 3404.92 2952.4"/><path class="cls-2" d="M3383.93,3337.8h-98.69l-17.78-385.4h104.81c-13.88,126.15-30.84,301.94-21.45,334.11,8.53,29.44,22.63,44.15,33.11,51.29Z"/></g></g></g></svg>